<?xml version="1.0" encoding="utf-8" standalone="no"?>
<!DOCTYPE svg PUBLIC "-//W3C//DTD SVG 1.1//EN"
  "http://www.w3.org/Graphics/SVG/1.1/DTD/svg11.dtd">
<!-- Created with matplotlib (https://matplotlib.org/) -->
<svg height="1440pt" version="1.1" viewBox="0 0 1440 1440" width="1440pt" xmlns="http://www.w3.org/2000/svg" xmlns:xlink="http://www.w3.org/1999/xlink">
 <defs>
  <style type="text/css">
*{stroke-linecap:butt;stroke-linejoin:round;}
  </style>
 </defs>
 <g id="figure_1">
  <g id="patch_1">
   <path d="M 0 1440 
L 1440 1440 
L 1440 0 
L 0 0 
z
" style="fill:#ffffff;"/>
  </g>
  <g id="patch_2">
   <path d="M 180 676.8 
L 1296 676.8 
L 1296 172.8 
L 180 172.8 
z
" style="fill:#ffffff;"/>
  </g>
  <g id="pane3d_1">
   <g id="patch_3">
    <path d="M 1178.219117 565.433762 
L 858.814078 441.864382 
L 864.131833 205.743578 
L 1201.345796 316.768125 
" style="fill:#f2f2f2;opacity:0.5;stroke:#f2f2f2;stroke-linejoin:miter;"/>
   </g>
  </g>
  <g id="pane3d_2">
   <g id="patch_4">
    <path d="M 341.407944 510.947639 
L 858.814078 441.864382 
L 864.131833 205.743578 
L 319.760292 267.706708 
" style="fill:#e6e6e6;opacity:0.5;stroke:#e6e6e6;stroke-linejoin:miter;"/>
   </g>
  </g>
  <g id="pane3d_3">
   <g id="patch_5">
    <path d="M 633.837951 645.892472 
L 1178.219117 565.433762 
L 858.814078 441.864382 
L 341.407944 510.947639 
" style="fill:#ececec;opacity:0.5;stroke:#ececec;stroke-linejoin:miter;"/>
   </g>
  </g>
  <g id="axis3d_1">
   <g id="line2d_1">
    <path d="M 1178.219117 565.433762 
L 633.837951 645.892472 
" style="fill:none;stroke:#000000;stroke-linecap:square;stroke-width:0.8;"/>
   </g>
   <g id="text_1">
    <!-- Player's Current Sum -->
    <defs>
     <path d="M 19.671875 64.796875 
L 19.671875 37.40625 
L 32.078125 37.40625 
Q 38.96875 37.40625 42.71875 40.96875 
Q 46.484375 44.53125 46.484375 51.125 
Q 46.484375 57.671875 42.71875 61.234375 
Q 38.96875 64.796875 32.078125 64.796875 
z
M 9.8125 72.90625 
L 32.078125 72.90625 
Q 44.34375 72.90625 50.609375 67.359375 
Q 56.890625 61.8125 56.890625 51.125 
Q 56.890625 40.328125 50.609375 34.8125 
Q 44.34375 29.296875 32.078125 29.296875 
L 19.671875 29.296875 
L 19.671875 0 
L 9.8125 0 
z
" id="DejaVuSans-80"/>
     <path d="M 9.421875 75.984375 
L 18.40625 75.984375 
L 18.40625 0 
L 9.421875 0 
z
" id="DejaVuSans-108"/>
     <path d="M 34.28125 27.484375 
Q 23.390625 27.484375 19.1875 25 
Q 14.984375 22.515625 14.984375 16.5 
Q 14.984375 11.71875 18.140625 8.90625 
Q 21.296875 6.109375 26.703125 6.109375 
Q 34.1875 6.109375 38.703125 11.40625 
Q 43.21875 16.703125 43.21875 25.484375 
L 43.21875 27.484375 
z
M 52.203125 31.203125 
L 52.203125 0 
L 43.21875 0 
L 43.21875 8.296875 
Q 40.140625 3.328125 35.546875 0.953125 
Q 30.953125 -1.421875 24.3125 -1.421875 
Q 15.921875 -1.421875 10.953125 3.296875 
Q 6 8.015625 6 15.921875 
Q 6 25.140625 12.171875 29.828125 
Q 18.359375 34.515625 30.609375 34.515625 
L 43.21875 34.515625 
L 43.21875 35.40625 
Q 43.21875 41.609375 39.140625 45 
Q 35.0625 48.390625 27.6875 48.390625 
Q 23 48.390625 18.546875 47.265625 
Q 14.109375 46.140625 10.015625 43.890625 
L 10.015625 52.203125 
Q 14.9375 54.109375 19.578125 55.046875 
Q 24.21875 56 28.609375 56 
Q 40.484375 56 46.34375 49.84375 
Q 52.203125 43.703125 52.203125 31.203125 
z
" id="DejaVuSans-97"/>
     <path d="M 32.171875 -5.078125 
Q 28.375 -14.84375 24.75 -17.8125 
Q 21.140625 -20.796875 15.09375 -20.796875 
L 7.90625 -20.796875 
L 7.90625 -13.28125 
L 13.1875 -13.28125 
Q 16.890625 -13.28125 18.9375 -11.515625 
Q 21 -9.765625 23.484375 -3.21875 
L 25.09375 0.875 
L 2.984375 54.6875 
L 12.5 54.6875 
L 29.59375 11.921875 
L 46.6875 54.6875 
L 56.203125 54.6875 
z
" id="DejaVuSans-121"/>
     <path d="M 56.203125 29.59375 
L 56.203125 25.203125 
L 14.890625 25.203125 
Q 15.484375 15.921875 20.484375 11.0625 
Q 25.484375 6.203125 34.421875 6.203125 
Q 39.59375 6.203125 44.453125 7.46875 
Q 49.3125 8.734375 54.109375 11.28125 
L 54.109375 2.78125 
Q 49.265625 0.734375 44.1875 -0.34375 
Q 39.109375 -1.421875 33.890625 -1.421875 
Q 20.796875 -1.421875 13.15625 6.1875 
Q 5.515625 13.8125 5.515625 26.8125 
Q 5.515625 40.234375 12.765625 48.109375 
Q 20.015625 56 32.328125 56 
Q 43.359375 56 49.78125 48.890625 
Q 56.203125 41.796875 56.203125 29.59375 
z
M 47.21875 32.234375 
Q 47.125 39.59375 43.09375 43.984375 
Q 39.0625 48.390625 32.421875 48.390625 
Q 24.90625 48.390625 20.390625 44.140625 
Q 15.875 39.890625 15.1875 32.171875 
z
" id="DejaVuSans-101"/>
     <path d="M 41.109375 46.296875 
Q 39.59375 47.171875 37.8125 47.578125 
Q 36.03125 48 33.890625 48 
Q 26.265625 48 22.1875 43.046875 
Q 18.109375 38.09375 18.109375 28.8125 
L 18.109375 0 
L 9.078125 0 
L 9.078125 54.6875 
L 18.109375 54.6875 
L 18.109375 46.1875 
Q 20.953125 51.171875 25.484375 53.578125 
Q 30.03125 56 36.53125 56 
Q 37.453125 56 38.578125 55.875 
Q 39.703125 55.765625 41.0625 55.515625 
z
" id="DejaVuSans-114"/>
     <path d="M 17.921875 72.90625 
L 17.921875 45.796875 
L 9.625 45.796875 
L 9.625 72.90625 
z
" id="DejaVuSans-39"/>
     <path d="M 44.28125 53.078125 
L 44.28125 44.578125 
Q 40.484375 46.53125 36.375 47.5 
Q 32.28125 48.484375 27.875 48.484375 
Q 21.1875 48.484375 17.84375 46.4375 
Q 14.5 44.390625 14.5 40.28125 
Q 14.5 37.15625 16.890625 35.375 
Q 19.28125 33.59375 26.515625 31.984375 
L 29.59375 31.296875 
Q 39.15625 29.25 43.1875 25.515625 
Q 47.21875 21.78125 47.21875 15.09375 
Q 47.21875 7.46875 41.1875 3.015625 
Q 35.15625 -1.421875 24.609375 -1.421875 
Q 20.21875 -1.421875 15.453125 -0.5625 
Q 10.6875 0.296875 5.421875 2 
L 5.421875 11.28125 
Q 10.40625 8.6875 15.234375 7.390625 
Q 20.0625 6.109375 24.8125 6.109375 
Q 31.15625 6.109375 34.5625 8.28125 
Q 37.984375 10.453125 37.984375 14.40625 
Q 37.984375 18.0625 35.515625 20.015625 
Q 33.0625 21.96875 24.703125 23.78125 
L 21.578125 24.515625 
Q 13.234375 26.265625 9.515625 29.90625 
Q 5.8125 33.546875 5.8125 39.890625 
Q 5.8125 47.609375 11.28125 51.796875 
Q 16.75 56 26.8125 56 
Q 31.78125 56 36.171875 55.265625 
Q 40.578125 54.546875 44.28125 53.078125 
z
" id="DejaVuSans-115"/>
     <path id="DejaVuSans-32"/>
     <path d="M 64.40625 67.28125 
L 64.40625 56.890625 
Q 59.421875 61.53125 53.78125 63.8125 
Q 48.140625 66.109375 41.796875 66.109375 
Q 29.296875 66.109375 22.65625 58.46875 
Q 16.015625 50.828125 16.015625 36.375 
Q 16.015625 21.96875 22.65625 14.328125 
Q 29.296875 6.6875 41.796875 6.6875 
Q 48.140625 6.6875 53.78125 8.984375 
Q 59.421875 11.28125 64.40625 15.921875 
L 64.40625 5.609375 
Q 59.234375 2.09375 53.4375 0.328125 
Q 47.65625 -1.421875 41.21875 -1.421875 
Q 24.65625 -1.421875 15.125 8.703125 
Q 5.609375 18.84375 5.609375 36.375 
Q 5.609375 53.953125 15.125 64.078125 
Q 24.65625 74.21875 41.21875 74.21875 
Q 47.75 74.21875 53.53125 72.484375 
Q 59.328125 70.75 64.40625 67.28125 
z
" id="DejaVuSans-67"/>
     <path d="M 8.5 21.578125 
L 8.5 54.6875 
L 17.484375 54.6875 
L 17.484375 21.921875 
Q 17.484375 14.15625 20.5 10.265625 
Q 23.53125 6.390625 29.59375 6.390625 
Q 36.859375 6.390625 41.078125 11.03125 
Q 45.3125 15.671875 45.3125 23.6875 
L 45.3125 54.6875 
L 54.296875 54.6875 
L 54.296875 0 
L 45.3125 0 
L 45.3125 8.40625 
Q 42.046875 3.421875 37.71875 1 
Q 33.40625 -1.421875 27.6875 -1.421875 
Q 18.265625 -1.421875 13.375 4.4375 
Q 8.5 10.296875 8.5 21.578125 
z
M 31.109375 56 
z
" id="DejaVuSans-117"/>
     <path d="M 54.890625 33.015625 
L 54.890625 0 
L 45.90625 0 
L 45.90625 32.71875 
Q 45.90625 40.484375 42.875 44.328125 
Q 39.84375 48.1875 33.796875 48.1875 
Q 26.515625 48.1875 22.3125 43.546875 
Q 18.109375 38.921875 18.109375 30.90625 
L 18.109375 0 
L 9.078125 0 
L 9.078125 54.6875 
L 18.109375 54.6875 
L 18.109375 46.1875 
Q 21.34375 51.125 25.703125 53.5625 
Q 30.078125 56 35.796875 56 
Q 45.21875 56 50.046875 50.171875 
Q 54.890625 44.34375 54.890625 33.015625 
z
" id="DejaVuSans-110"/>
     <path d="M 18.3125 70.21875 
L 18.3125 54.6875 
L 36.8125 54.6875 
L 36.8125 47.703125 
L 18.3125 47.703125 
L 18.3125 18.015625 
Q 18.3125 11.328125 20.140625 9.421875 
Q 21.96875 7.515625 27.59375 7.515625 
L 36.8125 7.515625 
L 36.8125 0 
L 27.59375 0 
Q 17.1875 0 13.234375 3.875 
Q 9.28125 7.765625 9.28125 18.015625 
L 9.28125 47.703125 
L 2.6875 47.703125 
L 2.6875 54.6875 
L 9.28125 54.6875 
L 9.28125 70.21875 
z
" id="DejaVuSans-116"/>
     <path d="M 53.515625 70.515625 
L 53.515625 60.890625 
Q 47.90625 63.578125 42.921875 64.890625 
Q 37.9375 66.21875 33.296875 66.21875 
Q 25.25 66.21875 20.875 63.09375 
Q 16.5 59.96875 16.5 54.203125 
Q 16.5 49.359375 19.40625 46.890625 
Q 22.3125 44.4375 30.421875 42.921875 
L 36.375 41.703125 
Q 47.40625 39.59375 52.65625 34.296875 
Q 57.90625 29 57.90625 20.125 
Q 57.90625 9.515625 50.796875 4.046875 
Q 43.703125 -1.421875 29.984375 -1.421875 
Q 24.8125 -1.421875 18.96875 -0.25 
Q 13.140625 0.921875 6.890625 3.21875 
L 6.890625 13.375 
Q 12.890625 10.015625 18.65625 8.296875 
Q 24.421875 6.59375 29.984375 6.59375 
Q 38.421875 6.59375 43.015625 9.90625 
Q 47.609375 13.234375 47.609375 19.390625 
Q 47.609375 24.75 44.3125 27.78125 
Q 41.015625 30.8125 33.5 32.328125 
L 27.484375 33.5 
Q 16.453125 35.6875 11.515625 40.375 
Q 6.59375 45.0625 6.59375 53.421875 
Q 6.59375 63.09375 13.40625 68.65625 
Q 20.21875 74.21875 32.171875 74.21875 
Q 37.3125 74.21875 42.625 73.28125 
Q 47.953125 72.359375 53.515625 70.515625 
z
" id="DejaVuSans-83"/>
     <path d="M 52 44.1875 
Q 55.375 50.25 60.0625 53.125 
Q 64.75 56 71.09375 56 
Q 79.640625 56 84.28125 50.015625 
Q 88.921875 44.046875 88.921875 33.015625 
L 88.921875 0 
L 79.890625 0 
L 79.890625 32.71875 
Q 79.890625 40.578125 77.09375 44.375 
Q 74.3125 48.1875 68.609375 48.1875 
Q 61.625 48.1875 57.5625 43.546875 
Q 53.515625 38.921875 53.515625 30.90625 
L 53.515625 0 
L 44.484375 0 
L 44.484375 32.71875 
Q 44.484375 40.625 41.703125 44.40625 
Q 38.921875 48.1875 33.109375 48.1875 
Q 26.21875 48.1875 22.15625 43.53125 
Q 18.109375 38.875 18.109375 30.90625 
L 18.109375 0 
L 9.078125 0 
L 9.078125 54.6875 
L 18.109375 54.6875 
L 18.109375 46.1875 
Q 21.1875 51.21875 25.484375 53.609375 
Q 29.78125 56 35.6875 56 
Q 41.65625 56 45.828125 52.96875 
Q 50 49.953125 52 44.1875 
z
" id="DejaVuSans-109"/>
    </defs>
    <g transform="translate(879.459282 637.669687)rotate(-8.407364)scale(0.1 -0.1)">
     <use xlink:href="#DejaVuSans-80"/>
     <use x="60.302734" xlink:href="#DejaVuSans-108"/>
     <use x="88.085938" xlink:href="#DejaVuSans-97"/>
     <use x="149.365234" xlink:href="#DejaVuSans-121"/>
     <use x="208.544922" xlink:href="#DejaVuSans-101"/>
     <use x="270.068359" xlink:href="#DejaVuSans-114"/>
     <use x="311.181641" xlink:href="#DejaVuSans-39"/>
     <use x="338.671875" xlink:href="#DejaVuSans-115"/>
     <use x="390.771484" xlink:href="#DejaVuSans-32"/>
     <use x="422.558594" xlink:href="#DejaVuSans-67"/>
     <use x="492.382812" xlink:href="#DejaVuSans-117"/>
     <use x="555.761719" xlink:href="#DejaVuSans-114"/>
     <use x="596.859375" xlink:href="#DejaVuSans-114"/>
     <use x="637.941406" xlink:href="#DejaVuSans-101"/>
     <use x="699.464844" xlink:href="#DejaVuSans-110"/>
     <use x="762.84375" xlink:href="#DejaVuSans-116"/>
     <use x="802.052734" xlink:href="#DejaVuSans-32"/>
     <use x="833.839844" xlink:href="#DejaVuSans-83"/>
     <use x="897.316406" xlink:href="#DejaVuSans-117"/>
     <use x="960.695312" xlink:href="#DejaVuSans-109"/>
    </g>
   </g>
   <g id="Line3DCollection_1">
    <path d="M 719.229522 633.271727 
L 422.338984 500.141854 
L 405.065762 257.996807 
" style="fill:none;stroke:#b0b0b0;stroke-width:0.8;"/>
    <path d="M 816.514871 618.8931 
L 514.646224 487.817135 
L 502.291344 246.930098 
" style="fill:none;stroke:#b0b0b0;stroke-width:0.8;"/>
    <path d="M 912.248164 604.743865 
L 605.588846 475.674619 
L 598.005697 236.035405 
" style="fill:none;stroke:#b0b0b0;stroke-width:0.8;"/>
    <path d="M 1006.466248 590.818575 
L 695.196886 463.710294 
L 692.243785 225.308747 
" style="fill:none;stroke:#b0b0b0;stroke-width:0.8;"/>
    <path d="M 1099.204814 577.111956 
L 783.499508 451.920266 
L 785.039501 214.746268 
" style="fill:none;stroke:#b0b0b0;stroke-width:0.8;"/>
   </g>
   <g id="xtick_1">
    <g id="line2d_2">
     <path d="M 716.664996 632.121758 
L 724.36849 635.576112 
" style="fill:none;stroke:#000000;stroke-linecap:square;stroke-width:0.8;"/>
    </g>
    <g id="text_2">
     <!-- 12 -->
     <defs>
      <path d="M 12.40625 8.296875 
L 28.515625 8.296875 
L 28.515625 63.921875 
L 10.984375 60.40625 
L 10.984375 69.390625 
L 28.421875 72.90625 
L 38.28125 72.90625 
L 38.28125 8.296875 
L 54.390625 8.296875 
L 54.390625 0 
L 12.40625 0 
z
" id="DejaVuSans-49"/>
      <path d="M 19.1875 8.296875 
L 53.609375 8.296875 
L 53.609375 0 
L 7.328125 0 
L 7.328125 8.296875 
Q 12.9375 14.109375 22.625 23.890625 
Q 32.328125 33.6875 34.8125 36.53125 
Q 39.546875 41.84375 41.421875 45.53125 
Q 43.3125 49.21875 43.3125 52.78125 
Q 43.3125 58.59375 39.234375 62.25 
Q 35.15625 65.921875 28.609375 65.921875 
Q 23.96875 65.921875 18.8125 64.3125 
Q 13.671875 62.703125 7.8125 59.421875 
L 7.8125 69.390625 
Q 13.765625 71.78125 18.9375 73 
Q 24.125 74.21875 28.421875 74.21875 
Q 39.75 74.21875 46.484375 68.546875 
Q 53.21875 62.890625 53.21875 53.421875 
Q 53.21875 48.921875 51.53125 44.890625 
Q 49.859375 40.875 45.40625 35.40625 
Q 44.1875 33.984375 37.640625 27.21875 
Q 31.109375 20.453125 19.1875 8.296875 
z
" id="DejaVuSans-50"/>
     </defs>
     <g transform="translate(721.666949 651.381853)scale(0.1 -0.1)">
      <use xlink:href="#DejaVuSans-49"/>
      <use x="63.623047" xlink:href="#DejaVuSans-50"/>
     </g>
    </g>
   </g>
   <g id="xtick_2">
    <g id="line2d_3">
     <path d="M 813.908891 617.761544 
L 821.736824 621.160552 
" style="fill:none;stroke:#000000;stroke-linecap:square;stroke-width:0.8;"/>
    </g>
    <g id="text_3">
     <!-- 14 -->
     <defs>
      <path d="M 37.796875 64.3125 
L 12.890625 25.390625 
L 37.796875 25.390625 
z
M 35.203125 72.90625 
L 47.609375 72.90625 
L 47.609375 25.390625 
L 58.015625 25.390625 
L 58.015625 17.1875 
L 47.609375 17.1875 
L 47.609375 0 
L 37.796875 0 
L 37.796875 17.1875 
L 4.890625 17.1875 
L 4.890625 26.703125 
z
" id="DejaVuSans-52"/>
     </defs>
     <g transform="translate(818.952072 636.908209)scale(0.1 -0.1)">
      <use xlink:href="#DejaVuSans-49"/>
      <use x="63.623047" xlink:href="#DejaVuSans-52"/>
     </g>
    </g>
   </g>
   <g id="xtick_3">
    <g id="line2d_4">
     <path d="M 909.602374 603.630284 
L 917.549809 606.975264 
" style="fill:none;stroke:#000000;stroke-linecap:square;stroke-width:0.8;"/>
    </g>
    <g id="text_4">
     <!-- 16 -->
     <defs>
      <path d="M 33.015625 40.375 
Q 26.375 40.375 22.484375 35.828125 
Q 18.609375 31.296875 18.609375 23.390625 
Q 18.609375 15.53125 22.484375 10.953125 
Q 26.375 6.390625 33.015625 6.390625 
Q 39.65625 6.390625 43.53125 10.953125 
Q 47.40625 15.53125 47.40625 23.390625 
Q 47.40625 31.296875 43.53125 35.828125 
Q 39.65625 40.375 33.015625 40.375 
z
M 52.59375 71.296875 
L 52.59375 62.3125 
Q 48.875 64.0625 45.09375 64.984375 
Q 41.3125 65.921875 37.59375 65.921875 
Q 27.828125 65.921875 22.671875 59.328125 
Q 17.53125 52.734375 16.796875 39.40625 
Q 19.671875 43.65625 24.015625 45.921875 
Q 28.375 48.1875 33.59375 48.1875 
Q 44.578125 48.1875 50.953125 41.515625 
Q 57.328125 34.859375 57.328125 23.390625 
Q 57.328125 12.15625 50.6875 5.359375 
Q 44.046875 -1.421875 33.015625 -1.421875 
Q 20.359375 -1.421875 13.671875 8.265625 
Q 6.984375 17.96875 6.984375 36.375 
Q 6.984375 53.65625 15.1875 63.9375 
Q 23.390625 74.21875 37.203125 74.21875 
Q 40.921875 74.21875 44.703125 73.484375 
Q 48.484375 72.75 52.59375 71.296875 
z
" id="DejaVuSans-54"/>
     </defs>
     <g transform="translate(914.684025 622.665638)scale(0.1 -0.1)">
      <use xlink:href="#DejaVuSans-49"/>
      <use x="63.623047" xlink:href="#DejaVuSans-54"/>
     </g>
    </g>
   </g>
   <g id="xtick_4">
    <g id="line2d_5">
     <path d="M 1003.782229 589.722544 
L 1011.844415 593.014775 
" style="fill:none;stroke:#000000;stroke-linecap:square;stroke-width:0.8;"/>
    </g>
    <g id="text_5">
     <!-- 18 -->
     <defs>
      <path d="M 31.78125 34.625 
Q 24.75 34.625 20.71875 30.859375 
Q 16.703125 27.09375 16.703125 20.515625 
Q 16.703125 13.921875 20.71875 10.15625 
Q 24.75 6.390625 31.78125 6.390625 
Q 38.8125 6.390625 42.859375 10.171875 
Q 46.921875 13.96875 46.921875 20.515625 
Q 46.921875 27.09375 42.890625 30.859375 
Q 38.875 34.625 31.78125 34.625 
z
M 21.921875 38.8125 
Q 15.578125 40.375 12.03125 44.71875 
Q 8.5 49.078125 8.5 55.328125 
Q 8.5 64.0625 14.71875 69.140625 
Q 20.953125 74.21875 31.78125 74.21875 
Q 42.671875 74.21875 48.875 69.140625 
Q 55.078125 64.0625 55.078125 55.328125 
Q 55.078125 49.078125 51.53125 44.71875 
Q 48 40.375 41.703125 38.8125 
Q 48.828125 37.15625 52.796875 32.3125 
Q 56.78125 27.484375 56.78125 20.515625 
Q 56.78125 9.90625 50.3125 4.234375 
Q 43.84375 -1.421875 31.78125 -1.421875 
Q 19.734375 -1.421875 13.25 4.234375 
Q 6.78125 9.90625 6.78125 20.515625 
Q 6.78125 27.484375 10.78125 32.3125 
Q 14.796875 37.15625 21.921875 38.8125 
z
M 18.3125 54.390625 
Q 18.3125 48.734375 21.84375 45.5625 
Q 25.390625 42.390625 31.78125 42.390625 
Q 38.140625 42.390625 41.71875 45.5625 
Q 45.3125 48.734375 45.3125 54.390625 
Q 45.3125 60.0625 41.71875 63.234375 
Q 38.140625 66.40625 31.78125 66.40625 
Q 25.390625 66.40625 21.84375 63.234375 
Q 18.3125 60.0625 18.3125 54.390625 
z
" id="DejaVuSans-56"/>
     </defs>
     <g transform="translate(1008.899709 608.64865)scale(0.1 -0.1)">
      <use xlink:href="#DejaVuSans-49"/>
      <use x="63.623047" xlink:href="#DejaVuSans-56"/>
     </g>
    </g>
   </g>
   <g id="xtick_5">
    <g id="line2d_6">
     <path d="M 1096.484087 576.033063 
L 1104.656454 579.273782 
" style="fill:none;stroke:#000000;stroke-linecap:square;stroke-width:0.8;"/>
    </g>
    <g id="text_6">
     <!-- 20 -->
     <defs>
      <path d="M 31.78125 66.40625 
Q 24.171875 66.40625 20.328125 58.90625 
Q 16.5 51.421875 16.5 36.375 
Q 16.5 21.390625 20.328125 13.890625 
Q 24.171875 6.390625 31.78125 6.390625 
Q 39.453125 6.390625 43.28125 13.890625 
Q 47.125 21.390625 47.125 36.375 
Q 47.125 51.421875 43.28125 58.90625 
Q 39.453125 66.40625 31.78125 66.40625 
z
M 31.78125 74.21875 
Q 44.046875 74.21875 50.515625 64.515625 
Q 56.984375 54.828125 56.984375 36.375 
Q 56.984375 17.96875 50.515625 8.265625 
Q 44.046875 -1.421875 31.78125 -1.421875 
Q 19.53125 -1.421875 13.0625 8.265625 
Q 6.59375 17.96875 6.59375 36.375 
Q 6.59375 54.828125 13.0625 64.515625 
Q 19.53125 74.21875 31.78125 74.21875 
z
" id="DejaVuSans-48"/>
     </defs>
     <g transform="translate(1101.634865 594.851929)scale(0.1 -0.1)">
      <use xlink:href="#DejaVuSans-50"/>
      <use x="63.623047" xlink:href="#DejaVuSans-48"/>
     </g>
    </g>
   </g>
  </g>
  <g id="axis3d_2">
   <g id="line2d_7">
    <path d="M 341.407944 510.947639 
L 633.837951 645.892472 
" style="fill:none;stroke:#000000;stroke-linecap:square;stroke-width:0.8;"/>
   </g>
   <g id="text_7">
    <!-- Dealer's Showing Card -->
    <defs>
     <path d="M 19.671875 64.796875 
L 19.671875 8.109375 
L 31.59375 8.109375 
Q 46.6875 8.109375 53.6875 14.9375 
Q 60.6875 21.78125 60.6875 36.53125 
Q 60.6875 51.171875 53.6875 57.984375 
Q 46.6875 64.796875 31.59375 64.796875 
z
M 9.8125 72.90625 
L 30.078125 72.90625 
Q 51.265625 72.90625 61.171875 64.09375 
Q 71.09375 55.28125 71.09375 36.53125 
Q 71.09375 17.671875 61.125 8.828125 
Q 51.171875 0 30.078125 0 
L 9.8125 0 
z
" id="DejaVuSans-68"/>
     <path d="M 54.890625 33.015625 
L 54.890625 0 
L 45.90625 0 
L 45.90625 32.71875 
Q 45.90625 40.484375 42.875 44.328125 
Q 39.84375 48.1875 33.796875 48.1875 
Q 26.515625 48.1875 22.3125 43.546875 
Q 18.109375 38.921875 18.109375 30.90625 
L 18.109375 0 
L 9.078125 0 
L 9.078125 75.984375 
L 18.109375 75.984375 
L 18.109375 46.1875 
Q 21.34375 51.125 25.703125 53.5625 
Q 30.078125 56 35.796875 56 
Q 45.21875 56 50.046875 50.171875 
Q 54.890625 44.34375 54.890625 33.015625 
z
" id="DejaVuSans-104"/>
     <path d="M 30.609375 48.390625 
Q 23.390625 48.390625 19.1875 42.75 
Q 14.984375 37.109375 14.984375 27.296875 
Q 14.984375 17.484375 19.15625 11.84375 
Q 23.34375 6.203125 30.609375 6.203125 
Q 37.796875 6.203125 41.984375 11.859375 
Q 46.1875 17.53125 46.1875 27.296875 
Q 46.1875 37.015625 41.984375 42.703125 
Q 37.796875 48.390625 30.609375 48.390625 
z
M 30.609375 56 
Q 42.328125 56 49.015625 48.375 
Q 55.71875 40.765625 55.71875 27.296875 
Q 55.71875 13.875 49.015625 6.21875 
Q 42.328125 -1.421875 30.609375 -1.421875 
Q 18.84375 -1.421875 12.171875 6.21875 
Q 5.515625 13.875 5.515625 27.296875 
Q 5.515625 40.765625 12.171875 48.375 
Q 18.84375 56 30.609375 56 
z
" id="DejaVuSans-111"/>
     <path d="M 4.203125 54.6875 
L 13.1875 54.6875 
L 24.421875 12.015625 
L 35.59375 54.6875 
L 46.1875 54.6875 
L 57.421875 12.015625 
L 68.609375 54.6875 
L 77.59375 54.6875 
L 63.28125 0 
L 52.6875 0 
L 40.921875 44.828125 
L 29.109375 0 
L 18.5 0 
z
" id="DejaVuSans-119"/>
     <path d="M 9.421875 54.6875 
L 18.40625 54.6875 
L 18.40625 0 
L 9.421875 0 
z
M 9.421875 75.984375 
L 18.40625 75.984375 
L 18.40625 64.59375 
L 9.421875 64.59375 
z
" id="DejaVuSans-105"/>
     <path d="M 45.40625 27.984375 
Q 45.40625 37.75 41.375 43.109375 
Q 37.359375 48.484375 30.078125 48.484375 
Q 22.859375 48.484375 18.828125 43.109375 
Q 14.796875 37.75 14.796875 27.984375 
Q 14.796875 18.265625 18.828125 12.890625 
Q 22.859375 7.515625 30.078125 7.515625 
Q 37.359375 7.515625 41.375 12.890625 
Q 45.40625 18.265625 45.40625 27.984375 
z
M 54.390625 6.78125 
Q 54.390625 -7.171875 48.1875 -13.984375 
Q 42 -20.796875 29.203125 -20.796875 
Q 24.46875 -20.796875 20.265625 -20.09375 
Q 16.0625 -19.390625 12.109375 -17.921875 
L 12.109375 -9.1875 
Q 16.0625 -11.328125 19.921875 -12.34375 
Q 23.78125 -13.375 27.78125 -13.375 
Q 36.625 -13.375 41.015625 -8.765625 
Q 45.40625 -4.15625 45.40625 5.171875 
L 45.40625 9.625 
Q 42.625 4.78125 38.28125 2.390625 
Q 33.9375 0 27.875 0 
Q 17.828125 0 11.671875 7.65625 
Q 5.515625 15.328125 5.515625 27.984375 
Q 5.515625 40.671875 11.671875 48.328125 
Q 17.828125 56 27.875 56 
Q 33.9375 56 38.28125 53.609375 
Q 42.625 51.21875 45.40625 46.390625 
L 45.40625 54.6875 
L 54.390625 54.6875 
z
" id="DejaVuSans-103"/>
     <path d="M 45.40625 46.390625 
L 45.40625 75.984375 
L 54.390625 75.984375 
L 54.390625 0 
L 45.40625 0 
L 45.40625 8.203125 
Q 42.578125 3.328125 38.25 0.953125 
Q 33.9375 -1.421875 27.875 -1.421875 
Q 17.96875 -1.421875 11.734375 6.484375 
Q 5.515625 14.40625 5.515625 27.296875 
Q 5.515625 40.1875 11.734375 48.09375 
Q 17.96875 56 27.875 56 
Q 33.9375 56 38.25 53.625 
Q 42.578125 51.265625 45.40625 46.390625 
z
M 14.796875 27.296875 
Q 14.796875 17.390625 18.875 11.75 
Q 22.953125 6.109375 30.078125 6.109375 
Q 37.203125 6.109375 41.296875 11.75 
Q 45.40625 17.390625 45.40625 27.296875 
Q 45.40625 37.203125 41.296875 42.84375 
Q 37.203125 48.484375 30.078125 48.484375 
Q 22.953125 48.484375 18.875 42.84375 
Q 14.796875 37.203125 14.796875 27.296875 
z
" id="DejaVuSans-100"/>
    </defs>
    <g transform="translate(397.302207 573.181633)rotate(-335.228552)scale(0.1 -0.1)">
     <use xlink:href="#DejaVuSans-68"/>
     <use x="77.001953" xlink:href="#DejaVuSans-101"/>
     <use x="138.525391" xlink:href="#DejaVuSans-97"/>
     <use x="199.804688" xlink:href="#DejaVuSans-108"/>
     <use x="227.587891" xlink:href="#DejaVuSans-101"/>
     <use x="289.111328" xlink:href="#DejaVuSans-114"/>
     <use x="330.224609" xlink:href="#DejaVuSans-39"/>
     <use x="357.714844" xlink:href="#DejaVuSans-115"/>
     <use x="409.814453" xlink:href="#DejaVuSans-32"/>
     <use x="441.601562" xlink:href="#DejaVuSans-83"/>
     <use x="505.078125" xlink:href="#DejaVuSans-104"/>
     <use x="568.457031" xlink:href="#DejaVuSans-111"/>
     <use x="629.638672" xlink:href="#DejaVuSans-119"/>
     <use x="711.425781" xlink:href="#DejaVuSans-105"/>
     <use x="739.208984" xlink:href="#DejaVuSans-110"/>
     <use x="802.587891" xlink:href="#DejaVuSans-103"/>
     <use x="866.064453" xlink:href="#DejaVuSans-32"/>
     <use x="897.851562" xlink:href="#DejaVuSans-67"/>
     <use x="967.675781" xlink:href="#DejaVuSans-97"/>
     <use x="1028.955078" xlink:href="#DejaVuSans-114"/>
     <use x="1070.052734" xlink:href="#DejaVuSans-100"/>
    </g>
   </g>
   <g id="Line3DCollection_2">
    <path d="M 1143.525737 297.73141 
L 1123.629375 544.314432 
L 583.719407 622.764755 
" style="fill:none;stroke:#b0b0b0;stroke-width:0.8;"/>
    <path d="M 1075.668393 275.390014 
L 1059.470047 519.492881 
L 524.888556 595.616654 
" style="fill:none;stroke:#b0b0b0;stroke-width:0.8;"/>
    <path d="M 1009.866717 253.725427 
L 997.158168 495.38606 
L 467.827579 569.285279 
" style="fill:none;stroke:#b0b0b0;stroke-width:0.8;"/>
    <path d="M 946.028693 232.707353 
L 936.615075 471.963535 
L 412.457792 543.734322 
" style="fill:none;stroke:#b0b0b0;stroke-width:0.8;"/>
    <path d="M 884.067712 212.30728 
L 877.766509 449.196577 
L 358.705107 518.929593 
" style="fill:none;stroke:#b0b0b0;stroke-width:0.8;"/>
   </g>
   <g id="xtick_6">
    <g id="line2d_8">
     <path d="M 588.236434 622.108419 
L 574.675337 624.078882 
" style="fill:none;stroke:#000000;stroke-linecap:square;stroke-width:0.8;"/>
    </g>
    <g id="text_8">
     <!-- 2 -->
     <g transform="translate(565.390192 639.158366)scale(0.1 -0.1)">
      <use xlink:href="#DejaVuSans-50"/>
     </g>
    </g>
   </g>
   <g id="xtick_7">
    <g id="line2d_9">
     <path d="M 529.358014 594.980208 
L 515.93988 596.890935 
" style="fill:none;stroke:#000000;stroke-linecap:square;stroke-width:0.8;"/>
    </g>
    <g id="text_9">
     <!-- 4 -->
     <g transform="translate(506.801909 611.881177)scale(0.1 -0.1)">
      <use xlink:href="#DejaVuSans-52"/>
     </g>
    </g>
   </g>
   <g id="xtick_8">
    <g id="line2d_10">
     <path d="M 472.250265 568.667833 
L 458.972694 570.521499 
" style="fill:none;stroke:#000000;stroke-linecap:square;stroke-width:0.8;"/>
    </g>
    <g id="text_10">
     <!-- 6 -->
     <g transform="translate(449.975871 585.424443)scale(0.1 -0.1)">
      <use xlink:href="#DejaVuSans-54"/>
     </g>
    </g>
   </g>
   <g id="xtick_9">
    <g id="line2d_11">
     <path d="M 416.834496 543.135037 
L 403.695111 544.934161 
" style="fill:none;stroke:#000000;stroke-linecap:square;stroke-width:0.8;"/>
    </g>
    <g id="text_11">
     <!-- 8 -->
     <g transform="translate(394.833746 559.751695)scale(0.1 -0.1)">
      <use xlink:href="#DejaVuSans-56"/>
     </g>
    </g>
   </g>
   <g id="xtick_10">
    <g id="line2d_12">
     <path d="M 363.036608 518.34768 
L 350.03306 520.094634 
" style="fill:none;stroke:#000000;stroke-linecap:square;stroke-width:0.8;"/>
    </g>
    <g id="text_12">
     <!-- 10 -->
     <g transform="translate(338.120529 534.828595)scale(0.1 -0.1)">
      <use xlink:href="#DejaVuSans-49"/>
      <use x="63.623047" xlink:href="#DejaVuSans-48"/>
     </g>
    </g>
   </g>
  </g>
  <g id="axis3d_3">
   <g id="line2d_13">
    <path d="M 341.407944 510.947639 
L 319.760292 267.706708 
" style="fill:none;stroke:#000000;stroke-linecap:square;stroke-width:0.8;"/>
   </g>
   <g id="text_13">
    <!-- State Value -->
    <defs>
     <path d="M 28.609375 0 
L 0.78125 72.90625 
L 11.078125 72.90625 
L 34.1875 11.53125 
L 57.328125 72.90625 
L 67.578125 72.90625 
L 39.796875 0 
z
" id="DejaVuSans-86"/>
    </defs>
    <g transform="translate(276.414167 360.891157)rotate(-275.085739)scale(0.1 -0.1)">
     <use xlink:href="#DejaVuSans-83"/>
     <use x="63.476562" xlink:href="#DejaVuSans-116"/>
     <use x="102.685547" xlink:href="#DejaVuSans-97"/>
     <use x="163.964844" xlink:href="#DejaVuSans-116"/>
     <use x="203.173828" xlink:href="#DejaVuSans-101"/>
     <use x="264.697266" xlink:href="#DejaVuSans-32"/>
     <use x="296.484375" xlink:href="#DejaVuSans-86"/>
     <use x="364.783203" xlink:href="#DejaVuSans-97"/>
     <use x="426.0625" xlink:href="#DejaVuSans-108"/>
     <use x="453.845703" xlink:href="#DejaVuSans-117"/>
     <use x="517.224609" xlink:href="#DejaVuSans-101"/>
    </g>
   </g>
   <g id="Line3DCollection_3">
    <path d="M 340.996209 506.321233 
L 858.915437 437.363792 
L 1178.658241 560.712158 
" style="fill:none;stroke:#b0b0b0;stroke-width:0.8;"/>
    <path d="M 338.482594 478.077339 
L 859.534046 409.896096 
L 1181.339685 531.880392 
" style="fill:none;stroke:#b0b0b0;stroke-width:0.8;"/>
    <path d="M 335.938126 449.486769 
L 860.15993 382.105412 
L 1184.055133 502.682999 
" style="fill:none;stroke:#b0b0b0;stroke-width:0.8;"/>
    <path d="M 333.362234 420.5431 
L 860.793216 353.986007 
L 1186.805237 473.112982 
" style="fill:none;stroke:#b0b0b0;stroke-width:0.8;"/>
    <path d="M 330.754331 391.239752 
L 861.434038 325.532015 
L 1189.590664 443.16316 
" style="fill:none;stroke:#b0b0b0;stroke-width:0.8;"/>
    <path d="M 328.113818 361.569976 
L 862.08253 296.73743 
L 1192.412099 412.82617 
" style="fill:none;stroke:#b0b0b0;stroke-width:0.8;"/>
    <path d="M 325.440078 331.526858 
L 862.738832 267.596097 
L 1195.270244 382.094454 
" style="fill:none;stroke:#b0b0b0;stroke-width:0.8;"/>
    <path d="M 322.73248 301.103306 
L 863.403085 238.101717 
L 1198.165821 350.960259 
" style="fill:none;stroke:#b0b0b0;stroke-width:0.8;"/>
   </g>
   <g id="xtick_11">
    <g id="line2d_14">
     <path d="M 345.317505 505.745881 
L 332.344628 507.473132 
" style="fill:none;stroke:#000000;stroke-linecap:square;stroke-width:0.8;"/>
    </g>
    <g id="text_14">
     <!-- −1.00 -->
     <defs>
      <path d="M 10.59375 35.5 
L 73.1875 35.5 
L 73.1875 27.203125 
L 10.59375 27.203125 
z
" id="DejaVuSans-8722"/>
      <path d="M 10.6875 12.40625 
L 21 12.40625 
L 21 0 
L 10.6875 0 
z
" id="DejaVuSans-46"/>
     </defs>
     <g transform="translate(303.582517 512.485259)scale(0.1 -0.1)">
      <use xlink:href="#DejaVuSans-8722"/>
      <use x="83.789062" xlink:href="#DejaVuSans-49"/>
      <use x="147.412109" xlink:href="#DejaVuSans-46"/>
      <use x="179.199219" xlink:href="#DejaVuSans-48"/>
      <use x="242.822266" xlink:href="#DejaVuSans-48"/>
     </g>
    </g>
   </g>
   <g id="xtick_12">
    <g id="line2d_15">
     <path d="M 342.831116 477.508321 
L 329.77645 479.216565 
" style="fill:none;stroke:#000000;stroke-linecap:square;stroke-width:0.8;"/>
    </g>
    <g id="text_15">
     <!-- −0.75 -->
     <defs>
      <path d="M 8.203125 72.90625 
L 55.078125 72.90625 
L 55.078125 68.703125 
L 28.609375 0 
L 18.3125 0 
L 43.21875 64.59375 
L 8.203125 64.59375 
z
" id="DejaVuSans-55"/>
      <path d="M 10.796875 72.90625 
L 49.515625 72.90625 
L 49.515625 64.59375 
L 19.828125 64.59375 
L 19.828125 46.734375 
Q 21.96875 47.46875 24.109375 47.828125 
Q 26.265625 48.1875 28.421875 48.1875 
Q 40.625 48.1875 47.75 41.5 
Q 54.890625 34.8125 54.890625 23.390625 
Q 54.890625 11.625 47.5625 5.09375 
Q 40.234375 -1.421875 26.90625 -1.421875 
Q 22.3125 -1.421875 17.546875 -0.640625 
Q 12.796875 0.140625 7.71875 1.703125 
L 7.71875 11.625 
Q 12.109375 9.234375 16.796875 8.0625 
Q 21.484375 6.890625 26.703125 6.890625 
Q 35.15625 6.890625 40.078125 11.328125 
Q 45.015625 15.765625 45.015625 23.390625 
Q 45.015625 31 40.078125 35.4375 
Q 35.15625 39.890625 26.703125 39.890625 
Q 22.75 39.890625 18.8125 39.015625 
Q 14.890625 38.140625 10.796875 36.28125 
z
" id="DejaVuSans-53"/>
     </defs>
     <g transform="translate(300.936453 484.257159)scale(0.1 -0.1)">
      <use xlink:href="#DejaVuSans-8722"/>
      <use x="83.789062" xlink:href="#DejaVuSans-48"/>
      <use x="147.412109" xlink:href="#DejaVuSans-46"/>
      <use x="179.199219" xlink:href="#DejaVuSans-55"/>
      <use x="242.822266" xlink:href="#DejaVuSans-53"/>
     </g>
    </g>
   </g>
   <g id="xtick_13">
    <g id="line2d_16">
     <path d="M 340.314219 448.924283 
L 327.176727 450.612924 
" style="fill:none;stroke:#000000;stroke-linecap:square;stroke-width:0.8;"/>
    </g>
    <g id="text_16">
     <!-- −0.50 -->
     <g transform="translate(298.257939 455.68288)scale(0.1 -0.1)">
      <use xlink:href="#DejaVuSans-8722"/>
      <use x="83.789062" xlink:href="#DejaVuSans-48"/>
      <use x="147.412109" xlink:href="#DejaVuSans-46"/>
      <use x="179.199219" xlink:href="#DejaVuSans-53"/>
      <use x="242.822266" xlink:href="#DejaVuSans-48"/>
     </g>
    </g>
   </g>
   <g id="xtick_14">
    <g id="line2d_17">
     <path d="M 337.766248 419.987353 
L 324.544875 421.655772 
" style="fill:none;stroke:#000000;stroke-linecap:square;stroke-width:0.8;"/>
    </g>
    <g id="text_17">
     <!-- −0.25 -->
     <g transform="translate(295.546374 426.756014)scale(0.1 -0.1)">
      <use xlink:href="#DejaVuSans-8722"/>
      <use x="83.789062" xlink:href="#DejaVuSans-48"/>
      <use x="147.412109" xlink:href="#DejaVuSans-46"/>
      <use x="179.199219" xlink:href="#DejaVuSans-50"/>
      <use x="242.822266" xlink:href="#DejaVuSans-53"/>
     </g>
    </g>
   </g>
   <g id="xtick_15">
    <g id="line2d_18">
     <path d="M 335.186625 390.690953 
L 321.880294 392.338518 
" style="fill:none;stroke:#000000;stroke-linecap:square;stroke-width:0.8;"/>
    </g>
    <g id="text_18">
     <!-- 0.00 -->
     <g transform="translate(296.990986 397.469995)scale(0.1 -0.1)">
      <use xlink:href="#DejaVuSans-48"/>
      <use x="63.623047" xlink:href="#DejaVuSans-46"/>
      <use x="95.410156" xlink:href="#DejaVuSans-48"/>
      <use x="159.033203" xlink:href="#DejaVuSans-48"/>
     </g>
    </g>
   </g>
   <g id="xtick_16">
    <g id="line2d_19">
     <path d="M 332.574757 361.028345 
L 319.182369 362.6544 
" style="fill:none;stroke:#000000;stroke-linecap:square;stroke-width:0.8;"/>
    </g>
    <g id="text_19">
     <!-- 0.25 -->
     <g transform="translate(294.211456 367.818092)scale(0.1 -0.1)">
      <use xlink:href="#DejaVuSans-48"/>
      <use x="63.623047" xlink:href="#DejaVuSans-46"/>
      <use x="95.410156" xlink:href="#DejaVuSans-50"/>
      <use x="159.033203" xlink:href="#DejaVuSans-53"/>
     </g>
    </g>
   </g>
   <g id="xtick_17">
    <g id="line2d_20">
     <path d="M 329.930034 330.992618 
L 316.450471 332.596491 
" style="fill:none;stroke:#000000;stroke-linecap:square;stroke-width:0.8;"/>
    </g>
    <g id="text_20">
     <!-- 0.50 -->
     <g transform="translate(291.396983 337.793406)scale(0.1 -0.1)">
      <use xlink:href="#DejaVuSans-48"/>
      <use x="63.623047" xlink:href="#DejaVuSans-46"/>
      <use x="95.410156" xlink:href="#DejaVuSans-53"/>
      <use x="159.033203" xlink:href="#DejaVuSans-48"/>
     </g>
    </g>
   </g>
   <g id="xtick_18">
    <g id="line2d_21">
     <path d="M 327.251834 300.576688 
L 313.683954 302.157684 
" style="fill:none;stroke:#000000;stroke-linecap:square;stroke-width:0.8;"/>
    </g>
    <g id="text_21">
     <!-- 0.75 -->
     <g transform="translate(288.546902 307.388861)scale(0.1 -0.1)">
      <use xlink:href="#DejaVuSans-48"/>
      <use x="63.623047" xlink:href="#DejaVuSans-46"/>
      <use x="95.410156" xlink:href="#DejaVuSans-55"/>
      <use x="159.033203" xlink:href="#DejaVuSans-53"/>
     </g>
    </g>
   </g>
  </g>
  <g id="axes_1">
   <g id="Poly3DCollection_1">
    <path clip-path="url(#p08ac1d609a)" d="M 891.986072 429.313806 
L 937.043533 422.607143 
L 907.062936 400.059372 
L 862.2569 400.591307 
z
" style="fill:#9ebeff;"/>
    <path clip-path="url(#p08ac1d609a)" d="M 845.971821 467.633456 
L 891.986072 429.313806 
L 862.2569 400.591307 
L 816.652091 427.586135 
z
" style="fill:#8badfd;"/>
    <path clip-path="url(#p08ac1d609a)" d="M 801.037566 427.507734 
L 845.971821 467.633456 
L 816.652091 427.586135 
L 771.108433 454.916562 
z
" style="fill:#80a3fa;"/>
    <path clip-path="url(#p08ac1d609a)" d="M 862.2569 400.591307 
L 907.062936 400.059372 
L 879.193596 308.018163 
L 834.757107 251.532357 
z
" style="fill:#ecd3c5;"/>
    <path clip-path="url(#p08ac1d609a)" d="M 875.734765 493.690903 
L 923.275023 421.021346 
L 891.986072 429.313806 
L 845.971821 467.633456 
z
" style="fill:#7b9ff9;"/>
    <path clip-path="url(#p08ac1d609a)" d="M 923.275023 421.021346 
L 967.702894 436.969502 
L 937.043533 422.607143 
L 891.986072 429.313806 
z
" style="fill:#9abbff;"/>
    <path clip-path="url(#p08ac1d609a)" d="M 754.814996 479.987727 
L 801.037566 427.507734 
L 771.108433 454.916562 
L 725.270268 420.44327 
z
" style="fill:#88abfd;"/>
    <path clip-path="url(#p08ac1d609a)" d="M 831.283684 437.767399 
L 875.734765 493.690903 
L 845.971821 467.633456 
L 801.037566 427.507734 
z
" style="fill:#80a3fa;"/>
    <path clip-path="url(#p08ac1d609a)" d="M 816.652091 427.586135 
L 862.2569 400.591307 
L 834.757107 251.532357 
L 788.405336 248.971115 
z
" style="fill:#f4c6af;"/>
    <path clip-path="url(#p08ac1d609a)" d="M 834.757107 251.532357 
L 879.193596 308.018163 
L 850.405594 232.854791 
L 804.671359 226.393305 
z
" style="fill:#dc5d4a;"/>
    <path clip-path="url(#p08ac1d609a)" d="M 954.03232 442.146481 
L 998.45688 457.630026 
L 967.702894 436.969502 
L 923.275023 421.021346 
z
" style="fill:#9abbff;"/>
    <path clip-path="url(#p08ac1d609a)" d="M 771.108433 454.916562 
L 816.652091 427.586135 
L 788.405336 248.971115 
L 741.548342 250.354803 
z
" style="fill:#f0cdbb;"/>
    <path clip-path="url(#p08ac1d609a)" d="M 708.256051 438.231675 
L 754.814996 479.987727 
L 725.270268 420.44327 
L 678.852152 421.93424 
z
" style="fill:#9abbff;"/>
    <path clip-path="url(#p08ac1d609a)" d="M 908.025384 451.235153 
L 954.03232 442.146481 
L 923.275023 421.021346 
L 875.734765 493.690903 
z
" style="fill:#8fb1fe;"/>
    <path clip-path="url(#p08ac1d609a)" d="M 725.270268 420.44327 
L 771.108433 454.916562 
L 741.548342 250.354803 
L 694.650352 285.357212 
z
" style="fill:#efcfbf;"/>
    <path clip-path="url(#p08ac1d609a)" d="M 784.884217 436.857042 
L 831.283684 437.767399 
L 801.037566 427.507734 
L 754.814996 479.987727 
z
" style="fill:#9abbff;"/>
    <path clip-path="url(#p08ac1d609a)" d="M 861.366754 475.532664 
L 908.025384 451.235153 
L 875.734765 493.690903 
L 831.283684 437.767399 
z
" style="fill:#85a8fc;"/>
    <path clip-path="url(#p08ac1d609a)" d="M 984.701188 472.031462 
L 1031.316877 448.714069 
L 998.45688 457.630026 
L 954.03232 442.146481 
z
" style="fill:#93b5fe;"/>
    <path clip-path="url(#p08ac1d609a)" d="M 678.852152 421.93424 
L 725.270268 420.44327 
L 694.650352 285.357212 
L 648.142388 328.834726 
z
" style="fill:#ebd3c6;"/>
    <path clip-path="url(#p08ac1d609a)" d="M 788.405336 248.971115 
L 834.757107 251.532357 
L 804.671359 226.393305 
L 758.3359 244.37902 
z
" style="fill:#c43032;"/>
    <path clip-path="url(#p08ac1d609a)" d="M 738.063245 461.272167 
L 784.884217 436.857042 
L 754.814996 479.987727 
L 708.256051 438.231675 
z
" style="fill:#96b7ff;"/>
    <path clip-path="url(#p08ac1d609a)" d="M 661.127634 434.661843 
L 708.256051 438.231675 
L 678.852152 421.93424 
L 631.470061 403.353626 
z
" style="fill:#bad0f8;"/>
    <path clip-path="url(#p08ac1d609a)" d="M 566.75206 467.168078 
L 613.725142 440.859945 
L 587.150352 494.472751 
L 539.193 476.79624 
z
" style="fill:#88abfd;"/>
    <path clip-path="url(#p08ac1d609a)" d="M 613.725142 440.859945 
L 661.127634 434.661843 
L 631.470061 403.353626 
L 587.150352 494.472751 
z
" style="fill:#a7c5fe;"/>
    <path clip-path="url(#p08ac1d609a)" d="M 1013.540791 538.354139 
L 1063.31407 464.511865 
L 1031.316877 448.714069 
L 984.701188 472.031462 
z
" style="fill:#7ea1fa;"/>
    <path clip-path="url(#p08ac1d609a)" d="M 814.903461 485.081444 
L 861.366754 475.532664 
L 831.283684 437.767399 
L 784.884217 436.857042 
z
" style="fill:#98b9ff;"/>
    <path clip-path="url(#p08ac1d609a)" d="M 741.548342 250.354803 
L 788.405336 248.971115 
L 758.3359 244.37902 
L 711.712277 242.203481 
z
" style="fill:#c12b30;"/>
    <path clip-path="url(#p08ac1d609a)" d="M 520.525018 507.595654 
L 566.75206 467.168078 
L 539.193 476.79624 
L 492.102306 489.785569 
z
" style="fill:#7a9df8;"/>
    <path clip-path="url(#p08ac1d609a)" d="M 539.193 476.79624 
L 587.150352 494.472751 
L 551.772216 308.165477 
L 505.977736 364.283679 
z
" style="fill:#cbd8ee;"/>
    <path clip-path="url(#p08ac1d609a)" d="M 631.470061 403.353626 
L 678.852152 421.93424 
L 648.142388 328.834726 
L 599.472919 292.296686 
z
" style="fill:#f1ccb8;"/>
    <path clip-path="url(#p08ac1d609a)" d="M 691.111997 475.890496 
L 738.063245 461.272167 
L 708.256051 438.231675 
L 661.127634 434.661843 
z
" style="fill:#a2c1ff;"/>
    <path clip-path="url(#p08ac1d609a)" d="M 941.225208 416.072203 
L 984.701188 472.031462 
L 954.03232 442.146481 
L 908.025384 451.235153 
z
" style="fill:#abc8fd;"/>
    <path clip-path="url(#p08ac1d609a)" d="M 694.650352 285.357212 
L 741.548342 250.354803 
L 711.712277 242.203481 
L 664.721435 247.788656 
z
" style="fill:#c83836;"/>
    <path clip-path="url(#p08ac1d609a)" d="M 648.142388 328.834726 
L 694.650352 285.357212 
L 664.721435 247.788656 
L 617.531793 259.328434 
z
" style="fill:#e0654f;"/>
    <path clip-path="url(#p08ac1d609a)" d="M 768.157888 490.086538 
L 814.903461 485.081444 
L 784.884217 436.857042 
L 738.063245 461.272167 
z
" style="fill:#93b5fe;"/>
    <path clip-path="url(#p08ac1d609a)" d="M 587.150352 494.472751 
L 631.470061 403.353626 
L 599.472919 292.296686 
L 551.772216 308.165477 
z
" style="fill:#ecd3c5;"/>
    <path clip-path="url(#p08ac1d609a)" d="M 845.893693 483.803825 
L 891.661785 510.248756 
L 861.366754 475.532664 
L 814.903461 485.081444 
z
" style="fill:#7da0f9;"/>
    <path clip-path="url(#p08ac1d609a)" d="M 492.102306 489.785569 
L 539.193 476.79624 
L 505.977736 364.283679 
L 456.947748 357.865703 
z
" style="fill:#c5d6f2;"/>
    <path clip-path="url(#p08ac1d609a)" d="M 891.661785 510.248756 
L 941.225208 416.072203 
L 908.025384 451.235153 
L 861.366754 475.532664 
z
" style="fill:#9abbff;"/>
    <path clip-path="url(#p08ac1d609a)" d="M 470.776446 484.516561 
L 520.525018 507.595654 
L 492.102306 489.785569 
L 441.984195 460.775159 
z
" style="fill:#84a7fc;"/>
    <path clip-path="url(#p08ac1d609a)" d="M 970.83613 481.900102 
L 1013.540791 538.354139 
L 984.701188 472.031462 
L 941.225208 416.072203 
z
" style="fill:#8db0fe;"/>
    <path clip-path="url(#p08ac1d609a)" d="M 599.472919 292.296686 
L 648.142388 328.834726 
L 617.531793 259.328434 
L 570.432953 280.007351 
z
" style="fill:#e36c55;"/>
    <path clip-path="url(#p08ac1d609a)" d="M 643.450392 468.765222 
L 691.111997 475.890496 
L 661.127634 434.661843 
L 613.725142 440.859945 
z
" style="fill:#a7c5fe;"/>
    <path clip-path="url(#p08ac1d609a)" d="M 720.912851 479.825186 
L 768.157888 490.086538 
L 738.063245 461.272167 
L 691.111997 475.890496 
z
" style="fill:#90b2fe;"/>
    <path clip-path="url(#p08ac1d609a)" d="M 1002.777189 499.685654 
L 1045.525632 551.001837 
L 1013.540791 538.354139 
L 970.83613 481.900102 
z
" style="fill:#6384eb;"/>
    <path clip-path="url(#p08ac1d609a)" d="M 1045.525632 551.001837 
L 1100.417295 416.994806 
L 1063.31407 464.511865 
L 1013.540791 538.354139 
z
" style="fill:#7ea1fa;"/>
    <path clip-path="url(#p08ac1d609a)" d="M 596.788382 510.487887 
L 643.450392 468.765222 
L 613.725142 440.859945 
L 566.75206 467.168078 
z
" style="fill:#98b9ff;"/>
    <path clip-path="url(#p08ac1d609a)" d="M 547.093274 475.527773 
L 596.788382 510.487887 
L 566.75206 467.168078 
L 520.525018 507.595654 
z
" style="fill:#86a9fc;"/>
    <path clip-path="url(#p08ac1d609a)" d="M 441.984195 460.775159 
L 492.102306 489.785569 
L 456.947748 357.865703 
L 408.310928 365.717902 
z
" style="fill:#d2dbe8;"/>
    <path clip-path="url(#p08ac1d609a)" d="M 798.966891 470.614456 
L 845.893693 483.803825 
L 814.903461 485.081444 
L 768.157888 490.086538 
z
" style="fill:#90b2fe;"/>
    <path clip-path="url(#p08ac1d609a)" d="M 551.772216 308.165477 
L 599.472919 292.296686 
L 570.432953 280.007351 
L 522.054186 275.342574 
z
" style="fill:#dd5f4b;"/>
    <path clip-path="url(#p08ac1d609a)" d="M 672.83966 462.891429 
L 720.912851 479.825186 
L 691.111997 475.890496 
L 643.450392 468.765222 
z
" style="fill:#a1c0ff;"/>
    <path clip-path="url(#p08ac1d609a)" d="M 505.977736 364.283679 
L 551.772216 308.165477 
L 522.054186 275.342574 
L 473.15398 271.771761 
z
" style="fill:#e7745b;"/>
    <path clip-path="url(#p08ac1d609a)" d="M 456.947748 357.865703 
L 505.977736 364.283679 
L 473.15398 271.771761 
L 426.278521 306.56901 
z
" style="fill:#f18f71;"/>
    <path clip-path="url(#p08ac1d609a)" d="M 499.391292 499.878848 
L 547.093274 475.527773 
L 520.525018 507.595654 
L 470.776446 484.516561 
z
" style="fill:#8db0fe;"/>
    <path clip-path="url(#p08ac1d609a)" d="M 927.22134 406.478133 
L 970.83613 481.900102 
L 941.225208 416.072203 
L 891.661785 510.248756 
z
" style="fill:#b9d0f9;"/>
    <path clip-path="url(#p08ac1d609a)" d="M 877.067551 500.178695 
L 927.22134 406.478133 
L 891.661785 510.248756 
L 845.893693 483.803825 
z
" style="fill:#a3c2fe;"/>
    <path clip-path="url(#p08ac1d609a)" d="M 751.268361 463.001622 
L 798.966891 470.614456 
L 768.157888 490.086538 
L 720.912851 479.825186 
z
" style="fill:#a3c2fe;"/>
    <path clip-path="url(#p08ac1d609a)" d="M 624.335939 461.67848 
L 672.83966 462.891429 
L 643.450392 468.765222 
L 596.788382 510.487887 
z
" style="fill:#a3c2fe;"/>
    <path clip-path="url(#p08ac1d609a)" d="M 408.310928 365.717902 
L 456.947748 357.865703 
L 426.278521 306.56901 
L 375.44582 287.931087 
z
" style="fill:#f08b6e;"/>
    <path clip-path="url(#p08ac1d609a)" d="M 1031.903098 570.587341 
L 1088.078287 421.883221 
L 1045.525632 551.001837 
L 1002.777189 499.685654 
z
" style="fill:#80a3fa;"/>
    <path clip-path="url(#p08ac1d609a)" d="M 829.891241 498.313482 
L 877.067551 500.178695 
L 845.893693 483.803825 
L 798.966891 470.614456 
z
" style="fill:#9abbff;"/>
    <path clip-path="url(#p08ac1d609a)" d="M 955.973515 506.239999 
L 1002.777189 499.685654 
L 970.83613 481.900102 
L 927.22134 406.478133 
z
" style="fill:#aec9fc;"/>
    <path clip-path="url(#p08ac1d609a)" d="M 574.813964 448.093344 
L 624.335939 461.67848 
L 596.788382 510.487887 
L 547.093274 475.527773 
z
" style="fill:#b1cbfc;"/>
    <path clip-path="url(#p08ac1d609a)" d="M 703.182503 481.866593 
L 751.268361 463.001622 
L 720.912851 479.825186 
L 672.83966 462.891429 
z
" style="fill:#b2ccfb;"/>
    <path clip-path="url(#p08ac1d609a)" d="M 1088.078287 421.883221 
L 1131.766443 457.745921 
L 1100.417295 416.994806 
L 1045.525632 551.001837 
z
" style="fill:#bed2f6;"/>
    <path clip-path="url(#p08ac1d609a)" d="M 781.985698 525.118752 
L 829.891241 498.313482 
L 798.966891 470.614456 
L 751.268361 463.001622 
z
" style="fill:#a2c1ff;"/>
    <path clip-path="url(#p08ac1d609a)" d="M 528.71295 521.717084 
L 574.813964 448.093344 
L 547.093274 475.527773 
L 499.391292 499.878848 
z
" style="fill:#a7c5fe;"/>
    <path clip-path="url(#p08ac1d609a)" d="M 734.035038 531.811863 
L 781.985698 525.118752 
L 751.268361 463.001622 
L 703.182503 481.866593 
z
" style="fill:#9bbcff;"/>
    <path clip-path="url(#p08ac1d609a)" d="M 994.612992 397.623141 
L 1031.903098 570.587341 
L 1002.777189 499.685654 
L 955.973515 506.239999 
z
" style="fill:#a3c2fe;"/>
    <path clip-path="url(#p08ac1d609a)" d="M 654.299402 469.15693 
L 703.182503 481.866593 
L 672.83966 462.891429 
L 624.335939 461.67848 
z
" style="fill:#c0d4f5;"/>
    <path clip-path="url(#p08ac1d609a)" d="M 911.394623 435.729814 
L 955.973515 506.239999 
L 927.22134 406.478133 
L 877.067551 500.178695 
z
" style="fill:#c6d6f1;"/>
    <path clip-path="url(#p08ac1d609a)" d="M 765.002874 528.407546 
L 813.644713 500.664611 
L 781.985698 525.118752 
L 734.035038 531.811863 
z
" style="fill:#8fb1fe;"/>
    <path clip-path="url(#p08ac1d609a)" d="M 863.056155 442.187487 
L 911.394623 435.729814 
L 877.067551 500.178695 
L 829.891241 498.313482 
z
" style="fill:#c6d6f1;"/>
    <path clip-path="url(#p08ac1d609a)" d="M 813.644713 500.664611 
L 863.056155 442.187487 
L 829.891241 498.313482 
L 781.985698 525.118752 
z
" style="fill:#b1cbfc;"/>
    <path clip-path="url(#p08ac1d609a)" d="M 557.073016 513.236692 
L 605.841989 495.017797 
L 574.813964 448.093344 
L 528.71295 521.717084 
z
" style="fill:#aec9fc;"/>
    <path clip-path="url(#p08ac1d609a)" d="M 605.841989 495.017797 
L 654.299402 469.15693 
L 624.335939 461.67848 
L 574.813964 448.093344 
z
" style="fill:#c9d7f0;"/>
    <path clip-path="url(#p08ac1d609a)" d="M 684.198111 436.014559 
L 734.035038 531.811863 
L 703.182503 481.866593 
L 654.299402 469.15693 
z
" style="fill:#c1d4f4;"/>
    <path clip-path="url(#p08ac1d609a)" d="M 796.669016 526.161662 
L 843.871492 598.115341 
L 813.644713 500.664611 
L 765.002874 528.407546 
z
" style="fill:#89acfd;"/>
    <path clip-path="url(#p08ac1d609a)" d="M 941.825957 505.862837 
L 994.612992 397.623141 
L 955.973515 506.239999 
L 911.394623 435.729814 
z
" style="fill:#d6dce4;"/>
    <path clip-path="url(#p08ac1d609a)" d="M 843.871492 598.115341 
L 895.058551 472.258338 
L 863.056155 442.187487 
L 813.644713 500.664611 
z
" style="fill:#b2ccfb;"/>
    <path clip-path="url(#p08ac1d609a)" d="M 715.886058 490.520048 
L 765.002874 528.407546 
L 734.035038 531.811863 
L 684.198111 436.014559 
z
" style="fill:#bcd2f7;"/>
    <path clip-path="url(#p08ac1d609a)" d="M 587.066779 530.123499 
L 634.221866 436.35527 
L 605.841989 495.017797 
L 557.073016 513.236692 
z
" style="fill:#c0d4f5;"/>
    <path clip-path="url(#p08ac1d609a)" d="M 895.058551 472.258338 
L 941.825957 505.862837 
L 911.394623 435.729814 
L 863.056155 442.187487 
z
" style="fill:#dbdcde;"/>
    <path clip-path="url(#p08ac1d609a)" d="M 634.221866 436.35527 
L 684.198111 436.014559 
L 654.299402 469.15693 
L 605.841989 495.017797 
z
" style="fill:#e1dad6;"/>
    <path clip-path="url(#p08ac1d609a)" d="M 747.420865 474.768795 
L 796.669016 526.161662 
L 765.002874 528.407546 
L 715.886058 490.520048 
z
" style="fill:#c3d5f4;"/>
    <path clip-path="url(#p08ac1d609a)" d="M 666.612078 516.611287 
L 715.886058 490.520048 
L 684.198111 436.014559 
L 634.221866 436.35527 
z
" style="fill:#e3d9d3;"/>
    <path clip-path="url(#p08ac1d609a)" d="M 615.5542 482.038715 
L 666.612078 516.611287 
L 634.221866 436.35527 
L 587.066779 530.123499 
z
" style="fill:#d4dbe6;"/>
    <path clip-path="url(#p08ac1d609a)" d="M 697.585165 512.891127 
L 747.420865 474.768795 
L 715.886058 490.520048 
L 666.612078 516.611287 
z
" style="fill:#d3dbe7;"/>
    <path clip-path="url(#p08ac1d609a)" d="M 647.407062 524.585582 
L 697.585165 512.891127 
L 666.612078 516.611287 
L 615.5542 482.038715 
z
" style="fill:#cedaeb;"/>
   </g>
   <g id="text_22">
    <!-- Usable Ace -->
    <defs>
     <path d="M 8.6875 72.90625 
L 18.609375 72.90625 
L 18.609375 28.609375 
Q 18.609375 16.890625 22.84375 11.734375 
Q 27.09375 6.59375 36.625 6.59375 
Q 46.09375 6.59375 50.34375 11.734375 
Q 54.59375 16.890625 54.59375 28.609375 
L 54.59375 72.90625 
L 64.5 72.90625 
L 64.5 27.390625 
Q 64.5 13.140625 57.4375 5.859375 
Q 50.390625 -1.421875 36.625 -1.421875 
Q 22.796875 -1.421875 15.734375 5.859375 
Q 8.6875 13.140625 8.6875 27.390625 
z
" id="DejaVuSans-85"/>
     <path d="M 48.6875 27.296875 
Q 48.6875 37.203125 44.609375 42.84375 
Q 40.53125 48.484375 33.40625 48.484375 
Q 26.265625 48.484375 22.1875 42.84375 
Q 18.109375 37.203125 18.109375 27.296875 
Q 18.109375 17.390625 22.1875 11.75 
Q 26.265625 6.109375 33.40625 6.109375 
Q 40.53125 6.109375 44.609375 11.75 
Q 48.6875 17.390625 48.6875 27.296875 
z
M 18.109375 46.390625 
Q 20.953125 51.265625 25.265625 53.625 
Q 29.59375 56 35.59375 56 
Q 45.5625 56 51.78125 48.09375 
Q 58.015625 40.1875 58.015625 27.296875 
Q 58.015625 14.40625 51.78125 6.484375 
Q 45.5625 -1.421875 35.59375 -1.421875 
Q 29.59375 -1.421875 25.265625 0.953125 
Q 20.953125 3.328125 18.109375 8.203125 
L 18.109375 0 
L 9.078125 0 
L 9.078125 75.984375 
L 18.109375 75.984375 
z
" id="DejaVuSans-98"/>
     <path d="M 34.1875 63.1875 
L 20.796875 26.90625 
L 47.609375 26.90625 
z
M 28.609375 72.90625 
L 39.796875 72.90625 
L 67.578125 0 
L 57.328125 0 
L 50.6875 18.703125 
L 17.828125 18.703125 
L 11.1875 0 
L 0.78125 0 
z
" id="DejaVuSans-65"/>
     <path d="M 48.78125 52.59375 
L 48.78125 44.1875 
Q 44.96875 46.296875 41.140625 47.34375 
Q 37.3125 48.390625 33.40625 48.390625 
Q 24.65625 48.390625 19.8125 42.84375 
Q 14.984375 37.3125 14.984375 27.296875 
Q 14.984375 17.28125 19.8125 11.734375 
Q 24.65625 6.203125 33.40625 6.203125 
Q 37.3125 6.203125 41.140625 7.25 
Q 44.96875 8.296875 48.78125 10.40625 
L 48.78125 2.09375 
Q 45.015625 0.34375 40.984375 -0.53125 
Q 36.96875 -1.421875 32.421875 -1.421875 
Q 20.0625 -1.421875 12.78125 6.34375 
Q 5.515625 14.109375 5.515625 27.296875 
Q 5.515625 40.671875 12.859375 48.328125 
Q 20.21875 56 33.015625 56 
Q 37.15625 56 41.109375 55.140625 
Q 45.0625 54.296875 48.78125 52.59375 
z
" id="DejaVuSans-99"/>
    </defs>
    <g transform="translate(704.637187 207.12)scale(0.12 -0.12)">
     <use xlink:href="#DejaVuSans-85"/>
     <use x="73.193359" xlink:href="#DejaVuSans-115"/>
     <use x="125.292969" xlink:href="#DejaVuSans-97"/>
     <use x="186.572266" xlink:href="#DejaVuSans-98"/>
     <use x="250.048828" xlink:href="#DejaVuSans-108"/>
     <use x="277.832031" xlink:href="#DejaVuSans-101"/>
     <use x="339.355469" xlink:href="#DejaVuSans-32"/>
     <use x="371.142578" xlink:href="#DejaVuSans-65"/>
     <use x="439.535156" xlink:href="#DejaVuSans-99"/>
     <use x="494.515625" xlink:href="#DejaVuSans-101"/>
    </g>
   </g>
  </g>
  <g id="patch_6">
   <path d="M 180 1281.6 
L 1296 1281.6 
L 1296 777.6 
L 180 777.6 
z
" style="fill:#ffffff;"/>
  </g>
  <g id="pane3d_4">
   <g id="patch_7">
    <path d="M 1178.219117 1170.233762 
L 858.814078 1046.664382 
L 864.131833 810.543578 
L 1201.345796 921.568125 
" style="fill:#f2f2f2;opacity:0.5;stroke:#f2f2f2;stroke-linejoin:miter;"/>
   </g>
  </g>
  <g id="pane3d_5">
   <g id="patch_8">
    <path d="M 341.407944 1115.747639 
L 858.814078 1046.664382 
L 864.131833 810.543578 
L 319.760292 872.506708 
" style="fill:#e6e6e6;opacity:0.5;stroke:#e6e6e6;stroke-linejoin:miter;"/>
   </g>
  </g>
  <g id="pane3d_6">
   <g id="patch_9">
    <path d="M 633.837951 1250.692472 
L 1178.219117 1170.233762 
L 858.814078 1046.664382 
L 341.407944 1115.747639 
" style="fill:#ececec;opacity:0.5;stroke:#ececec;stroke-linejoin:miter;"/>
   </g>
  </g>
  <g id="axis3d_4">
   <g id="line2d_22">
    <path d="M 1178.219117 1170.233762 
L 633.837951 1250.692472 
" style="fill:none;stroke:#000000;stroke-linecap:square;stroke-width:0.8;"/>
   </g>
   <g id="text_23">
    <!-- Player's Current Sum -->
    <g transform="translate(879.459282 1242.469687)rotate(-8.407364)scale(0.1 -0.1)">
     <use xlink:href="#DejaVuSans-80"/>
     <use x="60.302734" xlink:href="#DejaVuSans-108"/>
     <use x="88.085938" xlink:href="#DejaVuSans-97"/>
     <use x="149.365234" xlink:href="#DejaVuSans-121"/>
     <use x="208.544922" xlink:href="#DejaVuSans-101"/>
     <use x="270.068359" xlink:href="#DejaVuSans-114"/>
     <use x="311.181641" xlink:href="#DejaVuSans-39"/>
     <use x="338.671875" xlink:href="#DejaVuSans-115"/>
     <use x="390.771484" xlink:href="#DejaVuSans-32"/>
     <use x="422.558594" xlink:href="#DejaVuSans-67"/>
     <use x="492.382812" xlink:href="#DejaVuSans-117"/>
     <use x="555.761719" xlink:href="#DejaVuSans-114"/>
     <use x="596.859375" xlink:href="#DejaVuSans-114"/>
     <use x="637.941406" xlink:href="#DejaVuSans-101"/>
     <use x="699.464844" xlink:href="#DejaVuSans-110"/>
     <use x="762.84375" xlink:href="#DejaVuSans-116"/>
     <use x="802.052734" xlink:href="#DejaVuSans-32"/>
     <use x="833.839844" xlink:href="#DejaVuSans-83"/>
     <use x="897.316406" xlink:href="#DejaVuSans-117"/>
     <use x="960.695312" xlink:href="#DejaVuSans-109"/>
    </g>
   </g>
   <g id="Line3DCollection_4">
    <path d="M 719.229522 1238.071727 
L 422.338984 1104.941854 
L 405.065762 862.796807 
" style="fill:none;stroke:#b0b0b0;stroke-width:0.8;"/>
    <path d="M 816.514871 1223.6931 
L 514.646224 1092.617135 
L 502.291344 851.730098 
" style="fill:none;stroke:#b0b0b0;stroke-width:0.8;"/>
    <path d="M 912.248164 1209.543865 
L 605.588846 1080.474619 
L 598.005697 840.835405 
" style="fill:none;stroke:#b0b0b0;stroke-width:0.8;"/>
    <path d="M 1006.466248 1195.618575 
L 695.196886 1068.510294 
L 692.243785 830.108747 
" style="fill:none;stroke:#b0b0b0;stroke-width:0.8;"/>
    <path d="M 1099.204814 1181.911956 
L 783.499508 1056.720266 
L 785.039501 819.546268 
" style="fill:none;stroke:#b0b0b0;stroke-width:0.8;"/>
   </g>
   <g id="xtick_19">
    <g id="line2d_23">
     <path d="M 716.664996 1236.921758 
L 724.36849 1240.376112 
" style="fill:none;stroke:#000000;stroke-linecap:square;stroke-width:0.8;"/>
    </g>
    <g id="text_24">
     <!-- 12 -->
     <g transform="translate(721.666949 1256.181853)scale(0.1 -0.1)">
      <use xlink:href="#DejaVuSans-49"/>
      <use x="63.623047" xlink:href="#DejaVuSans-50"/>
     </g>
    </g>
   </g>
   <g id="xtick_20">
    <g id="line2d_24">
     <path d="M 813.908891 1222.561544 
L 821.736824 1225.960552 
" style="fill:none;stroke:#000000;stroke-linecap:square;stroke-width:0.8;"/>
    </g>
    <g id="text_25">
     <!-- 14 -->
     <g transform="translate(818.952072 1241.708209)scale(0.1 -0.1)">
      <use xlink:href="#DejaVuSans-49"/>
      <use x="63.623047" xlink:href="#DejaVuSans-52"/>
     </g>
    </g>
   </g>
   <g id="xtick_21">
    <g id="line2d_25">
     <path d="M 909.602374 1208.430284 
L 917.549809 1211.775264 
" style="fill:none;stroke:#000000;stroke-linecap:square;stroke-width:0.8;"/>
    </g>
    <g id="text_26">
     <!-- 16 -->
     <g transform="translate(914.684025 1227.465638)scale(0.1 -0.1)">
      <use xlink:href="#DejaVuSans-49"/>
      <use x="63.623047" xlink:href="#DejaVuSans-54"/>
     </g>
    </g>
   </g>
   <g id="xtick_22">
    <g id="line2d_26">
     <path d="M 1003.782229 1194.522544 
L 1011.844415 1197.814775 
" style="fill:none;stroke:#000000;stroke-linecap:square;stroke-width:0.8;"/>
    </g>
    <g id="text_27">
     <!-- 18 -->
     <g transform="translate(1008.899709 1213.44865)scale(0.1 -0.1)">
      <use xlink:href="#DejaVuSans-49"/>
      <use x="63.623047" xlink:href="#DejaVuSans-56"/>
     </g>
    </g>
   </g>
   <g id="xtick_23">
    <g id="line2d_27">
     <path d="M 1096.484087 1180.833063 
L 1104.656454 1184.073782 
" style="fill:none;stroke:#000000;stroke-linecap:square;stroke-width:0.8;"/>
    </g>
    <g id="text_28">
     <!-- 20 -->
     <g transform="translate(1101.634865 1199.651929)scale(0.1 -0.1)">
      <use xlink:href="#DejaVuSans-50"/>
      <use x="63.623047" xlink:href="#DejaVuSans-48"/>
     </g>
    </g>
   </g>
  </g>
  <g id="axis3d_5">
   <g id="line2d_28">
    <path d="M 341.407944 1115.747639 
L 633.837951 1250.692472 
" style="fill:none;stroke:#000000;stroke-linecap:square;stroke-width:0.8;"/>
   </g>
   <g id="text_29">
    <!-- Dealer's Showing Card -->
    <g transform="translate(397.302207 1177.981633)rotate(-335.228552)scale(0.1 -0.1)">
     <use xlink:href="#DejaVuSans-68"/>
     <use x="77.001953" xlink:href="#DejaVuSans-101"/>
     <use x="138.525391" xlink:href="#DejaVuSans-97"/>
     <use x="199.804688" xlink:href="#DejaVuSans-108"/>
     <use x="227.587891" xlink:href="#DejaVuSans-101"/>
     <use x="289.111328" xlink:href="#DejaVuSans-114"/>
     <use x="330.224609" xlink:href="#DejaVuSans-39"/>
     <use x="357.714844" xlink:href="#DejaVuSans-115"/>
     <use x="409.814453" xlink:href="#DejaVuSans-32"/>
     <use x="441.601562" xlink:href="#DejaVuSans-83"/>
     <use x="505.078125" xlink:href="#DejaVuSans-104"/>
     <use x="568.457031" xlink:href="#DejaVuSans-111"/>
     <use x="629.638672" xlink:href="#DejaVuSans-119"/>
     <use x="711.425781" xlink:href="#DejaVuSans-105"/>
     <use x="739.208984" xlink:href="#DejaVuSans-110"/>
     <use x="802.587891" xlink:href="#DejaVuSans-103"/>
     <use x="866.064453" xlink:href="#DejaVuSans-32"/>
     <use x="897.851562" xlink:href="#DejaVuSans-67"/>
     <use x="967.675781" xlink:href="#DejaVuSans-97"/>
     <use x="1028.955078" xlink:href="#DejaVuSans-114"/>
     <use x="1070.052734" xlink:href="#DejaVuSans-100"/>
    </g>
   </g>
   <g id="Line3DCollection_5">
    <path d="M 1143.525737 902.53141 
L 1123.629375 1149.114432 
L 583.719407 1227.564755 
" style="fill:none;stroke:#b0b0b0;stroke-width:0.8;"/>
    <path d="M 1075.668393 880.190014 
L 1059.470047 1124.292881 
L 524.888556 1200.416654 
" style="fill:none;stroke:#b0b0b0;stroke-width:0.8;"/>
    <path d="M 1009.866717 858.525427 
L 997.158168 1100.18606 
L 467.827579 1174.085279 
" style="fill:none;stroke:#b0b0b0;stroke-width:0.8;"/>
    <path d="M 946.028693 837.507353 
L 936.615075 1076.763535 
L 412.457792 1148.534322 
" style="fill:none;stroke:#b0b0b0;stroke-width:0.8;"/>
    <path d="M 884.067712 817.10728 
L 877.766509 1053.996577 
L 358.705107 1123.729593 
" style="fill:none;stroke:#b0b0b0;stroke-width:0.8;"/>
   </g>
   <g id="xtick_24">
    <g id="line2d_29">
     <path d="M 588.236434 1226.908419 
L 574.675337 1228.878882 
" style="fill:none;stroke:#000000;stroke-linecap:square;stroke-width:0.8;"/>
    </g>
    <g id="text_30">
     <!-- 2 -->
     <g transform="translate(565.390192 1243.958366)scale(0.1 -0.1)">
      <use xlink:href="#DejaVuSans-50"/>
     </g>
    </g>
   </g>
   <g id="xtick_25">
    <g id="line2d_30">
     <path d="M 529.358014 1199.780208 
L 515.93988 1201.690935 
" style="fill:none;stroke:#000000;stroke-linecap:square;stroke-width:0.8;"/>
    </g>
    <g id="text_31">
     <!-- 4 -->
     <g transform="translate(506.801909 1216.681177)scale(0.1 -0.1)">
      <use xlink:href="#DejaVuSans-52"/>
     </g>
    </g>
   </g>
   <g id="xtick_26">
    <g id="line2d_31">
     <path d="M 472.250265 1173.467833 
L 458.972694 1175.321499 
" style="fill:none;stroke:#000000;stroke-linecap:square;stroke-width:0.8;"/>
    </g>
    <g id="text_32">
     <!-- 6 -->
     <g transform="translate(449.975871 1190.224443)scale(0.1 -0.1)">
      <use xlink:href="#DejaVuSans-54"/>
     </g>
    </g>
   </g>
   <g id="xtick_27">
    <g id="line2d_32">
     <path d="M 416.834496 1147.935037 
L 403.695111 1149.734161 
" style="fill:none;stroke:#000000;stroke-linecap:square;stroke-width:0.8;"/>
    </g>
    <g id="text_33">
     <!-- 8 -->
     <g transform="translate(394.833746 1164.551695)scale(0.1 -0.1)">
      <use xlink:href="#DejaVuSans-56"/>
     </g>
    </g>
   </g>
   <g id="xtick_28">
    <g id="line2d_33">
     <path d="M 363.036608 1123.14768 
L 350.03306 1124.894634 
" style="fill:none;stroke:#000000;stroke-linecap:square;stroke-width:0.8;"/>
    </g>
    <g id="text_34">
     <!-- 10 -->
     <g transform="translate(338.120529 1139.628595)scale(0.1 -0.1)">
      <use xlink:href="#DejaVuSans-49"/>
      <use x="63.623047" xlink:href="#DejaVuSans-48"/>
     </g>
    </g>
   </g>
  </g>
  <g id="axis3d_6">
   <g id="line2d_34">
    <path d="M 341.407944 1115.747639 
L 319.760292 872.506708 
" style="fill:none;stroke:#000000;stroke-linecap:square;stroke-width:0.8;"/>
   </g>
   <g id="text_35">
    <!-- State Value -->
    <g transform="translate(276.414167 965.691157)rotate(-275.085739)scale(0.1 -0.1)">
     <use xlink:href="#DejaVuSans-83"/>
     <use x="63.476562" xlink:href="#DejaVuSans-116"/>
     <use x="102.685547" xlink:href="#DejaVuSans-97"/>
     <use x="163.964844" xlink:href="#DejaVuSans-116"/>
     <use x="203.173828" xlink:href="#DejaVuSans-101"/>
     <use x="264.697266" xlink:href="#DejaVuSans-32"/>
     <use x="296.484375" xlink:href="#DejaVuSans-86"/>
     <use x="364.783203" xlink:href="#DejaVuSans-97"/>
     <use x="426.0625" xlink:href="#DejaVuSans-108"/>
     <use x="453.845703" xlink:href="#DejaVuSans-117"/>
     <use x="517.224609" xlink:href="#DejaVuSans-101"/>
    </g>
   </g>
   <g id="Line3DCollection_6">
    <path d="M 340.278935 1103.061678 
L 859.091993 1034.324312 
L 1179.423297 1157.286025 
" style="fill:none;stroke:#b0b0b0;stroke-width:0.8;"/>
    <path d="M 337.506097 1071.905058 
L 859.774281 1004.029106 
L 1182.38167 1125.476625 
" style="fill:none;stroke:#b0b0b0;stroke-width:0.8;"/>
    <path d="M 334.695756 1040.327042 
L 860.465409 973.341412 
L 1185.381386 1093.222692 
" style="fill:none;stroke:#b0b0b0;stroke-width:0.8;"/>
    <path d="M 331.847146 1008.319023 
L 861.165549 942.253554 
L 1188.423318 1060.514841 
" style="fill:none;stroke:#b0b0b0;stroke-width:0.8;"/>
    <path d="M 328.959481 975.872158 
L 861.874879 910.757653 
L 1191.508364 1027.343424 
" style="fill:none;stroke:#b0b0b0;stroke-width:0.8;"/>
    <path d="M 326.031951 942.977359 
L 862.59358 878.845623 
L 1194.637445 993.698513 
" style="fill:none;stroke:#b0b0b0;stroke-width:0.8;"/>
    <path d="M 323.063724 909.625286 
L 863.32184 846.509162 
L 1197.811513 959.569899 
" style="fill:none;stroke:#b0b0b0;stroke-width:0.8;"/>
   </g>
   <g id="xtick_29">
    <g id="line2d_35">
     <path d="M 344.607999 1102.488122 
L 331.611786 1104.209986 
" style="fill:none;stroke:#000000;stroke-linecap:square;stroke-width:0.8;"/>
    </g>
    <g id="text_36">
     <!-- −0.75 -->
     <g transform="translate(302.827445 1109.230181)scale(0.1 -0.1)">
      <use xlink:href="#DejaVuSans-8722"/>
      <use x="83.789062" xlink:href="#DejaVuSans-48"/>
      <use x="147.412109" xlink:href="#DejaVuSans-46"/>
      <use x="179.199219" xlink:href="#DejaVuSans-55"/>
      <use x="242.822266" xlink:href="#DejaVuSans-53"/>
     </g>
    </g>
   </g>
   <g id="xtick_30">
    <g id="line2d_36">
     <path d="M 341.865198 1071.338533 
L 328.77875 1073.039297 
" style="fill:none;stroke:#000000;stroke-linecap:square;stroke-width:0.8;"/>
    </g>
    <g id="text_37">
     <!-- −0.50 -->
     <g transform="translate(299.908509 1078.091094)scale(0.1 -0.1)">
      <use xlink:href="#DejaVuSans-8722"/>
      <use x="83.789062" xlink:href="#DejaVuSans-48"/>
      <use x="147.412109" xlink:href="#DejaVuSans-46"/>
      <use x="179.199219" xlink:href="#DejaVuSans-53"/>
      <use x="242.822266" xlink:href="#DejaVuSans-48"/>
     </g>
    </g>
   </g>
   <g id="xtick_31">
    <g id="line2d_37">
     <path d="M 339.085314 1039.767791 
L 325.90737 1041.446725 
" style="fill:none;stroke:#000000;stroke-linecap:square;stroke-width:0.8;"/>
    </g>
    <g id="text_38">
     <!-- −0.25 -->
     <g transform="translate(296.950129 1046.531218)scale(0.1 -0.1)">
      <use xlink:href="#DejaVuSans-8722"/>
      <use x="83.789062" xlink:href="#DejaVuSans-48"/>
      <use x="147.412109" xlink:href="#DejaVuSans-46"/>
      <use x="179.199219" xlink:href="#DejaVuSans-50"/>
      <use x="242.822266" xlink:href="#DejaVuSans-53"/>
     </g>
    </g>
   </g>
   <g id="xtick_32">
    <g id="line2d_38">
     <path d="M 336.267589 1007.767297 
L 322.996862 1009.423647 
" style="fill:none;stroke:#000000;stroke-linecap:square;stroke-width:0.8;"/>
    </g>
    <g id="text_39">
     <!-- 0.00 -->
     <g transform="translate(298.141343 1014.541966)scale(0.1 -0.1)">
      <use xlink:href="#DejaVuSans-48"/>
      <use x="63.623047" xlink:href="#DejaVuSans-46"/>
      <use x="95.410156" xlink:href="#DejaVuSans-48"/>
      <use x="159.033203" xlink:href="#DejaVuSans-48"/>
     </g>
    </g>
   </g>
   <g id="xtick_33">
    <g id="line2d_39">
     <path d="M 333.411245 975.328217 
L 320.046422 976.961204 
" style="fill:none;stroke:#000000;stroke-linecap:square;stroke-width:0.8;"/>
    </g>
    <g id="text_40">
     <!-- 0.25 -->
     <g transform="translate(295.101638 982.114514)scale(0.1 -0.1)">
      <use xlink:href="#DejaVuSans-48"/>
      <use x="63.623047" xlink:href="#DejaVuSans-46"/>
      <use x="95.410156" xlink:href="#DejaVuSans-50"/>
      <use x="159.033203" xlink:href="#DejaVuSans-53"/>
     </g>
    </g>
   </g>
   <g id="xtick_34">
    <g id="line2d_40">
     <path d="M 330.515483 942.441471 
L 317.05522 944.050289 
" style="fill:none;stroke:#000000;stroke-linecap:square;stroke-width:0.8;"/>
    </g>
    <g id="text_41">
     <!-- 0.50 -->
     <g transform="translate(292.020006 949.239797)scale(0.1 -0.1)">
      <use xlink:href="#DejaVuSans-48"/>
      <use x="63.623047" xlink:href="#DejaVuSans-46"/>
      <use x="95.410156" xlink:href="#DejaVuSans-53"/>
      <use x="159.033203" xlink:href="#DejaVuSans-48"/>
     </g>
    </g>
   </g>
   <g id="xtick_35">
    <g id="line2d_41">
     <path d="M 327.579481 909.097729 
L 314.022408 910.681546 
" style="fill:none;stroke:#000000;stroke-linecap:square;stroke-width:0.8;"/>
    </g>
    <g id="text_42">
     <!-- 0.75 -->
     <g transform="translate(288.895575 915.908498)scale(0.1 -0.1)">
      <use xlink:href="#DejaVuSans-48"/>
      <use x="63.623047" xlink:href="#DejaVuSans-46"/>
      <use x="95.410156" xlink:href="#DejaVuSans-55"/>
      <use x="159.033203" xlink:href="#DejaVuSans-53"/>
     </g>
    </g>
   </g>
  </g>
  <g id="axes_2">
   <g id="Poly3DCollection_2">
    <path clip-path="url(#pf4e9e1f2cf)" d="M 890.499432 1084.494493 
L 935.199353 1074.66438 
L 904.939508 1070.17762 
L 860.771659 1069.821299 
z
" style="fill:#6485ec;"/>
    <path clip-path="url(#pf4e9e1f2cf)" d="M 845.488594 1096.722163 
L 890.499432 1084.494493 
L 860.771659 1069.821299 
L 816.007036 1080.169058 
z
" style="fill:#6282ea;"/>
    <path clip-path="url(#pf4e9e1f2cf)" d="M 800.448484 1090.15345 
L 845.488594 1096.722163 
L 816.007036 1080.169058 
L 770.987089 1091.229934 
z
" style="fill:#6282ea;"/>
    <path clip-path="url(#pf4e9e1f2cf)" d="M 920.465181 1103.674846 
L 966.049946 1077.964989 
L 935.199353 1074.66438 
L 890.499432 1084.494493 
z
" style="fill:#6788ee;"/>
    <path clip-path="url(#pf4e9e1f2cf)" d="M 875.794733 1096.220861 
L 920.465181 1103.674846 
L 890.499432 1084.494493 
L 845.488594 1096.722163 
z
" style="fill:#6282ea;"/>
    <path clip-path="url(#pf4e9e1f2cf)" d="M 860.771659 1069.821299 
L 904.939508 1070.17762 
L 879.475859 902.010753 
L 834.443182 875.108498 
z
" style="fill:#d4dbe6;"/>
    <path clip-path="url(#pf4e9e1f2cf)" d="M 754.808892 1101.180599 
L 800.448484 1090.15345 
L 770.987089 1091.229934 
L 725.632263 1086.63105 
z
" style="fill:#6687ed;"/>
    <path clip-path="url(#pf4e9e1f2cf)" d="M 708.970598 1117.928399 
L 754.808892 1101.180599 
L 725.632263 1086.63105 
L 680.007344 1100.107359 
z
" style="fill:#6282ea;"/>
    <path clip-path="url(#pf4e9e1f2cf)" d="M 951.509083 1105.892925 
L 996.607956 1097.68682 
L 966.049946 1077.964989 
L 920.465181 1103.674846 
z
" style="fill:#688aef;"/>
    <path clip-path="url(#pf4e9e1f2cf)" d="M 830.379499 1096.896347 
L 875.794733 1096.220861 
L 845.488594 1096.722163 
L 800.448484 1090.15345 
z
" style="fill:#6a8bef;"/>
    <path clip-path="url(#pf4e9e1f2cf)" d="M 816.007036 1080.169058 
L 860.771659 1069.821299 
L 834.443182 875.108498 
L 788.273864 871.962355 
z
" style="fill:#dfdbd9;"/>
    <path clip-path="url(#pf4e9e1f2cf)" d="M 906.440561 1103.959252 
L 951.509083 1105.892925 
L 920.465181 1103.674846 
L 875.794733 1096.220861 
z
" style="fill:#688aef;"/>
    <path clip-path="url(#pf4e9e1f2cf)" d="M 662.445362 1106.843208 
L 708.970598 1117.928399 
L 680.007344 1100.107359 
L 633.714033 1095.492758 
z
" style="fill:#6687ed;"/>
    <path clip-path="url(#pf4e9e1f2cf)" d="M 770.987089 1091.229934 
L 816.007036 1080.169058 
L 788.273864 871.962355 
L 741.621229 886.036003 
z
" style="fill:#dddcdc;"/>
    <path clip-path="url(#pf4e9e1f2cf)" d="M 784.506231 1097.515 
L 830.379499 1096.896347 
L 800.448484 1090.15345 
L 754.808892 1101.180599 
z
" style="fill:#7093f3;"/>
    <path clip-path="url(#pf4e9e1f2cf)" d="M 982.90952 1112.914085 
L 1028.244493 1105.280106 
L 996.607956 1097.68682 
L 951.509083 1105.892925 
z
" style="fill:#6c8ff1;"/>
    <path clip-path="url(#pf4e9e1f2cf)" d="M 725.632263 1086.63105 
L 770.987089 1091.229934 
L 741.621229 886.036003 
L 694.763262 899.531712 
z
" style="fill:#dadce0;"/>
    <path clip-path="url(#pf4e9e1f2cf)" d="M 738.207444 1110.964532 
L 784.506231 1097.515 
L 754.808892 1101.180599 
L 708.970598 1117.928399 
z
" style="fill:#6b8df0;"/>
    <path clip-path="url(#pf4e9e1f2cf)" d="M 616.026176 1123.196543 
L 662.445362 1106.843208 
L 633.714033 1095.492758 
L 587.464984 1108.075092 
z
" style="fill:#6a8bef;"/>
    <path clip-path="url(#pf4e9e1f2cf)" d="M 860.481661 1118.431241 
L 906.440561 1103.959252 
L 875.794733 1096.220861 
L 830.379499 1096.896347 
z
" style="fill:#6f92f3;"/>
    <path clip-path="url(#pf4e9e1f2cf)" d="M 834.443182 875.108498 
L 879.475859 902.010753 
L 850.366555 839.621802 
L 804.671359 831.193305 
z
" style="fill:#da5a49;"/>
    <path clip-path="url(#pf4e9e1f2cf)" d="M 568.990384 1128.061505 
L 616.026176 1123.196543 
L 587.464984 1108.075092 
L 540.783542 1116.248505 
z
" style="fill:#6485ec;"/>
    <path clip-path="url(#pf4e9e1f2cf)" d="M 680.007344 1100.107359 
L 725.632263 1086.63105 
L 694.763262 899.531712 
L 647.658415 911.461204 
z
" style="fill:#d8dce2;"/>
    <path clip-path="url(#pf4e9e1f2cf)" d="M 691.696667 1124.664238 
L 738.207444 1110.964532 
L 708.970598 1117.928399 
L 662.445362 1106.843208 
z
" style="fill:#688aef;"/>
    <path clip-path="url(#pf4e9e1f2cf)" d="M 814.330871 1132.963655 
L 860.481661 1118.431241 
L 830.379499 1096.896347 
L 784.506231 1097.515 
z
" style="fill:#6c8ff1;"/>
    <path clip-path="url(#pf4e9e1f2cf)" d="M 937.763317 1107.731961 
L 982.90952 1112.914085 
L 951.509083 1105.892925 
L 906.440561 1103.959252 
z
" style="fill:#7295f4;"/>
    <path clip-path="url(#pf4e9e1f2cf)" d="M 521.860763 1138.983853 
L 568.990384 1128.061505 
L 540.783542 1116.248505 
L 494.148319 1131.01597 
z
" style="fill:#5f7fe8;"/>
    <path clip-path="url(#pf4e9e1f2cf)" d="M 644.914864 1135.919991 
L 691.696667 1124.664238 
L 662.445362 1106.843208 
L 616.026176 1123.196543 
z
" style="fill:#6788ee;"/>
    <path clip-path="url(#pf4e9e1f2cf)" d="M 1013.968113 1135.609951 
L 1060.682717 1108.940364 
L 1028.244493 1105.280106 
L 982.90952 1112.914085 
z
" style="fill:#6f92f3;"/>
    <path clip-path="url(#pf4e9e1f2cf)" d="M 633.714033 1095.492758 
L 680.007344 1100.107359 
L 647.658415 911.461204 
L 599.703731 904.375815 
z
" style="fill:#dadce0;"/>
    <path clip-path="url(#pf4e9e1f2cf)" d="M 891.121816 1133.075208 
L 937.763317 1107.731961 
L 906.440561 1103.959252 
L 860.481661 1118.431241 
z
" style="fill:#6f92f3;"/>
    <path clip-path="url(#pf4e9e1f2cf)" d="M 768.049692 1128.231799 
L 814.330871 1132.963655 
L 784.506231 1097.515 
L 738.207444 1110.964532 
z
" style="fill:#6e90f2;"/>
    <path clip-path="url(#pf4e9e1f2cf)" d="M 788.273864 871.962355 
L 834.443182 875.108498 
L 804.671359 831.193305 
L 758.334845 850.161103 
z
" style="fill:#cf453c;"/>
    <path clip-path="url(#pf4e9e1f2cf)" d="M 844.989599 1133.927597 
L 891.121816 1133.075208 
L 860.481661 1118.431241 
L 814.330871 1132.963655 
z
" style="fill:#6485ec;"/>
    <path clip-path="url(#pf4e9e1f2cf)" d="M 473.716391 1137.764368 
L 521.860763 1138.983853 
L 494.148319 1131.01597 
L 446.439371 1132.537831 
z
" style="fill:#5f7fe8;"/>
    <path clip-path="url(#pf4e9e1f2cf)" d="M 597.689562 1141.962253 
L 644.914864 1135.919991 
L 616.026176 1123.196543 
L 568.990384 1128.061505 
z
" style="fill:#6384eb;"/>
    <path clip-path="url(#pf4e9e1f2cf)" d="M 587.464984 1108.075092 
L 633.714033 1095.492758 
L 599.703731 904.375815 
L 552.375551 927.436781 
z
" style="fill:#dadce0;"/>
    <path clip-path="url(#pf4e9e1f2cf)" d="M 721.273851 1136.885401 
L 768.049692 1128.231799 
L 738.207444 1110.964532 
L 691.696667 1124.664238 
z
" style="fill:#6b8df0;"/>
    <path clip-path="url(#pf4e9e1f2cf)" d="M 968.835841 1129.458515 
L 1013.968113 1135.609951 
L 982.90952 1112.914085 
L 937.763317 1107.731961 
z
" style="fill:#6f92f3;"/>
    <path clip-path="url(#pf4e9e1f2cf)" d="M 741.621229 886.036003 
L 788.273864 871.962355 
L 758.334845 850.161103 
L 711.715826 847.42341 
z
" style="fill:#d0473d;"/>
    <path clip-path="url(#pf4e9e1f2cf)" d="M 550.517143 1157.803709 
L 597.689562 1141.962253 
L 568.990384 1128.061505 
L 521.860763 1138.983853 
z
" style="fill:#5f7fe8;"/>
    <path clip-path="url(#pf4e9e1f2cf)" d="M 540.783542 1116.248505 
L 587.464984 1108.075092 
L 552.375551 927.436781 
L 504.43224 939.235094 
z
" style="fill:#d2dbe8;"/>
    <path clip-path="url(#pf4e9e1f2cf)" d="M 494.148319 1131.01597 
L 540.783542 1116.248505 
L 504.43224 939.235094 
L 459.325226 1001.031769 
z
" style="fill:#bed2f6;"/>
    <path clip-path="url(#pf4e9e1f2cf)" d="M 674.15673 1144.405888 
L 721.273851 1136.885401 
L 691.696667 1124.664238 
L 644.914864 1135.919991 
z
" style="fill:#6788ee;"/>
    <path clip-path="url(#pf4e9e1f2cf)" d="M 798.369655 1136.146331 
L 844.989599 1133.927597 
L 814.330871 1132.963655 
L 768.049692 1128.231799 
z
" style="fill:#6a8bef;"/>
    <path clip-path="url(#pf4e9e1f2cf)" d="M 694.763262 899.531712 
L 741.621229 886.036003 
L 711.715826 847.42341 
L 664.739283 853.576213 
z
" style="fill:#d24b40;"/>
    <path clip-path="url(#pf4e9e1f2cf)" d="M 1047.121674 1130.775217 
L 1092.855979 1124.539237 
L 1060.682717 1108.940364 
L 1013.968113 1135.609951 
z
" style="fill:#7396f5;"/>
    <path clip-path="url(#pf4e9e1f2cf)" d="M 922.855487 1129.867989 
L 968.835841 1129.458515 
L 937.763317 1107.731961 
L 891.121816 1133.075208 
z
" style="fill:#7396f5;"/>
    <path clip-path="url(#pf4e9e1f2cf)" d="M 446.439371 1132.537831 
L 494.148319 1131.01597 
L 459.325226 1001.031769 
L 407.50876 959.417488 
z
" style="fill:#bad0f8;"/>
    <path clip-path="url(#pf4e9e1f2cf)" d="M 647.658415 911.461204 
L 694.763262 899.531712 
L 664.739283 853.576213 
L 617.617343 867.206711 
z
" style="fill:#d95847;"/>
    <path clip-path="url(#pf4e9e1f2cf)" d="M 501.421725 1141.7898 
L 550.517143 1157.803709 
L 521.860763 1138.983853 
L 473.716391 1137.764368 
z
" style="fill:#6485ec;"/>
    <path clip-path="url(#pf4e9e1f2cf)" d="M 626.535977 1146.366021 
L 674.15673 1144.405888 
L 644.914864 1135.919991 
L 597.689562 1141.962253 
z
" style="fill:#6687ed;"/>
    <path clip-path="url(#pf4e9e1f2cf)" d="M 1000.639337 1144.18654 
L 1047.121674 1130.775217 
L 1013.968113 1135.609951 
L 968.835841 1129.458515 
z
" style="fill:#6e90f2;"/>
    <path clip-path="url(#pf4e9e1f2cf)" d="M 876.308053 1133.380147 
L 922.855487 1129.867989 
L 891.121816 1133.075208 
L 844.989599 1133.927597 
z
" style="fill:#7295f4;"/>
    <path clip-path="url(#pf4e9e1f2cf)" d="M 751.292284 1129.482589 
L 798.369655 1136.146331 
L 768.049692 1128.231799 
L 721.273851 1136.885401 
z
" style="fill:#7396f5;"/>
    <path clip-path="url(#pf4e9e1f2cf)" d="M 579.251815 1169.612279 
L 626.535977 1146.366021 
L 597.689562 1141.962253 
L 550.517143 1157.803709 
z
" style="fill:#5f7fe8;"/>
    <path clip-path="url(#pf4e9e1f2cf)" d="M 599.703731 904.375815 
L 647.658415 911.461204 
L 617.617343 867.206711 
L 569.949783 871.959756 
z
" style="fill:#d95847;"/>
    <path clip-path="url(#pf4e9e1f2cf)" d="M 954.833268 1137.062752 
L 1000.639337 1144.18654 
L 968.835841 1129.458515 
L 922.855487 1129.867989 
z
" style="fill:#779af7;"/>
    <path clip-path="url(#pf4e9e1f2cf)" d="M 829.214153 1144.000903 
L 876.308053 1133.380147 
L 844.989599 1133.927597 
L 798.369655 1136.146331 
z
" style="fill:#7597f6;"/>
    <path clip-path="url(#pf4e9e1f2cf)" d="M 703.754723 1140.046079 
L 751.292284 1129.482589 
L 721.273851 1136.885401 
L 674.15673 1144.405888 
z
" style="fill:#7597f6;"/>
    <path clip-path="url(#pf4e9e1f2cf)" d="M 552.375551 927.436781 
L 599.703731 904.375815 
L 569.949783 871.959756 
L 522.307955 885.482434 
z
" style="fill:#dd5f4b;"/>
    <path clip-path="url(#pf4e9e1f2cf)" d="M 1081.627376 1117.473786 
L 1125.761722 1136.738276 
L 1092.855979 1124.539237 
L 1047.121674 1130.775217 
z
" style="fill:#81a4fb;"/>
    <path clip-path="url(#pf4e9e1f2cf)" d="M 530.470244 1162.662178 
L 579.251815 1169.612279 
L 550.517143 1157.803709 
L 501.421725 1141.7898 
z
" style="fill:#6384eb;"/>
    <path clip-path="url(#pf4e9e1f2cf)" d="M 459.325226 1001.031769 
L 504.43224 939.235094 
L 473.977666 890.886697 
L 427.196686 924.93934 
z
" style="fill:#f39475;"/>
    <path clip-path="url(#pf4e9e1f2cf)" d="M 656.416596 1173.995768 
L 703.754723 1140.046079 
L 674.15673 1144.405888 
L 626.535977 1146.366021 
z
" style="fill:#6b8df0;"/>
    <path clip-path="url(#pf4e9e1f2cf)" d="M 504.43224 939.235094 
L 552.375551 927.436781 
L 522.307955 885.482434 
L 473.977666 890.886697 
z
" style="fill:#e36c55;"/>
    <path clip-path="url(#pf4e9e1f2cf)" d="M 907.392953 1159.354515 
L 954.833268 1137.062752 
L 922.855487 1129.867989 
L 876.308053 1133.380147 
z
" style="fill:#7a9df8;"/>
    <path clip-path="url(#pf4e9e1f2cf)" d="M 608.171363 1173.250171 
L 656.416596 1173.995768 
L 626.535977 1146.366021 
L 579.251815 1169.612279 
z
" style="fill:#6180e9;"/>
    <path clip-path="url(#pf4e9e1f2cf)" d="M 781.927496 1139.204384 
L 829.214153 1144.000903 
L 798.369655 1136.146331 
L 751.292284 1129.482589 
z
" style="fill:#7ea1fa;"/>
    <path clip-path="url(#pf4e9e1f2cf)" d="M 1034.646309 1130.463725 
L 1081.627376 1117.473786 
L 1047.121674 1130.775217 
L 1000.639337 1144.18654 
z
" style="fill:#85a8fc;"/>
    <path clip-path="url(#pf4e9e1f2cf)" d="M 407.50876 959.417488 
L 459.325226 1001.031769 
L 427.196686 924.93934 
L 375.603306 894.753162 
z
" style="fill:#f39475;"/>
    <path clip-path="url(#pf4e9e1f2cf)" d="M 860.974949 1135.827225 
L 907.392953 1159.354515 
L 876.308053 1133.380147 
L 829.214153 1144.000903 
z
" style="fill:#7ea1fa;"/>
    <path clip-path="url(#pf4e9e1f2cf)" d="M 559.323497 1171.120839 
L 608.171363 1173.250171 
L 579.251815 1169.612279 
L 530.470244 1162.662178 
z
" style="fill:#6687ed;"/>
    <path clip-path="url(#pf4e9e1f2cf)" d="M 734.087129 1149.206039 
L 781.927496 1139.204384 
L 751.292284 1129.482589 
L 703.754723 1140.046079 
z
" style="fill:#84a7fc;"/>
    <path clip-path="url(#pf4e9e1f2cf)" d="M 988.102816 1130.157577 
L 1034.646309 1130.463725 
L 1000.639337 1144.18654 
L 954.833268 1137.062752 
z
" style="fill:#88abfd;"/>
    <path clip-path="url(#pf4e9e1f2cf)" d="M 686.031551 1165.930337 
L 734.087129 1149.206039 
L 703.754723 1140.046079 
L 656.416596 1173.995768 
z
" style="fill:#7597f6;"/>
    <path clip-path="url(#pf4e9e1f2cf)" d="M 812.841683 1166.93453 
L 860.974949 1135.827225 
L 829.214153 1144.000903 
L 781.927496 1139.204384 
z
" style="fill:#82a6fb;"/>
    <path clip-path="url(#pf4e9e1f2cf)" d="M 637.669861 1177.506632 
L 686.031551 1165.930337 
L 656.416596 1173.995768 
L 608.171363 1173.250171 
z
" style="fill:#688aef;"/>
    <path clip-path="url(#pf4e9e1f2cf)" d="M 940.364048 1146.530295 
L 988.102816 1130.157577 
L 954.833268 1137.062752 
L 907.392953 1159.354515 
z
" style="fill:#86a9fc;"/>
    <path clip-path="url(#pf4e9e1f2cf)" d="M 764.895083 1174.872925 
L 812.841683 1166.93453 
L 781.927496 1139.204384 
L 734.087129 1149.206039 
z
" style="fill:#7da0f9;"/>
    <path clip-path="url(#pf4e9e1f2cf)" d="M 893.085757 1141.870723 
L 940.364048 1146.530295 
L 907.392953 1159.354515 
L 860.974949 1135.827225 
z
" style="fill:#8caffe;"/>
    <path clip-path="url(#pf4e9e1f2cf)" d="M 588.531437 1175.564552 
L 637.669861 1177.506632 
L 608.171363 1173.250171 
L 559.323497 1171.120839 
z
" style="fill:#7093f3;"/>
    <path clip-path="url(#pf4e9e1f2cf)" d="M 716.514143 1173.776053 
L 764.895083 1174.872925 
L 734.087129 1149.206039 
L 686.031551 1165.930337 
z
" style="fill:#7b9ff9;"/>
    <path clip-path="url(#pf4e9e1f2cf)" d="M 667.983526 1194.687873 
L 716.514143 1173.776053 
L 686.031551 1165.930337 
L 637.669861 1177.506632 
z
" style="fill:#7396f5;"/>
    <path clip-path="url(#pf4e9e1f2cf)" d="M 844.865272 1153.237014 
L 893.085757 1141.870723 
L 860.974949 1135.827225 
L 812.841683 1166.93453 
z
" style="fill:#90b2fe;"/>
    <path clip-path="url(#pf4e9e1f2cf)" d="M 796.212032 1179.298963 
L 844.865272 1153.237014 
L 812.841683 1166.93453 
L 764.895083 1174.872925 
z
" style="fill:#80a3fa;"/>
    <path clip-path="url(#pf4e9e1f2cf)" d="M 618.669163 1192.265109 
L 667.983526 1194.687873 
L 637.669861 1177.506632 
L 588.531437 1175.564552 
z
" style="fill:#7396f5;"/>
    <path clip-path="url(#pf4e9e1f2cf)" d="M 747.535113 1173.666204 
L 796.212032 1179.298963 
L 764.895083 1174.872925 
L 716.514143 1173.776053 
z
" style="fill:#80a3fa;"/>
    <path clip-path="url(#pf4e9e1f2cf)" d="M 698.518471 1195.451569 
L 747.535113 1173.666204 
L 716.514143 1173.776053 
L 667.983526 1194.687873 
z
" style="fill:#7da0f9;"/>
    <path clip-path="url(#pf4e9e1f2cf)" d="M 649.151014 1205.49919 
L 698.518471 1195.451569 
L 667.983526 1194.687873 
L 618.669163 1192.265109 
z
" style="fill:#7699f6;"/>
   </g>
   <g id="text_43">
    <!-- No Usable Ace -->
    <defs>
     <path d="M 9.8125 72.90625 
L 23.09375 72.90625 
L 55.421875 11.921875 
L 55.421875 72.90625 
L 64.984375 72.90625 
L 64.984375 0 
L 51.703125 0 
L 19.390625 60.984375 
L 19.390625 0 
L 9.8125 0 
z
" id="DejaVuSans-78"/>
    </defs>
    <g transform="translate(694.570312 811.92)scale(0.12 -0.12)">
     <use xlink:href="#DejaVuSans-78"/>
     <use x="74.804688" xlink:href="#DejaVuSans-111"/>
     <use x="135.986328" xlink:href="#DejaVuSans-32"/>
     <use x="167.773438" xlink:href="#DejaVuSans-85"/>
     <use x="240.966797" xlink:href="#DejaVuSans-115"/>
     <use x="293.066406" xlink:href="#DejaVuSans-97"/>
     <use x="354.345703" xlink:href="#DejaVuSans-98"/>
     <use x="417.822266" xlink:href="#DejaVuSans-108"/>
     <use x="445.605469" xlink:href="#DejaVuSans-101"/>
     <use x="507.128906" xlink:href="#DejaVuSans-32"/>
     <use x="538.916016" xlink:href="#DejaVuSans-65"/>
     <use x="607.308594" xlink:href="#DejaVuSans-99"/>
     <use x="662.289062" xlink:href="#DejaVuSans-101"/>
    </g>
   </g>
  </g>
 </g>
 <defs>
  <clipPath id="p08ac1d609a">
   <rect height="504" width="1116" x="180" y="172.8"/>
  </clipPath>
  <clipPath id="pf4e9e1f2cf">
   <rect height="504" width="1116" x="180" y="777.6"/>
  </clipPath>
 </defs>
</svg>
