<?xml version="1.0" encoding="utf-8" standalone="no"?>
<!DOCTYPE svg PUBLIC "-//W3C//DTD SVG 1.1//EN"
  "http://www.w3.org/Graphics/SVG/1.1/DTD/svg11.dtd">
<!-- Created with matplotlib (https://matplotlib.org/) -->
<svg height="1440pt" version="1.1" viewBox="0 0 1440 1440" width="1440pt" xmlns="http://www.w3.org/2000/svg" xmlns:xlink="http://www.w3.org/1999/xlink">
 <defs>
  <style type="text/css">
*{stroke-linecap:butt;stroke-linejoin:round;}
  </style>
 </defs>
 <g id="figure_1">
  <g id="patch_1">
   <path d="M 0 1440 
L 1440 1440 
L 1440 0 
L 0 0 
z
" style="fill:#ffffff;"/>
  </g>
  <g id="patch_2">
   <path d="M 180 676.8 
L 1296 676.8 
L 1296 172.8 
L 180 172.8 
z
" style="fill:#ffffff;"/>
  </g>
  <g id="pane3d_1">
   <g id="patch_3">
    <path d="M 1178.219117 565.433762 
L 858.814078 441.864382 
L 864.131833 205.743578 
L 1201.345796 316.768125 
" style="fill:#f2f2f2;opacity:0.5;stroke:#f2f2f2;stroke-linejoin:miter;"/>
   </g>
  </g>
  <g id="pane3d_2">
   <g id="patch_4">
    <path d="M 341.407944 510.947639 
L 858.814078 441.864382 
L 864.131833 205.743578 
L 319.760292 267.706708 
" style="fill:#e6e6e6;opacity:0.5;stroke:#e6e6e6;stroke-linejoin:miter;"/>
   </g>
  </g>
  <g id="pane3d_3">
   <g id="patch_5">
    <path d="M 633.837951 645.892472 
L 1178.219117 565.433762 
L 858.814078 441.864382 
L 341.407944 510.947639 
" style="fill:#ececec;opacity:0.5;stroke:#ececec;stroke-linejoin:miter;"/>
   </g>
  </g>
  <g id="axis3d_1">
   <g id="line2d_1">
    <path d="M 1178.219117 565.433762 
L 633.837951 645.892472 
" style="fill:none;stroke:#000000;stroke-linecap:square;stroke-width:0.8;"/>
   </g>
   <g id="text_1">
    <!-- Player's Current Sum -->
    <defs>
     <path d="M 19.671875 64.796875 
L 19.671875 37.40625 
L 32.078125 37.40625 
Q 38.96875 37.40625 42.71875 40.96875 
Q 46.484375 44.53125 46.484375 51.125 
Q 46.484375 57.671875 42.71875 61.234375 
Q 38.96875 64.796875 32.078125 64.796875 
z
M 9.8125 72.90625 
L 32.078125 72.90625 
Q 44.34375 72.90625 50.609375 67.359375 
Q 56.890625 61.8125 56.890625 51.125 
Q 56.890625 40.328125 50.609375 34.8125 
Q 44.34375 29.296875 32.078125 29.296875 
L 19.671875 29.296875 
L 19.671875 0 
L 9.8125 0 
z
" id="DejaVuSans-80"/>
     <path d="M 9.421875 75.984375 
L 18.40625 75.984375 
L 18.40625 0 
L 9.421875 0 
z
" id="DejaVuSans-108"/>
     <path d="M 34.28125 27.484375 
Q 23.390625 27.484375 19.1875 25 
Q 14.984375 22.515625 14.984375 16.5 
Q 14.984375 11.71875 18.140625 8.90625 
Q 21.296875 6.109375 26.703125 6.109375 
Q 34.1875 6.109375 38.703125 11.40625 
Q 43.21875 16.703125 43.21875 25.484375 
L 43.21875 27.484375 
z
M 52.203125 31.203125 
L 52.203125 0 
L 43.21875 0 
L 43.21875 8.296875 
Q 40.140625 3.328125 35.546875 0.953125 
Q 30.953125 -1.421875 24.3125 -1.421875 
Q 15.921875 -1.421875 10.953125 3.296875 
Q 6 8.015625 6 15.921875 
Q 6 25.140625 12.171875 29.828125 
Q 18.359375 34.515625 30.609375 34.515625 
L 43.21875 34.515625 
L 43.21875 35.40625 
Q 43.21875 41.609375 39.140625 45 
Q 35.0625 48.390625 27.6875 48.390625 
Q 23 48.390625 18.546875 47.265625 
Q 14.109375 46.140625 10.015625 43.890625 
L 10.015625 52.203125 
Q 14.9375 54.109375 19.578125 55.046875 
Q 24.21875 56 28.609375 56 
Q 40.484375 56 46.34375 49.84375 
Q 52.203125 43.703125 52.203125 31.203125 
z
" id="DejaVuSans-97"/>
     <path d="M 32.171875 -5.078125 
Q 28.375 -14.84375 24.75 -17.8125 
Q 21.140625 -20.796875 15.09375 -20.796875 
L 7.90625 -20.796875 
L 7.90625 -13.28125 
L 13.1875 -13.28125 
Q 16.890625 -13.28125 18.9375 -11.515625 
Q 21 -9.765625 23.484375 -3.21875 
L 25.09375 0.875 
L 2.984375 54.6875 
L 12.5 54.6875 
L 29.59375 11.921875 
L 46.6875 54.6875 
L 56.203125 54.6875 
z
" id="DejaVuSans-121"/>
     <path d="M 56.203125 29.59375 
L 56.203125 25.203125 
L 14.890625 25.203125 
Q 15.484375 15.921875 20.484375 11.0625 
Q 25.484375 6.203125 34.421875 6.203125 
Q 39.59375 6.203125 44.453125 7.46875 
Q 49.3125 8.734375 54.109375 11.28125 
L 54.109375 2.78125 
Q 49.265625 0.734375 44.1875 -0.34375 
Q 39.109375 -1.421875 33.890625 -1.421875 
Q 20.796875 -1.421875 13.15625 6.1875 
Q 5.515625 13.8125 5.515625 26.8125 
Q 5.515625 40.234375 12.765625 48.109375 
Q 20.015625 56 32.328125 56 
Q 43.359375 56 49.78125 48.890625 
Q 56.203125 41.796875 56.203125 29.59375 
z
M 47.21875 32.234375 
Q 47.125 39.59375 43.09375 43.984375 
Q 39.0625 48.390625 32.421875 48.390625 
Q 24.90625 48.390625 20.390625 44.140625 
Q 15.875 39.890625 15.1875 32.171875 
z
" id="DejaVuSans-101"/>
     <path d="M 41.109375 46.296875 
Q 39.59375 47.171875 37.8125 47.578125 
Q 36.03125 48 33.890625 48 
Q 26.265625 48 22.1875 43.046875 
Q 18.109375 38.09375 18.109375 28.8125 
L 18.109375 0 
L 9.078125 0 
L 9.078125 54.6875 
L 18.109375 54.6875 
L 18.109375 46.1875 
Q 20.953125 51.171875 25.484375 53.578125 
Q 30.03125 56 36.53125 56 
Q 37.453125 56 38.578125 55.875 
Q 39.703125 55.765625 41.0625 55.515625 
z
" id="DejaVuSans-114"/>
     <path d="M 17.921875 72.90625 
L 17.921875 45.796875 
L 9.625 45.796875 
L 9.625 72.90625 
z
" id="DejaVuSans-39"/>
     <path d="M 44.28125 53.078125 
L 44.28125 44.578125 
Q 40.484375 46.53125 36.375 47.5 
Q 32.28125 48.484375 27.875 48.484375 
Q 21.1875 48.484375 17.84375 46.4375 
Q 14.5 44.390625 14.5 40.28125 
Q 14.5 37.15625 16.890625 35.375 
Q 19.28125 33.59375 26.515625 31.984375 
L 29.59375 31.296875 
Q 39.15625 29.25 43.1875 25.515625 
Q 47.21875 21.78125 47.21875 15.09375 
Q 47.21875 7.46875 41.1875 3.015625 
Q 35.15625 -1.421875 24.609375 -1.421875 
Q 20.21875 -1.421875 15.453125 -0.5625 
Q 10.6875 0.296875 5.421875 2 
L 5.421875 11.28125 
Q 10.40625 8.6875 15.234375 7.390625 
Q 20.0625 6.109375 24.8125 6.109375 
Q 31.15625 6.109375 34.5625 8.28125 
Q 37.984375 10.453125 37.984375 14.40625 
Q 37.984375 18.0625 35.515625 20.015625 
Q 33.0625 21.96875 24.703125 23.78125 
L 21.578125 24.515625 
Q 13.234375 26.265625 9.515625 29.90625 
Q 5.8125 33.546875 5.8125 39.890625 
Q 5.8125 47.609375 11.28125 51.796875 
Q 16.75 56 26.8125 56 
Q 31.78125 56 36.171875 55.265625 
Q 40.578125 54.546875 44.28125 53.078125 
z
" id="DejaVuSans-115"/>
     <path id="DejaVuSans-32"/>
     <path d="M 64.40625 67.28125 
L 64.40625 56.890625 
Q 59.421875 61.53125 53.78125 63.8125 
Q 48.140625 66.109375 41.796875 66.109375 
Q 29.296875 66.109375 22.65625 58.46875 
Q 16.015625 50.828125 16.015625 36.375 
Q 16.015625 21.96875 22.65625 14.328125 
Q 29.296875 6.6875 41.796875 6.6875 
Q 48.140625 6.6875 53.78125 8.984375 
Q 59.421875 11.28125 64.40625 15.921875 
L 64.40625 5.609375 
Q 59.234375 2.09375 53.4375 0.328125 
Q 47.65625 -1.421875 41.21875 -1.421875 
Q 24.65625 -1.421875 15.125 8.703125 
Q 5.609375 18.84375 5.609375 36.375 
Q 5.609375 53.953125 15.125 64.078125 
Q 24.65625 74.21875 41.21875 74.21875 
Q 47.75 74.21875 53.53125 72.484375 
Q 59.328125 70.75 64.40625 67.28125 
z
" id="DejaVuSans-67"/>
     <path d="M 8.5 21.578125 
L 8.5 54.6875 
L 17.484375 54.6875 
L 17.484375 21.921875 
Q 17.484375 14.15625 20.5 10.265625 
Q 23.53125 6.390625 29.59375 6.390625 
Q 36.859375 6.390625 41.078125 11.03125 
Q 45.3125 15.671875 45.3125 23.6875 
L 45.3125 54.6875 
L 54.296875 54.6875 
L 54.296875 0 
L 45.3125 0 
L 45.3125 8.40625 
Q 42.046875 3.421875 37.71875 1 
Q 33.40625 -1.421875 27.6875 -1.421875 
Q 18.265625 -1.421875 13.375 4.4375 
Q 8.5 10.296875 8.5 21.578125 
z
M 31.109375 56 
z
" id="DejaVuSans-117"/>
     <path d="M 54.890625 33.015625 
L 54.890625 0 
L 45.90625 0 
L 45.90625 32.71875 
Q 45.90625 40.484375 42.875 44.328125 
Q 39.84375 48.1875 33.796875 48.1875 
Q 26.515625 48.1875 22.3125 43.546875 
Q 18.109375 38.921875 18.109375 30.90625 
L 18.109375 0 
L 9.078125 0 
L 9.078125 54.6875 
L 18.109375 54.6875 
L 18.109375 46.1875 
Q 21.34375 51.125 25.703125 53.5625 
Q 30.078125 56 35.796875 56 
Q 45.21875 56 50.046875 50.171875 
Q 54.890625 44.34375 54.890625 33.015625 
z
" id="DejaVuSans-110"/>
     <path d="M 18.3125 70.21875 
L 18.3125 54.6875 
L 36.8125 54.6875 
L 36.8125 47.703125 
L 18.3125 47.703125 
L 18.3125 18.015625 
Q 18.3125 11.328125 20.140625 9.421875 
Q 21.96875 7.515625 27.59375 7.515625 
L 36.8125 7.515625 
L 36.8125 0 
L 27.59375 0 
Q 17.1875 0 13.234375 3.875 
Q 9.28125 7.765625 9.28125 18.015625 
L 9.28125 47.703125 
L 2.6875 47.703125 
L 2.6875 54.6875 
L 9.28125 54.6875 
L 9.28125 70.21875 
z
" id="DejaVuSans-116"/>
     <path d="M 53.515625 70.515625 
L 53.515625 60.890625 
Q 47.90625 63.578125 42.921875 64.890625 
Q 37.9375 66.21875 33.296875 66.21875 
Q 25.25 66.21875 20.875 63.09375 
Q 16.5 59.96875 16.5 54.203125 
Q 16.5 49.359375 19.40625 46.890625 
Q 22.3125 44.4375 30.421875 42.921875 
L 36.375 41.703125 
Q 47.40625 39.59375 52.65625 34.296875 
Q 57.90625 29 57.90625 20.125 
Q 57.90625 9.515625 50.796875 4.046875 
Q 43.703125 -1.421875 29.984375 -1.421875 
Q 24.8125 -1.421875 18.96875 -0.25 
Q 13.140625 0.921875 6.890625 3.21875 
L 6.890625 13.375 
Q 12.890625 10.015625 18.65625 8.296875 
Q 24.421875 6.59375 29.984375 6.59375 
Q 38.421875 6.59375 43.015625 9.90625 
Q 47.609375 13.234375 47.609375 19.390625 
Q 47.609375 24.75 44.3125 27.78125 
Q 41.015625 30.8125 33.5 32.328125 
L 27.484375 33.5 
Q 16.453125 35.6875 11.515625 40.375 
Q 6.59375 45.0625 6.59375 53.421875 
Q 6.59375 63.09375 13.40625 68.65625 
Q 20.21875 74.21875 32.171875 74.21875 
Q 37.3125 74.21875 42.625 73.28125 
Q 47.953125 72.359375 53.515625 70.515625 
z
" id="DejaVuSans-83"/>
     <path d="M 52 44.1875 
Q 55.375 50.25 60.0625 53.125 
Q 64.75 56 71.09375 56 
Q 79.640625 56 84.28125 50.015625 
Q 88.921875 44.046875 88.921875 33.015625 
L 88.921875 0 
L 79.890625 0 
L 79.890625 32.71875 
Q 79.890625 40.578125 77.09375 44.375 
Q 74.3125 48.1875 68.609375 48.1875 
Q 61.625 48.1875 57.5625 43.546875 
Q 53.515625 38.921875 53.515625 30.90625 
L 53.515625 0 
L 44.484375 0 
L 44.484375 32.71875 
Q 44.484375 40.625 41.703125 44.40625 
Q 38.921875 48.1875 33.109375 48.1875 
Q 26.21875 48.1875 22.15625 43.53125 
Q 18.109375 38.875 18.109375 30.90625 
L 18.109375 0 
L 9.078125 0 
L 9.078125 54.6875 
L 18.109375 54.6875 
L 18.109375 46.1875 
Q 21.1875 51.21875 25.484375 53.609375 
Q 29.78125 56 35.6875 56 
Q 41.65625 56 45.828125 52.96875 
Q 50 49.953125 52 44.1875 
z
" id="DejaVuSans-109"/>
    </defs>
    <g transform="translate(879.459282 637.669687)rotate(-8.407364)scale(0.1 -0.1)">
     <use xlink:href="#DejaVuSans-80"/>
     <use x="60.302734" xlink:href="#DejaVuSans-108"/>
     <use x="88.085938" xlink:href="#DejaVuSans-97"/>
     <use x="149.365234" xlink:href="#DejaVuSans-121"/>
     <use x="208.544922" xlink:href="#DejaVuSans-101"/>
     <use x="270.068359" xlink:href="#DejaVuSans-114"/>
     <use x="311.181641" xlink:href="#DejaVuSans-39"/>
     <use x="338.671875" xlink:href="#DejaVuSans-115"/>
     <use x="390.771484" xlink:href="#DejaVuSans-32"/>
     <use x="422.558594" xlink:href="#DejaVuSans-67"/>
     <use x="492.382812" xlink:href="#DejaVuSans-117"/>
     <use x="555.761719" xlink:href="#DejaVuSans-114"/>
     <use x="596.859375" xlink:href="#DejaVuSans-114"/>
     <use x="637.941406" xlink:href="#DejaVuSans-101"/>
     <use x="699.464844" xlink:href="#DejaVuSans-110"/>
     <use x="762.84375" xlink:href="#DejaVuSans-116"/>
     <use x="802.052734" xlink:href="#DejaVuSans-32"/>
     <use x="833.839844" xlink:href="#DejaVuSans-83"/>
     <use x="897.316406" xlink:href="#DejaVuSans-117"/>
     <use x="960.695312" xlink:href="#DejaVuSans-109"/>
    </g>
   </g>
   <g id="Line3DCollection_1">
    <path d="M 719.229522 633.271727 
L 422.338984 500.141854 
L 405.065762 257.996807 
" style="fill:none;stroke:#b0b0b0;stroke-width:0.8;"/>
    <path d="M 816.514871 618.8931 
L 514.646224 487.817135 
L 502.291344 246.930098 
" style="fill:none;stroke:#b0b0b0;stroke-width:0.8;"/>
    <path d="M 912.248164 604.743865 
L 605.588846 475.674619 
L 598.005697 236.035405 
" style="fill:none;stroke:#b0b0b0;stroke-width:0.8;"/>
    <path d="M 1006.466248 590.818575 
L 695.196886 463.710294 
L 692.243785 225.308747 
" style="fill:none;stroke:#b0b0b0;stroke-width:0.8;"/>
    <path d="M 1099.204814 577.111956 
L 783.499508 451.920266 
L 785.039501 214.746268 
" style="fill:none;stroke:#b0b0b0;stroke-width:0.8;"/>
   </g>
   <g id="xtick_1">
    <g id="line2d_2">
     <path d="M 716.664996 632.121758 
L 724.36849 635.576112 
" style="fill:none;stroke:#000000;stroke-linecap:square;stroke-width:0.8;"/>
    </g>
    <g id="text_2">
     <!-- 12 -->
     <defs>
      <path d="M 12.40625 8.296875 
L 28.515625 8.296875 
L 28.515625 63.921875 
L 10.984375 60.40625 
L 10.984375 69.390625 
L 28.421875 72.90625 
L 38.28125 72.90625 
L 38.28125 8.296875 
L 54.390625 8.296875 
L 54.390625 0 
L 12.40625 0 
z
" id="DejaVuSans-49"/>
      <path d="M 19.1875 8.296875 
L 53.609375 8.296875 
L 53.609375 0 
L 7.328125 0 
L 7.328125 8.296875 
Q 12.9375 14.109375 22.625 23.890625 
Q 32.328125 33.6875 34.8125 36.53125 
Q 39.546875 41.84375 41.421875 45.53125 
Q 43.3125 49.21875 43.3125 52.78125 
Q 43.3125 58.59375 39.234375 62.25 
Q 35.15625 65.921875 28.609375 65.921875 
Q 23.96875 65.921875 18.8125 64.3125 
Q 13.671875 62.703125 7.8125 59.421875 
L 7.8125 69.390625 
Q 13.765625 71.78125 18.9375 73 
Q 24.125 74.21875 28.421875 74.21875 
Q 39.75 74.21875 46.484375 68.546875 
Q 53.21875 62.890625 53.21875 53.421875 
Q 53.21875 48.921875 51.53125 44.890625 
Q 49.859375 40.875 45.40625 35.40625 
Q 44.1875 33.984375 37.640625 27.21875 
Q 31.109375 20.453125 19.1875 8.296875 
z
" id="DejaVuSans-50"/>
     </defs>
     <g transform="translate(721.666949 651.381853)scale(0.1 -0.1)">
      <use xlink:href="#DejaVuSans-49"/>
      <use x="63.623047" xlink:href="#DejaVuSans-50"/>
     </g>
    </g>
   </g>
   <g id="xtick_2">
    <g id="line2d_3">
     <path d="M 813.908891 617.761544 
L 821.736824 621.160552 
" style="fill:none;stroke:#000000;stroke-linecap:square;stroke-width:0.8;"/>
    </g>
    <g id="text_3">
     <!-- 14 -->
     <defs>
      <path d="M 37.796875 64.3125 
L 12.890625 25.390625 
L 37.796875 25.390625 
z
M 35.203125 72.90625 
L 47.609375 72.90625 
L 47.609375 25.390625 
L 58.015625 25.390625 
L 58.015625 17.1875 
L 47.609375 17.1875 
L 47.609375 0 
L 37.796875 0 
L 37.796875 17.1875 
L 4.890625 17.1875 
L 4.890625 26.703125 
z
" id="DejaVuSans-52"/>
     </defs>
     <g transform="translate(818.952072 636.908209)scale(0.1 -0.1)">
      <use xlink:href="#DejaVuSans-49"/>
      <use x="63.623047" xlink:href="#DejaVuSans-52"/>
     </g>
    </g>
   </g>
   <g id="xtick_3">
    <g id="line2d_4">
     <path d="M 909.602374 603.630284 
L 917.549809 606.975264 
" style="fill:none;stroke:#000000;stroke-linecap:square;stroke-width:0.8;"/>
    </g>
    <g id="text_4">
     <!-- 16 -->
     <defs>
      <path d="M 33.015625 40.375 
Q 26.375 40.375 22.484375 35.828125 
Q 18.609375 31.296875 18.609375 23.390625 
Q 18.609375 15.53125 22.484375 10.953125 
Q 26.375 6.390625 33.015625 6.390625 
Q 39.65625 6.390625 43.53125 10.953125 
Q 47.40625 15.53125 47.40625 23.390625 
Q 47.40625 31.296875 43.53125 35.828125 
Q 39.65625 40.375 33.015625 40.375 
z
M 52.59375 71.296875 
L 52.59375 62.3125 
Q 48.875 64.0625 45.09375 64.984375 
Q 41.3125 65.921875 37.59375 65.921875 
Q 27.828125 65.921875 22.671875 59.328125 
Q 17.53125 52.734375 16.796875 39.40625 
Q 19.671875 43.65625 24.015625 45.921875 
Q 28.375 48.1875 33.59375 48.1875 
Q 44.578125 48.1875 50.953125 41.515625 
Q 57.328125 34.859375 57.328125 23.390625 
Q 57.328125 12.15625 50.6875 5.359375 
Q 44.046875 -1.421875 33.015625 -1.421875 
Q 20.359375 -1.421875 13.671875 8.265625 
Q 6.984375 17.96875 6.984375 36.375 
Q 6.984375 53.65625 15.1875 63.9375 
Q 23.390625 74.21875 37.203125 74.21875 
Q 40.921875 74.21875 44.703125 73.484375 
Q 48.484375 72.75 52.59375 71.296875 
z
" id="DejaVuSans-54"/>
     </defs>
     <g transform="translate(914.684025 622.665638)scale(0.1 -0.1)">
      <use xlink:href="#DejaVuSans-49"/>
      <use x="63.623047" xlink:href="#DejaVuSans-54"/>
     </g>
    </g>
   </g>
   <g id="xtick_4">
    <g id="line2d_5">
     <path d="M 1003.782229 589.722544 
L 1011.844415 593.014775 
" style="fill:none;stroke:#000000;stroke-linecap:square;stroke-width:0.8;"/>
    </g>
    <g id="text_5">
     <!-- 18 -->
     <defs>
      <path d="M 31.78125 34.625 
Q 24.75 34.625 20.71875 30.859375 
Q 16.703125 27.09375 16.703125 20.515625 
Q 16.703125 13.921875 20.71875 10.15625 
Q 24.75 6.390625 31.78125 6.390625 
Q 38.8125 6.390625 42.859375 10.171875 
Q 46.921875 13.96875 46.921875 20.515625 
Q 46.921875 27.09375 42.890625 30.859375 
Q 38.875 34.625 31.78125 34.625 
z
M 21.921875 38.8125 
Q 15.578125 40.375 12.03125 44.71875 
Q 8.5 49.078125 8.5 55.328125 
Q 8.5 64.0625 14.71875 69.140625 
Q 20.953125 74.21875 31.78125 74.21875 
Q 42.671875 74.21875 48.875 69.140625 
Q 55.078125 64.0625 55.078125 55.328125 
Q 55.078125 49.078125 51.53125 44.71875 
Q 48 40.375 41.703125 38.8125 
Q 48.828125 37.15625 52.796875 32.3125 
Q 56.78125 27.484375 56.78125 20.515625 
Q 56.78125 9.90625 50.3125 4.234375 
Q 43.84375 -1.421875 31.78125 -1.421875 
Q 19.734375 -1.421875 13.25 4.234375 
Q 6.78125 9.90625 6.78125 20.515625 
Q 6.78125 27.484375 10.78125 32.3125 
Q 14.796875 37.15625 21.921875 38.8125 
z
M 18.3125 54.390625 
Q 18.3125 48.734375 21.84375 45.5625 
Q 25.390625 42.390625 31.78125 42.390625 
Q 38.140625 42.390625 41.71875 45.5625 
Q 45.3125 48.734375 45.3125 54.390625 
Q 45.3125 60.0625 41.71875 63.234375 
Q 38.140625 66.40625 31.78125 66.40625 
Q 25.390625 66.40625 21.84375 63.234375 
Q 18.3125 60.0625 18.3125 54.390625 
z
" id="DejaVuSans-56"/>
     </defs>
     <g transform="translate(1008.899709 608.64865)scale(0.1 -0.1)">
      <use xlink:href="#DejaVuSans-49"/>
      <use x="63.623047" xlink:href="#DejaVuSans-56"/>
     </g>
    </g>
   </g>
   <g id="xtick_5">
    <g id="line2d_6">
     <path d="M 1096.484087 576.033063 
L 1104.656454 579.273782 
" style="fill:none;stroke:#000000;stroke-linecap:square;stroke-width:0.8;"/>
    </g>
    <g id="text_6">
     <!-- 20 -->
     <defs>
      <path d="M 31.78125 66.40625 
Q 24.171875 66.40625 20.328125 58.90625 
Q 16.5 51.421875 16.5 36.375 
Q 16.5 21.390625 20.328125 13.890625 
Q 24.171875 6.390625 31.78125 6.390625 
Q 39.453125 6.390625 43.28125 13.890625 
Q 47.125 21.390625 47.125 36.375 
Q 47.125 51.421875 43.28125 58.90625 
Q 39.453125 66.40625 31.78125 66.40625 
z
M 31.78125 74.21875 
Q 44.046875 74.21875 50.515625 64.515625 
Q 56.984375 54.828125 56.984375 36.375 
Q 56.984375 17.96875 50.515625 8.265625 
Q 44.046875 -1.421875 31.78125 -1.421875 
Q 19.53125 -1.421875 13.0625 8.265625 
Q 6.59375 17.96875 6.59375 36.375 
Q 6.59375 54.828125 13.0625 64.515625 
Q 19.53125 74.21875 31.78125 74.21875 
z
" id="DejaVuSans-48"/>
     </defs>
     <g transform="translate(1101.634865 594.851929)scale(0.1 -0.1)">
      <use xlink:href="#DejaVuSans-50"/>
      <use x="63.623047" xlink:href="#DejaVuSans-48"/>
     </g>
    </g>
   </g>
  </g>
  <g id="axis3d_2">
   <g id="line2d_7">
    <path d="M 341.407944 510.947639 
L 633.837951 645.892472 
" style="fill:none;stroke:#000000;stroke-linecap:square;stroke-width:0.8;"/>
   </g>
   <g id="text_7">
    <!-- Dealer's Showing Card -->
    <defs>
     <path d="M 19.671875 64.796875 
L 19.671875 8.109375 
L 31.59375 8.109375 
Q 46.6875 8.109375 53.6875 14.9375 
Q 60.6875 21.78125 60.6875 36.53125 
Q 60.6875 51.171875 53.6875 57.984375 
Q 46.6875 64.796875 31.59375 64.796875 
z
M 9.8125 72.90625 
L 30.078125 72.90625 
Q 51.265625 72.90625 61.171875 64.09375 
Q 71.09375 55.28125 71.09375 36.53125 
Q 71.09375 17.671875 61.125 8.828125 
Q 51.171875 0 30.078125 0 
L 9.8125 0 
z
" id="DejaVuSans-68"/>
     <path d="M 54.890625 33.015625 
L 54.890625 0 
L 45.90625 0 
L 45.90625 32.71875 
Q 45.90625 40.484375 42.875 44.328125 
Q 39.84375 48.1875 33.796875 48.1875 
Q 26.515625 48.1875 22.3125 43.546875 
Q 18.109375 38.921875 18.109375 30.90625 
L 18.109375 0 
L 9.078125 0 
L 9.078125 75.984375 
L 18.109375 75.984375 
L 18.109375 46.1875 
Q 21.34375 51.125 25.703125 53.5625 
Q 30.078125 56 35.796875 56 
Q 45.21875 56 50.046875 50.171875 
Q 54.890625 44.34375 54.890625 33.015625 
z
" id="DejaVuSans-104"/>
     <path d="M 30.609375 48.390625 
Q 23.390625 48.390625 19.1875 42.75 
Q 14.984375 37.109375 14.984375 27.296875 
Q 14.984375 17.484375 19.15625 11.84375 
Q 23.34375 6.203125 30.609375 6.203125 
Q 37.796875 6.203125 41.984375 11.859375 
Q 46.1875 17.53125 46.1875 27.296875 
Q 46.1875 37.015625 41.984375 42.703125 
Q 37.796875 48.390625 30.609375 48.390625 
z
M 30.609375 56 
Q 42.328125 56 49.015625 48.375 
Q 55.71875 40.765625 55.71875 27.296875 
Q 55.71875 13.875 49.015625 6.21875 
Q 42.328125 -1.421875 30.609375 -1.421875 
Q 18.84375 -1.421875 12.171875 6.21875 
Q 5.515625 13.875 5.515625 27.296875 
Q 5.515625 40.765625 12.171875 48.375 
Q 18.84375 56 30.609375 56 
z
" id="DejaVuSans-111"/>
     <path d="M 4.203125 54.6875 
L 13.1875 54.6875 
L 24.421875 12.015625 
L 35.59375 54.6875 
L 46.1875 54.6875 
L 57.421875 12.015625 
L 68.609375 54.6875 
L 77.59375 54.6875 
L 63.28125 0 
L 52.6875 0 
L 40.921875 44.828125 
L 29.109375 0 
L 18.5 0 
z
" id="DejaVuSans-119"/>
     <path d="M 9.421875 54.6875 
L 18.40625 54.6875 
L 18.40625 0 
L 9.421875 0 
z
M 9.421875 75.984375 
L 18.40625 75.984375 
L 18.40625 64.59375 
L 9.421875 64.59375 
z
" id="DejaVuSans-105"/>
     <path d="M 45.40625 27.984375 
Q 45.40625 37.75 41.375 43.109375 
Q 37.359375 48.484375 30.078125 48.484375 
Q 22.859375 48.484375 18.828125 43.109375 
Q 14.796875 37.75 14.796875 27.984375 
Q 14.796875 18.265625 18.828125 12.890625 
Q 22.859375 7.515625 30.078125 7.515625 
Q 37.359375 7.515625 41.375 12.890625 
Q 45.40625 18.265625 45.40625 27.984375 
z
M 54.390625 6.78125 
Q 54.390625 -7.171875 48.1875 -13.984375 
Q 42 -20.796875 29.203125 -20.796875 
Q 24.46875 -20.796875 20.265625 -20.09375 
Q 16.0625 -19.390625 12.109375 -17.921875 
L 12.109375 -9.1875 
Q 16.0625 -11.328125 19.921875 -12.34375 
Q 23.78125 -13.375 27.78125 -13.375 
Q 36.625 -13.375 41.015625 -8.765625 
Q 45.40625 -4.15625 45.40625 5.171875 
L 45.40625 9.625 
Q 42.625 4.78125 38.28125 2.390625 
Q 33.9375 0 27.875 0 
Q 17.828125 0 11.671875 7.65625 
Q 5.515625 15.328125 5.515625 27.984375 
Q 5.515625 40.671875 11.671875 48.328125 
Q 17.828125 56 27.875 56 
Q 33.9375 56 38.28125 53.609375 
Q 42.625 51.21875 45.40625 46.390625 
L 45.40625 54.6875 
L 54.390625 54.6875 
z
" id="DejaVuSans-103"/>
     <path d="M 45.40625 46.390625 
L 45.40625 75.984375 
L 54.390625 75.984375 
L 54.390625 0 
L 45.40625 0 
L 45.40625 8.203125 
Q 42.578125 3.328125 38.25 0.953125 
Q 33.9375 -1.421875 27.875 -1.421875 
Q 17.96875 -1.421875 11.734375 6.484375 
Q 5.515625 14.40625 5.515625 27.296875 
Q 5.515625 40.1875 11.734375 48.09375 
Q 17.96875 56 27.875 56 
Q 33.9375 56 38.25 53.625 
Q 42.578125 51.265625 45.40625 46.390625 
z
M 14.796875 27.296875 
Q 14.796875 17.390625 18.875 11.75 
Q 22.953125 6.109375 30.078125 6.109375 
Q 37.203125 6.109375 41.296875 11.75 
Q 45.40625 17.390625 45.40625 27.296875 
Q 45.40625 37.203125 41.296875 42.84375 
Q 37.203125 48.484375 30.078125 48.484375 
Q 22.953125 48.484375 18.875 42.84375 
Q 14.796875 37.203125 14.796875 27.296875 
z
" id="DejaVuSans-100"/>
    </defs>
    <g transform="translate(397.302207 573.181633)rotate(-335.228552)scale(0.1 -0.1)">
     <use xlink:href="#DejaVuSans-68"/>
     <use x="77.001953" xlink:href="#DejaVuSans-101"/>
     <use x="138.525391" xlink:href="#DejaVuSans-97"/>
     <use x="199.804688" xlink:href="#DejaVuSans-108"/>
     <use x="227.587891" xlink:href="#DejaVuSans-101"/>
     <use x="289.111328" xlink:href="#DejaVuSans-114"/>
     <use x="330.224609" xlink:href="#DejaVuSans-39"/>
     <use x="357.714844" xlink:href="#DejaVuSans-115"/>
     <use x="409.814453" xlink:href="#DejaVuSans-32"/>
     <use x="441.601562" xlink:href="#DejaVuSans-83"/>
     <use x="505.078125" xlink:href="#DejaVuSans-104"/>
     <use x="568.457031" xlink:href="#DejaVuSans-111"/>
     <use x="629.638672" xlink:href="#DejaVuSans-119"/>
     <use x="711.425781" xlink:href="#DejaVuSans-105"/>
     <use x="739.208984" xlink:href="#DejaVuSans-110"/>
     <use x="802.587891" xlink:href="#DejaVuSans-103"/>
     <use x="866.064453" xlink:href="#DejaVuSans-32"/>
     <use x="897.851562" xlink:href="#DejaVuSans-67"/>
     <use x="967.675781" xlink:href="#DejaVuSans-97"/>
     <use x="1028.955078" xlink:href="#DejaVuSans-114"/>
     <use x="1070.052734" xlink:href="#DejaVuSans-100"/>
    </g>
   </g>
   <g id="Line3DCollection_2">
    <path d="M 1143.525737 297.73141 
L 1123.629375 544.314432 
L 583.719407 622.764755 
" style="fill:none;stroke:#b0b0b0;stroke-width:0.8;"/>
    <path d="M 1075.668393 275.390014 
L 1059.470047 519.492881 
L 524.888556 595.616654 
" style="fill:none;stroke:#b0b0b0;stroke-width:0.8;"/>
    <path d="M 1009.866717 253.725427 
L 997.158168 495.38606 
L 467.827579 569.285279 
" style="fill:none;stroke:#b0b0b0;stroke-width:0.8;"/>
    <path d="M 946.028693 232.707353 
L 936.615075 471.963535 
L 412.457792 543.734322 
" style="fill:none;stroke:#b0b0b0;stroke-width:0.8;"/>
    <path d="M 884.067712 212.30728 
L 877.766509 449.196577 
L 358.705107 518.929593 
" style="fill:none;stroke:#b0b0b0;stroke-width:0.8;"/>
   </g>
   <g id="xtick_6">
    <g id="line2d_8">
     <path d="M 588.236434 622.108419 
L 574.675337 624.078882 
" style="fill:none;stroke:#000000;stroke-linecap:square;stroke-width:0.8;"/>
    </g>
    <g id="text_8">
     <!-- 2 -->
     <g transform="translate(565.390192 639.158366)scale(0.1 -0.1)">
      <use xlink:href="#DejaVuSans-50"/>
     </g>
    </g>
   </g>
   <g id="xtick_7">
    <g id="line2d_9">
     <path d="M 529.358014 594.980208 
L 515.93988 596.890935 
" style="fill:none;stroke:#000000;stroke-linecap:square;stroke-width:0.8;"/>
    </g>
    <g id="text_9">
     <!-- 4 -->
     <g transform="translate(506.801909 611.881177)scale(0.1 -0.1)">
      <use xlink:href="#DejaVuSans-52"/>
     </g>
    </g>
   </g>
   <g id="xtick_8">
    <g id="line2d_10">
     <path d="M 472.250265 568.667833 
L 458.972694 570.521499 
" style="fill:none;stroke:#000000;stroke-linecap:square;stroke-width:0.8;"/>
    </g>
    <g id="text_10">
     <!-- 6 -->
     <g transform="translate(449.975871 585.424443)scale(0.1 -0.1)">
      <use xlink:href="#DejaVuSans-54"/>
     </g>
    </g>
   </g>
   <g id="xtick_9">
    <g id="line2d_11">
     <path d="M 416.834496 543.135037 
L 403.695111 544.934161 
" style="fill:none;stroke:#000000;stroke-linecap:square;stroke-width:0.8;"/>
    </g>
    <g id="text_11">
     <!-- 8 -->
     <g transform="translate(394.833746 559.751695)scale(0.1 -0.1)">
      <use xlink:href="#DejaVuSans-56"/>
     </g>
    </g>
   </g>
   <g id="xtick_10">
    <g id="line2d_12">
     <path d="M 363.036608 518.34768 
L 350.03306 520.094634 
" style="fill:none;stroke:#000000;stroke-linecap:square;stroke-width:0.8;"/>
    </g>
    <g id="text_12">
     <!-- 10 -->
     <g transform="translate(338.120529 534.828595)scale(0.1 -0.1)">
      <use xlink:href="#DejaVuSans-49"/>
      <use x="63.623047" xlink:href="#DejaVuSans-48"/>
     </g>
    </g>
   </g>
  </g>
  <g id="axis3d_3">
   <g id="line2d_13">
    <path d="M 341.407944 510.947639 
L 319.760292 267.706708 
" style="fill:none;stroke:#000000;stroke-linecap:square;stroke-width:0.8;"/>
   </g>
   <g id="text_13">
    <!-- State Value -->
    <defs>
     <path d="M 28.609375 0 
L 0.78125 72.90625 
L 11.078125 72.90625 
L 34.1875 11.53125 
L 57.328125 72.90625 
L 67.578125 72.90625 
L 39.796875 0 
z
" id="DejaVuSans-86"/>
    </defs>
    <g transform="translate(276.414167 360.891157)rotate(-275.085739)scale(0.1 -0.1)">
     <use xlink:href="#DejaVuSans-83"/>
     <use x="63.476562" xlink:href="#DejaVuSans-116"/>
     <use x="102.685547" xlink:href="#DejaVuSans-97"/>
     <use x="163.964844" xlink:href="#DejaVuSans-116"/>
     <use x="203.173828" xlink:href="#DejaVuSans-101"/>
     <use x="264.697266" xlink:href="#DejaVuSans-32"/>
     <use x="296.484375" xlink:href="#DejaVuSans-86"/>
     <use x="364.783203" xlink:href="#DejaVuSans-97"/>
     <use x="426.0625" xlink:href="#DejaVuSans-108"/>
     <use x="453.845703" xlink:href="#DejaVuSans-117"/>
     <use x="517.224609" xlink:href="#DejaVuSans-101"/>
    </g>
   </g>
   <g id="Line3DCollection_3">
    <path d="M 340.996209 506.321233 
L 858.915437 437.363792 
L 1178.658241 560.712158 
" style="fill:none;stroke:#b0b0b0;stroke-width:0.8;"/>
    <path d="M 338.508398 478.367282 
L 859.527698 410.178001 
L 1181.312153 532.176428 
" style="fill:none;stroke:#b0b0b0;stroke-width:0.8;"/>
    <path d="M 335.990367 450.073757 
L 860.147083 382.675834 
L 1183.999372 503.282565 
" style="fill:none;stroke:#b0b0b0;stroke-width:0.8;"/>
    <path d="M 333.44156 421.434434 
L 860.773719 354.851739 
L 1186.72053 474.023785 
" style="fill:none;stroke:#b0b0b0;stroke-width:0.8;"/>
    <path d="M 330.86141 392.442933 
L 861.407733 326.700029 
L 1189.476273 444.39313 
" style="fill:none;stroke:#b0b0b0;stroke-width:0.8;"/>
    <path d="M 328.249337 363.092719 
L 862.049256 298.214883 
L 1192.267265 414.383466 
" style="fill:none;stroke:#b0b0b0;stroke-width:0.8;"/>
    <path d="M 325.604742 333.377093 
L 862.698423 269.390342 
L 1195.094187 383.987474 
" style="fill:none;stroke:#b0b0b0;stroke-width:0.8;"/>
    <path d="M 322.927017 303.289187 
L 863.355371 240.220304 
L 1197.957737 353.197646 
" style="fill:none;stroke:#b0b0b0;stroke-width:0.8;"/>
    <path d="M 320.215533 272.821962 
L 864.020241 210.69852 
L 1200.858632 322.006277 
" style="fill:none;stroke:#b0b0b0;stroke-width:0.8;"/>
   </g>
   <g id="xtick_11">
    <g id="line2d_14">
     <path d="M 345.317505 505.745881 
L 332.344628 507.473132 
" style="fill:none;stroke:#000000;stroke-linecap:square;stroke-width:0.8;"/>
    </g>
    <g id="text_14">
     <!-- −1.00 -->
     <defs>
      <path d="M 10.59375 35.5 
L 73.1875 35.5 
L 73.1875 27.203125 
L 10.59375 27.203125 
z
" id="DejaVuSans-8722"/>
      <path d="M 10.6875 12.40625 
L 21 12.40625 
L 21 0 
L 10.6875 0 
z
" id="DejaVuSans-46"/>
     </defs>
     <g transform="translate(303.582517 512.485259)scale(0.1 -0.1)">
      <use xlink:href="#DejaVuSans-8722"/>
      <use x="83.789062" xlink:href="#DejaVuSans-49"/>
      <use x="147.412109" xlink:href="#DejaVuSans-46"/>
      <use x="179.199219" xlink:href="#DejaVuSans-48"/>
      <use x="242.822266" xlink:href="#DejaVuSans-48"/>
     </g>
    </g>
   </g>
   <g id="xtick_12">
    <g id="line2d_15">
     <path d="M 342.85664 477.798198 
L 329.802814 479.50664 
" style="fill:none;stroke:#000000;stroke-linecap:square;stroke-width:0.8;"/>
    </g>
    <g id="text_15">
     <!-- −0.75 -->
     <defs>
      <path d="M 8.203125 72.90625 
L 55.078125 72.90625 
L 55.078125 68.703125 
L 28.609375 0 
L 18.3125 0 
L 43.21875 64.59375 
L 8.203125 64.59375 
z
" id="DejaVuSans-55"/>
      <path d="M 10.796875 72.90625 
L 49.515625 72.90625 
L 49.515625 64.59375 
L 19.828125 64.59375 
L 19.828125 46.734375 
Q 21.96875 47.46875 24.109375 47.828125 
Q 26.265625 48.1875 28.421875 48.1875 
Q 40.625 48.1875 47.75 41.5 
Q 54.890625 34.8125 54.890625 23.390625 
Q 54.890625 11.625 47.5625 5.09375 
Q 40.234375 -1.421875 26.90625 -1.421875 
Q 22.3125 -1.421875 17.546875 -0.640625 
Q 12.796875 0.140625 7.71875 1.703125 
L 7.71875 11.625 
Q 12.109375 9.234375 16.796875 8.0625 
Q 21.484375 6.890625 26.703125 6.890625 
Q 35.15625 6.890625 40.078125 11.328125 
Q 45.015625 15.765625 45.015625 23.390625 
Q 45.015625 31 40.078125 35.4375 
Q 35.15625 39.890625 26.703125 39.890625 
Q 22.75 39.890625 18.8125 39.015625 
Q 14.890625 38.140625 10.796875 36.28125 
z
" id="DejaVuSans-53"/>
     </defs>
     <g transform="translate(300.963617 484.546939)scale(0.1 -0.1)">
      <use xlink:href="#DejaVuSans-8722"/>
      <use x="83.789062" xlink:href="#DejaVuSans-48"/>
      <use x="147.412109" xlink:href="#DejaVuSans-46"/>
      <use x="179.199219" xlink:href="#DejaVuSans-55"/>
      <use x="242.822266" xlink:href="#DejaVuSans-53"/>
     </g>
    </g>
   </g>
   <g id="xtick_13">
    <g id="line2d_16">
     <path d="M 340.365892 449.511136 
L 327.230102 451.200183 
" style="fill:none;stroke:#000000;stroke-linecap:square;stroke-width:0.8;"/>
    </g>
    <g id="text_16">
     <!-- −0.50 -->
     <g transform="translate(298.312931 456.269531)scale(0.1 -0.1)">
      <use xlink:href="#DejaVuSans-8722"/>
      <use x="83.789062" xlink:href="#DejaVuSans-48"/>
      <use x="147.412109" xlink:href="#DejaVuSans-46"/>
      <use x="179.199219" xlink:href="#DejaVuSans-53"/>
      <use x="242.822266" xlink:href="#DejaVuSans-48"/>
     </g>
    </g>
   </g>
   <g id="xtick_14">
    <g id="line2d_17">
     <path d="M 337.844714 420.878477 
L 324.625924 422.547525 
" style="fill:none;stroke:#000000;stroke-linecap:square;stroke-width:0.8;"/>
    </g>
    <g id="text_17">
     <!-- −0.25 -->
     <g transform="translate(295.629877 427.646826)scale(0.1 -0.1)">
      <use xlink:href="#DejaVuSans-8722"/>
      <use x="83.789062" xlink:href="#DejaVuSans-48"/>
      <use x="147.412109" xlink:href="#DejaVuSans-46"/>
      <use x="179.199219" xlink:href="#DejaVuSans-50"/>
      <use x="242.822266" xlink:href="#DejaVuSans-53"/>
     </g>
    </g>
   </g>
   <g id="xtick_15">
    <g id="line2d_18">
     <path d="M 335.292543 391.893847 
L 321.989701 393.542275 
" style="fill:none;stroke:#000000;stroke-linecap:square;stroke-width:0.8;"/>
    </g>
    <g id="text_18">
     <!-- 0.00 -->
     <g transform="translate(297.103703 398.672459)scale(0.1 -0.1)">
      <use xlink:href="#DejaVuSans-48"/>
      <use x="63.623047" xlink:href="#DejaVuSans-46"/>
      <use x="95.410156" xlink:href="#DejaVuSans-48"/>
      <use x="159.033203" xlink:href="#DejaVuSans-48"/>
     </g>
    </g>
   </g>
   <g id="xtick_16">
    <g id="line2d_19">
     <path d="M 332.708806 362.550717 
L 319.320835 364.177886 
" style="fill:none;stroke:#000000;stroke-linecap:square;stroke-width:0.8;"/>
    </g>
    <g id="text_19">
     <!-- 0.25 -->
     <g transform="translate(294.354109 369.33991)scale(0.1 -0.1)">
      <use xlink:href="#DejaVuSans-48"/>
      <use x="63.623047" xlink:href="#DejaVuSans-46"/>
      <use x="95.410156" xlink:href="#DejaVuSans-50"/>
      <use x="159.033203" xlink:href="#DejaVuSans-53"/>
     </g>
    </g>
   </g>
   <g id="xtick_17">
    <g id="line2d_20">
     <path d="M 330.092912 332.842394 
L 316.618718 334.447644 
" style="fill:none;stroke:#000000;stroke-linecap:square;stroke-width:0.8;"/>
    </g>
    <g id="text_20">
     <!-- 0.50 -->
     <g transform="translate(291.570314 339.642496)scale(0.1 -0.1)">
      <use xlink:href="#DejaVuSans-48"/>
      <use x="63.623047" xlink:href="#DejaVuSans-46"/>
      <use x="95.410156" xlink:href="#DejaVuSans-53"/>
      <use x="159.033203" xlink:href="#DejaVuSans-48"/>
     </g>
    </g>
   </g>
   <g id="xtick_18">
    <g id="line2d_21">
     <path d="M 327.444258 302.762017 
L 313.882725 304.344671 
" style="fill:none;stroke:#000000;stroke-linecap:square;stroke-width:0.8;"/>
    </g>
    <g id="text_21">
     <!-- 0.75 -->
     <g transform="translate(288.751674 309.573365)scale(0.1 -0.1)">
      <use xlink:href="#DejaVuSans-48"/>
      <use x="63.623047" xlink:href="#DejaVuSans-46"/>
      <use x="95.410156" xlink:href="#DejaVuSans-55"/>
      <use x="159.033203" xlink:href="#DejaVuSans-53"/>
     </g>
    </g>
   </g>
   <g id="xtick_19">
    <g id="line2d_22">
     <path d="M 324.762224 272.302554 
L 311.112213 273.861911 
" style="fill:none;stroke:#000000;stroke-linecap:square;stroke-width:0.8;"/>
    </g>
    <g id="text_22">
     <!-- 1.00 -->
     <g transform="translate(285.897532 279.125496)scale(0.1 -0.1)">
      <use xlink:href="#DejaVuSans-49"/>
      <use x="63.623047" xlink:href="#DejaVuSans-46"/>
      <use x="95.410156" xlink:href="#DejaVuSans-48"/>
      <use x="159.033203" xlink:href="#DejaVuSans-48"/>
     </g>
    </g>
   </g>
  </g>
  <g id="axes_1">
   <g id="Poly3DCollection_1">
    <path clip-path="url(#pc5bee285da)" d="M 892.151447 423.709429 
L 938.190351 393.21987 
L 906.78772 408.525247 
L 861.24195 444.619989 
z
" style="fill:#98b9ff;"/>
    <path clip-path="url(#pc5bee285da)" d="M 861.24195 444.619989 
L 906.78772 408.525247 
L 879.086264 312.127707 
L 834.671236 256.668358 
z
" style="fill:#dddcdc;"/>
    <path clip-path="url(#pc5bee285da)" d="M 847.532473 389.189456 
L 892.151447 423.709429 
L 861.24195 444.619989 
L 817.070185 396.615462 
z
" style="fill:#a7c5fe;"/>
    <path clip-path="url(#pc5bee285da)" d="M 923.244871 421.856792 
L 967.450505 442.496212 
L 938.190351 393.21987 
L 892.151447 423.709429 
z
" style="fill:#a6c4fe;"/>
    <path clip-path="url(#pc5bee285da)" d="M 817.070185 396.615462 
L 861.24195 444.619989 
L 834.671236 256.668358 
L 788.406678 248.785428 
z
" style="fill:#f2c9b4;"/>
    <path clip-path="url(#pc5bee285da)" d="M 876.440325 466.982455 
L 923.244871 421.856792 
L 892.151447 423.709429 
L 847.532473 389.189456 
z
" style="fill:#a7c5fe;"/>
    <path clip-path="url(#pc5bee285da)" d="M 834.671236 256.668358 
L 879.086264 312.127707 
L 850.365494 234.875259 
L 804.550633 237.883815 
z
" style="fill:#e0654f;"/>
    <path clip-path="url(#pc5bee285da)" d="M 801.568959 375.326913 
L 847.532473 389.189456 
L 817.070185 396.615462 
L 771.261228 415.235345 
z
" style="fill:#cbd8ee;"/>
    <path clip-path="url(#pc5bee285da)" d="M 953.387742 457.204735 
L 1000.275641 422.94839 
L 967.450505 442.496212 
L 923.244871 421.856792 
z
" style="fill:#9fbfff;"/>
    <path clip-path="url(#pc5bee285da)" d="M 771.261228 415.235345 
L 817.070185 396.615462 
L 788.406678 248.785428 
L 741.654884 295.495397 
z
" style="fill:#f4c5ad;"/>
    <path clip-path="url(#pc5bee285da)" d="M 754.8378 418.743387 
L 801.568959 375.326913 
L 771.261228 415.235345 
L 725.218612 411.683311 
z
" style="fill:#c5d6f2;"/>
    <path clip-path="url(#pc5bee285da)" d="M 908.255894 444.264667 
L 953.387742 457.204735 
L 923.244871 421.856792 
L 876.440325 466.982455 
z
" style="fill:#97b8ff;"/>
    <path clip-path="url(#pc5bee285da)" d="M 830.794323 467.171153 
L 876.440325 466.982455 
L 847.532473 389.189456 
L 801.568959 375.326913 
z
" style="fill:#b1cbfc;"/>
    <path clip-path="url(#pc5bee285da)" d="M 708.413913 454.778318 
L 754.8378 418.743387 
L 725.218612 411.683311 
L 678.72634 413.943171 
z
" style="fill:#b2ccfb;"/>
    <path clip-path="url(#pc5bee285da)" d="M 725.218612 411.683311 
L 771.261228 415.235345 
L 741.654884 295.495397 
L 694.637675 284.304672 
z
" style="fill:#f1ccb8;"/>
    <path clip-path="url(#pc5bee285da)" d="M 788.406678 248.785428 
L 834.671236 256.668358 
L 804.550633 237.883815 
L 758.33688 243.467006 
z
" style="fill:#c73635;"/>
    <path clip-path="url(#pc5bee285da)" d="M 661.226076 439.695602 
L 708.413913 454.778318 
L 678.72634 413.943171 
L 632.076644 426.962845 
z
" style="fill:#adc9fd;"/>
    <path clip-path="url(#pc5bee285da)" d="M 784.736516 458.684074 
L 830.794323 467.171153 
L 801.568959 375.326913 
L 754.8378 418.743387 
z
" style="fill:#b2ccfb;"/>
    <path clip-path="url(#pc5bee285da)" d="M 862.398613 431.116604 
L 908.255894 444.264667 
L 876.440325 466.982455 
L 830.794323 467.171153 
z
" style="fill:#98b9ff;"/>
    <path clip-path="url(#pc5bee285da)" d="M 614.26735 459.130397 
L 661.226076 439.695602 
L 632.076644 426.962845 
L 586.663691 480.857611 
z
" style="fill:#9bbcff;"/>
    <path clip-path="url(#pc5bee285da)" d="M 738.079508 466.335237 
L 784.736516 458.684074 
L 754.8378 418.743387 
L 708.413913 454.778318 
z
" style="fill:#9ebeff;"/>
    <path clip-path="url(#pc5bee285da)" d="M 741.654884 295.495397 
L 788.406678 248.785428 
L 758.33688 243.467006 
L 711.790834 251.497781 
z
" style="fill:#d1493f;"/>
    <path clip-path="url(#pc5bee285da)" d="M 568.022016 498.993751 
L 614.26735 459.130397 
L 586.663691 480.857611 
L 538.441717 460.428453 
z
" style="fill:#82a6fb;"/>
    <path clip-path="url(#pc5bee285da)" d="M 985.475868 456.430098 
L 1031.935233 438.295505 
L 1000.275641 422.94839 
L 953.387742 457.204735 
z
" style="fill:#a6c4fe;"/>
    <path clip-path="url(#pc5bee285da)" d="M 521.166873 520.371872 
L 568.022016 498.993751 
L 538.441717 460.428453 
L 491.268577 474.940553 
z
" style="fill:#7699f6;"/>
    <path clip-path="url(#pc5bee285da)" d="M 678.72634 413.943171 
L 725.218612 411.683311 
L 694.637675 284.304672 
L 646.74122 264.639456 
z
" style="fill:#f7bca1;"/>
    <path clip-path="url(#pc5bee285da)" d="M 694.637675 284.304672 
L 741.654884 295.495397 
L 711.790834 251.497781 
L 664.847964 254.789422 
z
" style="fill:#d95847;"/>
    <path clip-path="url(#pc5bee285da)" d="M 939.622916 456.27412 
L 985.475868 456.430098 
L 953.387742 457.204735 
L 908.255894 444.264667 
z
" style="fill:#a1c0ff;"/>
    <path clip-path="url(#pc5bee285da)" d="M 586.663691 480.857611 
L 632.076644 426.962845 
L 600.281878 317.808922 
L 551.299118 296.817991 
z
" style="fill:#e8d6cc;"/>
    <path clip-path="url(#pc5bee285da)" d="M 632.076644 426.962845 
L 678.72634 413.943171 
L 646.74122 264.639456 
L 600.281878 317.808922 
z
" style="fill:#f5c4ac;"/>
    <path clip-path="url(#pc5bee285da)" d="M 815.575105 434.546251 
L 862.398613 431.116604 
L 830.794323 467.171153 
L 784.736516 458.684074 
z
" style="fill:#a9c6fd;"/>
    <path clip-path="url(#pc5bee285da)" d="M 690.591959 436.777869 
L 738.079508 466.335237 
L 708.413913 454.778318 
L 661.226076 439.695602 
z
" style="fill:#a7c5fe;"/>
    <path clip-path="url(#pc5bee285da)" d="M 1017.311922 471.776454 
L 1064.575053 445.521314 
L 1031.935233 438.295505 
L 985.475868 456.430098 
z
" style="fill:#aac7fd;"/>
    <path clip-path="url(#pc5bee285da)" d="M 646.74122 264.639456 
L 694.637675 284.304672 
L 664.847964 254.789422 
L 617.580377 261.076595 
z
" style="fill:#cb3e38;"/>
    <path clip-path="url(#pc5bee285da)" d="M 643.860877 486.242991 
L 690.591959 436.777869 
L 661.226076 439.695602 
L 614.26735 459.130397 
z
" style="fill:#a9c6fd;"/>
    <path clip-path="url(#pc5bee285da)" d="M 595.49478 472.198047 
L 643.860877 486.242991 
L 614.26735 459.130397 
L 568.022016 498.993751 
z
" style="fill:#8db0fe;"/>
    <path clip-path="url(#pc5bee285da)" d="M 538.441717 460.428453 
L 586.663691 480.857611 
L 551.299118 296.817991 
L 502.477706 296.686652 
z
" style="fill:#ead4c8;"/>
    <path clip-path="url(#pc5bee285da)" d="M 468.947051 454.369695 
L 521.166873 520.371872 
L 491.268577 474.940553 
L 442.561899 469.458234 
z
" style="fill:#8db0fe;"/>
    <path clip-path="url(#pc5bee285da)" d="M 768.304998 444.748063 
L 815.575105 434.546251 
L 784.736516 458.684074 
L 738.079508 466.335237 
z
" style="fill:#aec9fc;"/>
    <path clip-path="url(#pc5bee285da)" d="M 548.837021 514.985609 
L 595.49478 472.198047 
L 568.022016 498.993751 
L 521.166873 520.371872 
z
" style="fill:#7597f6;"/>
    <path clip-path="url(#pc5bee285da)" d="M 491.268577 474.940553 
L 538.441717 460.428453 
L 502.477706 296.686652 
L 458.420338 381.629325 
z
" style="fill:#dcdddd;"/>
    <path clip-path="url(#pc5bee285da)" d="M 442.561899 469.458234 
L 491.268577 474.940553 
L 458.420338 381.629325 
L 408.615917 369.938348 
z
" style="fill:#ccd9ed;"/>
    <path clip-path="url(#pc5bee285da)" d="M 600.281878 317.808922 
L 646.74122 264.639456 
L 617.580377 261.076595 
L 569.542541 256.331114 
z
" style="fill:#d0473d;"/>
    <path clip-path="url(#pc5bee285da)" d="M 973.297557 429.284356 
L 1017.311922 471.776454 
L 985.475868 456.430098 
L 939.622916 456.27412 
z
" style="fill:#b2ccfb;"/>
    <path clip-path="url(#pc5bee285da)" d="M 895.450886 383.752591 
L 939.622916 456.27412 
L 908.255894 444.264667 
L 862.398613 431.116604 
z
" style="fill:#ccd9ed;"/>
    <path clip-path="url(#pc5bee285da)" d="M 551.299118 296.817991 
L 600.281878 317.808922 
L 569.542541 256.331114 
L 521.689191 267.662274 
z
" style="fill:#d55042;"/>
    <path clip-path="url(#pc5bee285da)" d="M 1051.408462 458.756542 
L 1094.433162 498.308211 
L 1064.575053 445.521314 
L 1017.311922 471.776454 
z
" style="fill:#a5c3fe;"/>
    <path clip-path="url(#pc5bee285da)" d="M 499.7014 505.546803 
L 548.837021 514.985609 
L 521.166873 520.371872 
L 468.947051 454.369695 
z
" style="fill:#84a7fc;"/>
    <path clip-path="url(#pc5bee285da)" d="M 798.574538 510.512094 
L 845.996643 478.642755 
L 815.575105 434.546251 
L 768.304998 444.748063 
z
" style="fill:#a9c6fd;"/>
    <path clip-path="url(#pc5bee285da)" d="M 845.996643 478.642755 
L 895.450886 383.752591 
L 862.398613 431.116604 
L 815.575105 434.546251 
z
" style="fill:#cfdaea;"/>
    <path clip-path="url(#pc5bee285da)" d="M 579.292108 565.872034 
L 624.79647 478.401229 
L 595.49478 472.198047 
L 548.837021 514.985609 
z
" style="fill:#7ea1fa;"/>
    <path clip-path="url(#pc5bee285da)" d="M 458.420338 381.629325 
L 502.477706 296.686652 
L 473.760094 282.305493 
L 426.247022 306.103469 
z
" style="fill:#ea7b60;"/>
    <path clip-path="url(#pc5bee285da)" d="M 720.239309 382.319852 
L 768.304998 444.748063 
L 738.079508 466.335237 
L 690.591959 436.777869 
z
" style="fill:#cfdaea;"/>
    <path clip-path="url(#pc5bee285da)" d="M 408.615917 369.938348 
L 458.420338 381.629325 
L 426.247022 306.103469 
L 375.607586 290.008115 
z
" style="fill:#f39577;"/>
    <path clip-path="url(#pc5bee285da)" d="M 624.79647 478.401229 
L 673.062056 475.845146 
L 643.860877 486.242991 
L 595.49478 472.198047 
z
" style="fill:#a2c1ff;"/>
    <path clip-path="url(#pc5bee285da)" d="M 502.477706 296.686652 
L 551.299118 296.817991 
L 521.689191 267.662274 
L 473.760094 282.305493 
z
" style="fill:#cf453c;"/>
    <path clip-path="url(#pc5bee285da)" d="M 673.062056 475.845146 
L 720.239309 382.319852 
L 690.591959 436.777869 
L 643.860877 486.242991 
z
" style="fill:#c7d7f0;"/>
    <path clip-path="url(#pc5bee285da)" d="M 923.989326 494.269468 
L 973.297557 429.284356 
L 939.622916 456.27412 
L 895.450886 383.752591 
z
" style="fill:#ccd9ed;"/>
    <path clip-path="url(#pc5bee285da)" d="M 876.948052 504.647373 
L 923.989326 494.269468 
L 895.450886 383.752591 
L 845.996643 478.642755 
z
" style="fill:#b3cdfb;"/>
    <path clip-path="url(#pc5bee285da)" d="M 526.983296 486.140511 
L 579.292108 565.872034 
L 548.837021 514.985609 
L 499.7014 505.546803 
z
" style="fill:#799cf8;"/>
    <path clip-path="url(#pc5bee285da)" d="M 830.718564 448.353849 
L 876.948052 504.647373 
L 845.996643 478.642755 
L 798.574538 510.512094 
z
" style="fill:#9fbfff;"/>
    <path clip-path="url(#pc5bee285da)" d="M 1004.174763 473.732062 
L 1051.408462 458.756542 
L 1017.311922 471.776454 
L 973.297557 429.284356 
z
" style="fill:#bcd2f7;"/>
    <path clip-path="url(#pc5bee285da)" d="M 607.592756 550.20985 
L 655.257988 514.450764 
L 624.79647 478.401229 
L 579.292108 565.872034 
z
" style="fill:#7597f6;"/>
    <path clip-path="url(#pc5bee285da)" d="M 957.23103 477.54095 
L 1004.174763 473.732062 
L 973.297557 429.284356 
L 923.989326 494.269468 
z
" style="fill:#b7cff9;"/>
    <path clip-path="url(#pc5bee285da)" d="M 751.260381 442.428503 
L 798.574538 510.512094 
L 768.304998 444.748063 
L 720.239309 382.319852 
z
" style="fill:#cedaeb;"/>
    <path clip-path="url(#pc5bee285da)" d="M 909.766542 484.073691 
L 957.23103 477.54095 
L 923.989326 494.269468 
L 876.948052 504.647373 
z
" style="fill:#a1c0ff;"/>
    <path clip-path="url(#pc5bee285da)" d="M 1089.119104 407.234687 
L 1129.388021 487.132924 
L 1094.433162 498.308211 
L 1051.408462 458.756542 
z
" style="fill:#bed2f6;"/>
    <path clip-path="url(#pc5bee285da)" d="M 985.45101 577.387969 
L 1035.422801 512.947665 
L 1004.174763 473.732062 
L 957.23103 477.54095 
z
" style="fill:#8caffe;"/>
    <path clip-path="url(#pc5bee285da)" d="M 655.257988 514.450764 
L 702.828461 448.839683 
L 673.062056 475.845146 
L 624.79647 478.401229 
z
" style="fill:#b2ccfb;"/>
    <path clip-path="url(#pc5bee285da)" d="M 556.619837 502.547139 
L 607.592756 550.20985 
L 579.292108 565.872034 
L 526.983296 486.140511 
z
" style="fill:#80a3fa;"/>
    <path clip-path="url(#pc5bee285da)" d="M 1035.422801 512.947665 
L 1089.119104 407.234687 
L 1051.408462 458.756542 
L 1004.174763 473.732062 
z
" style="fill:#c6d6f1;"/>
    <path clip-path="url(#pc5bee285da)" d="M 782.426368 454.812779 
L 830.718564 448.353849 
L 798.574538 510.512094 
L 751.260381 442.428503 
z
" style="fill:#c6d6f1;"/>
    <path clip-path="url(#pc5bee285da)" d="M 861.68969 500.517336 
L 909.766542 484.073691 
L 876.948052 504.647373 
L 830.718564 448.353849 
z
" style="fill:#b3cdfb;"/>
    <path clip-path="url(#pc5bee285da)" d="M 702.828461 448.839683 
L 751.260381 442.428503 
L 720.239309 382.319852 
L 673.062056 475.845146 
z
" style="fill:#dfdbd9;"/>
    <path clip-path="url(#pc5bee285da)" d="M 943.414296 466.893452 
L 985.45101 577.387969 
L 957.23103 477.54095 
L 909.766542 484.073691 
z
" style="fill:#a3c2fe;"/>
    <path clip-path="url(#pc5bee285da)" d="M 764.948102 549.579258 
L 813.048549 546.299457 
L 782.426368 454.812779 
L 733.940177 508.876769 
z
" style="fill:#9abbff;"/>
    <path clip-path="url(#pc5bee285da)" d="M 813.048549 546.299457 
L 861.68969 500.517336 
L 830.718564 448.353849 
L 782.426368 454.812779 
z
" style="fill:#b9d0f9;"/>
    <path clip-path="url(#pc5bee285da)" d="M 733.940177 508.876769 
L 782.426368 454.812779 
L 751.260381 442.428503 
L 702.828461 448.839683 
z
" style="fill:#cfdaea;"/>
    <path clip-path="url(#pc5bee285da)" d="M 684.504382 456.914839 
L 733.940177 508.876769 
L 702.828461 448.839683 
L 655.257988 514.450764 
z
" style="fill:#c0d4f5;"/>
    <path clip-path="url(#pc5bee285da)" d="M 635.995216 506.482599 
L 684.504382 456.914839 
L 655.257988 514.450764 
L 607.592756 550.20985 
z
" style="fill:#a6c4fe;"/>
    <path clip-path="url(#pc5bee285da)" d="M 893.20727 533.078656 
L 943.414296 466.893452 
L 909.766542 484.073691 
L 861.68969 500.517336 
z
" style="fill:#b5cdfa;"/>
    <path clip-path="url(#pc5bee285da)" d="M 747.58774 612.211371 
L 795.922396 605.135133 
L 764.948102 549.579258 
L 716.127436 520.671329 
z
" style="fill:#6282ea;"/>
    <path clip-path="url(#pc5bee285da)" d="M 586.364537 510.637816 
L 635.995216 506.482599 
L 607.592756 550.20985 
L 556.619837 502.547139 
z
" style="fill:#a1c0ff;"/>
    <path clip-path="url(#pc5bee285da)" d="M 716.127436 520.671329 
L 764.948102 549.579258 
L 733.940177 508.876769 
L 684.504382 456.914839 
z
" style="fill:#adc9fd;"/>
    <path clip-path="url(#pc5bee285da)" d="M 795.922396 605.135133 
L 848.716372 355.923524 
L 813.048549 546.299457 
L 764.948102 549.579258 
z
" style="fill:#abc8fd;"/>
    <path clip-path="url(#pc5bee285da)" d="M 848.716372 355.923524 
L 893.20727 533.078656 
L 861.68969 500.517336 
L 813.048549 546.299457 
z
" style="fill:#ccd9ed;"/>
    <path clip-path="url(#pc5bee285da)" d="M 667.186314 547.292738 
L 716.127436 520.671329 
L 684.504382 456.914839 
L 635.995216 506.482599 
z
" style="fill:#b7cff9;"/>
    <path clip-path="url(#pc5bee285da)" d="M 618.019889 565.49033 
L 667.186314 547.292738 
L 635.995216 506.482599 
L 586.364537 510.637816 
z
" style="fill:#9ebeff;"/>
    <path clip-path="url(#pc5bee285da)" d="M 697.920091 540.796155 
L 747.58774 612.211371 
L 716.127436 520.671329 
L 667.186314 547.292738 
z
" style="fill:#85a8fc;"/>
    <path clip-path="url(#pc5bee285da)" d="M 648.098101 554.74554 
L 697.920091 540.796155 
L 667.186314 547.292738 
L 618.019889 565.49033 
z
" style="fill:#94b6ff;"/>
   </g>
   <g id="text_23">
    <!-- Usable Ace -->
    <defs>
     <path d="M 8.6875 72.90625 
L 18.609375 72.90625 
L 18.609375 28.609375 
Q 18.609375 16.890625 22.84375 11.734375 
Q 27.09375 6.59375 36.625 6.59375 
Q 46.09375 6.59375 50.34375 11.734375 
Q 54.59375 16.890625 54.59375 28.609375 
L 54.59375 72.90625 
L 64.5 72.90625 
L 64.5 27.390625 
Q 64.5 13.140625 57.4375 5.859375 
Q 50.390625 -1.421875 36.625 -1.421875 
Q 22.796875 -1.421875 15.734375 5.859375 
Q 8.6875 13.140625 8.6875 27.390625 
z
" id="DejaVuSans-85"/>
     <path d="M 48.6875 27.296875 
Q 48.6875 37.203125 44.609375 42.84375 
Q 40.53125 48.484375 33.40625 48.484375 
Q 26.265625 48.484375 22.1875 42.84375 
Q 18.109375 37.203125 18.109375 27.296875 
Q 18.109375 17.390625 22.1875 11.75 
Q 26.265625 6.109375 33.40625 6.109375 
Q 40.53125 6.109375 44.609375 11.75 
Q 48.6875 17.390625 48.6875 27.296875 
z
M 18.109375 46.390625 
Q 20.953125 51.265625 25.265625 53.625 
Q 29.59375 56 35.59375 56 
Q 45.5625 56 51.78125 48.09375 
Q 58.015625 40.1875 58.015625 27.296875 
Q 58.015625 14.40625 51.78125 6.484375 
Q 45.5625 -1.421875 35.59375 -1.421875 
Q 29.59375 -1.421875 25.265625 0.953125 
Q 20.953125 3.328125 18.109375 8.203125 
L 18.109375 0 
L 9.078125 0 
L 9.078125 75.984375 
L 18.109375 75.984375 
z
" id="DejaVuSans-98"/>
     <path d="M 34.1875 63.1875 
L 20.796875 26.90625 
L 47.609375 26.90625 
z
M 28.609375 72.90625 
L 39.796875 72.90625 
L 67.578125 0 
L 57.328125 0 
L 50.6875 18.703125 
L 17.828125 18.703125 
L 11.1875 0 
L 0.78125 0 
z
" id="DejaVuSans-65"/>
     <path d="M 48.78125 52.59375 
L 48.78125 44.1875 
Q 44.96875 46.296875 41.140625 47.34375 
Q 37.3125 48.390625 33.40625 48.390625 
Q 24.65625 48.390625 19.8125 42.84375 
Q 14.984375 37.3125 14.984375 27.296875 
Q 14.984375 17.28125 19.8125 11.734375 
Q 24.65625 6.203125 33.40625 6.203125 
Q 37.3125 6.203125 41.140625 7.25 
Q 44.96875 8.296875 48.78125 10.40625 
L 48.78125 2.09375 
Q 45.015625 0.34375 40.984375 -0.53125 
Q 36.96875 -1.421875 32.421875 -1.421875 
Q 20.0625 -1.421875 12.78125 6.34375 
Q 5.515625 14.109375 5.515625 27.296875 
Q 5.515625 40.671875 12.859375 48.328125 
Q 20.21875 56 33.015625 56 
Q 37.15625 56 41.109375 55.140625 
Q 45.0625 54.296875 48.78125 52.59375 
z
" id="DejaVuSans-99"/>
    </defs>
    <g transform="translate(704.637187 207.12)scale(0.12 -0.12)">
     <use xlink:href="#DejaVuSans-85"/>
     <use x="73.193359" xlink:href="#DejaVuSans-115"/>
     <use x="125.292969" xlink:href="#DejaVuSans-97"/>
     <use x="186.572266" xlink:href="#DejaVuSans-98"/>
     <use x="250.048828" xlink:href="#DejaVuSans-108"/>
     <use x="277.832031" xlink:href="#DejaVuSans-101"/>
     <use x="339.355469" xlink:href="#DejaVuSans-32"/>
     <use x="371.142578" xlink:href="#DejaVuSans-65"/>
     <use x="439.535156" xlink:href="#DejaVuSans-99"/>
     <use x="494.515625" xlink:href="#DejaVuSans-101"/>
    </g>
   </g>
  </g>
  <g id="patch_6">
   <path d="M 180 1281.6 
L 1296 1281.6 
L 1296 777.6 
L 180 777.6 
z
" style="fill:#ffffff;"/>
  </g>
  <g id="pane3d_4">
   <g id="patch_7">
    <path d="M 1178.219117 1170.233762 
L 858.814078 1046.664382 
L 864.131833 810.543578 
L 1201.345796 921.568125 
" style="fill:#f2f2f2;opacity:0.5;stroke:#f2f2f2;stroke-linejoin:miter;"/>
   </g>
  </g>
  <g id="pane3d_5">
   <g id="patch_8">
    <path d="M 341.407944 1115.747639 
L 858.814078 1046.664382 
L 864.131833 810.543578 
L 319.760292 872.506708 
" style="fill:#e6e6e6;opacity:0.5;stroke:#e6e6e6;stroke-linejoin:miter;"/>
   </g>
  </g>
  <g id="pane3d_6">
   <g id="patch_9">
    <path d="M 633.837951 1250.692472 
L 1178.219117 1170.233762 
L 858.814078 1046.664382 
L 341.407944 1115.747639 
" style="fill:#ececec;opacity:0.5;stroke:#ececec;stroke-linejoin:miter;"/>
   </g>
  </g>
  <g id="axis3d_4">
   <g id="line2d_23">
    <path d="M 1178.219117 1170.233762 
L 633.837951 1250.692472 
" style="fill:none;stroke:#000000;stroke-linecap:square;stroke-width:0.8;"/>
   </g>
   <g id="text_24">
    <!-- Player's Current Sum -->
    <g transform="translate(879.459282 1242.469687)rotate(-8.407364)scale(0.1 -0.1)">
     <use xlink:href="#DejaVuSans-80"/>
     <use x="60.302734" xlink:href="#DejaVuSans-108"/>
     <use x="88.085938" xlink:href="#DejaVuSans-97"/>
     <use x="149.365234" xlink:href="#DejaVuSans-121"/>
     <use x="208.544922" xlink:href="#DejaVuSans-101"/>
     <use x="270.068359" xlink:href="#DejaVuSans-114"/>
     <use x="311.181641" xlink:href="#DejaVuSans-39"/>
     <use x="338.671875" xlink:href="#DejaVuSans-115"/>
     <use x="390.771484" xlink:href="#DejaVuSans-32"/>
     <use x="422.558594" xlink:href="#DejaVuSans-67"/>
     <use x="492.382812" xlink:href="#DejaVuSans-117"/>
     <use x="555.761719" xlink:href="#DejaVuSans-114"/>
     <use x="596.859375" xlink:href="#DejaVuSans-114"/>
     <use x="637.941406" xlink:href="#DejaVuSans-101"/>
     <use x="699.464844" xlink:href="#DejaVuSans-110"/>
     <use x="762.84375" xlink:href="#DejaVuSans-116"/>
     <use x="802.052734" xlink:href="#DejaVuSans-32"/>
     <use x="833.839844" xlink:href="#DejaVuSans-83"/>
     <use x="897.316406" xlink:href="#DejaVuSans-117"/>
     <use x="960.695312" xlink:href="#DejaVuSans-109"/>
    </g>
   </g>
   <g id="Line3DCollection_4">
    <path d="M 719.229522 1238.071727 
L 422.338984 1104.941854 
L 405.065762 862.796807 
" style="fill:none;stroke:#b0b0b0;stroke-width:0.8;"/>
    <path d="M 816.514871 1223.6931 
L 514.646224 1092.617135 
L 502.291344 851.730098 
" style="fill:none;stroke:#b0b0b0;stroke-width:0.8;"/>
    <path d="M 912.248164 1209.543865 
L 605.588846 1080.474619 
L 598.005697 840.835405 
" style="fill:none;stroke:#b0b0b0;stroke-width:0.8;"/>
    <path d="M 1006.466248 1195.618575 
L 695.196886 1068.510294 
L 692.243785 830.108747 
" style="fill:none;stroke:#b0b0b0;stroke-width:0.8;"/>
    <path d="M 1099.204814 1181.911956 
L 783.499508 1056.720266 
L 785.039501 819.546268 
" style="fill:none;stroke:#b0b0b0;stroke-width:0.8;"/>
   </g>
   <g id="xtick_20">
    <g id="line2d_24">
     <path d="M 716.664996 1236.921758 
L 724.36849 1240.376112 
" style="fill:none;stroke:#000000;stroke-linecap:square;stroke-width:0.8;"/>
    </g>
    <g id="text_25">
     <!-- 12 -->
     <g transform="translate(721.666949 1256.181853)scale(0.1 -0.1)">
      <use xlink:href="#DejaVuSans-49"/>
      <use x="63.623047" xlink:href="#DejaVuSans-50"/>
     </g>
    </g>
   </g>
   <g id="xtick_21">
    <g id="line2d_25">
     <path d="M 813.908891 1222.561544 
L 821.736824 1225.960552 
" style="fill:none;stroke:#000000;stroke-linecap:square;stroke-width:0.8;"/>
    </g>
    <g id="text_26">
     <!-- 14 -->
     <g transform="translate(818.952072 1241.708209)scale(0.1 -0.1)">
      <use xlink:href="#DejaVuSans-49"/>
      <use x="63.623047" xlink:href="#DejaVuSans-52"/>
     </g>
    </g>
   </g>
   <g id="xtick_22">
    <g id="line2d_26">
     <path d="M 909.602374 1208.430284 
L 917.549809 1211.775264 
" style="fill:none;stroke:#000000;stroke-linecap:square;stroke-width:0.8;"/>
    </g>
    <g id="text_27">
     <!-- 16 -->
     <g transform="translate(914.684025 1227.465638)scale(0.1 -0.1)">
      <use xlink:href="#DejaVuSans-49"/>
      <use x="63.623047" xlink:href="#DejaVuSans-54"/>
     </g>
    </g>
   </g>
   <g id="xtick_23">
    <g id="line2d_27">
     <path d="M 1003.782229 1194.522544 
L 1011.844415 1197.814775 
" style="fill:none;stroke:#000000;stroke-linecap:square;stroke-width:0.8;"/>
    </g>
    <g id="text_28">
     <!-- 18 -->
     <g transform="translate(1008.899709 1213.44865)scale(0.1 -0.1)">
      <use xlink:href="#DejaVuSans-49"/>
      <use x="63.623047" xlink:href="#DejaVuSans-56"/>
     </g>
    </g>
   </g>
   <g id="xtick_24">
    <g id="line2d_28">
     <path d="M 1096.484087 1180.833063 
L 1104.656454 1184.073782 
" style="fill:none;stroke:#000000;stroke-linecap:square;stroke-width:0.8;"/>
    </g>
    <g id="text_29">
     <!-- 20 -->
     <g transform="translate(1101.634865 1199.651929)scale(0.1 -0.1)">
      <use xlink:href="#DejaVuSans-50"/>
      <use x="63.623047" xlink:href="#DejaVuSans-48"/>
     </g>
    </g>
   </g>
  </g>
  <g id="axis3d_5">
   <g id="line2d_29">
    <path d="M 341.407944 1115.747639 
L 633.837951 1250.692472 
" style="fill:none;stroke:#000000;stroke-linecap:square;stroke-width:0.8;"/>
   </g>
   <g id="text_30">
    <!-- Dealer's Showing Card -->
    <g transform="translate(397.302207 1177.981633)rotate(-335.228552)scale(0.1 -0.1)">
     <use xlink:href="#DejaVuSans-68"/>
     <use x="77.001953" xlink:href="#DejaVuSans-101"/>
     <use x="138.525391" xlink:href="#DejaVuSans-97"/>
     <use x="199.804688" xlink:href="#DejaVuSans-108"/>
     <use x="227.587891" xlink:href="#DejaVuSans-101"/>
     <use x="289.111328" xlink:href="#DejaVuSans-114"/>
     <use x="330.224609" xlink:href="#DejaVuSans-39"/>
     <use x="357.714844" xlink:href="#DejaVuSans-115"/>
     <use x="409.814453" xlink:href="#DejaVuSans-32"/>
     <use x="441.601562" xlink:href="#DejaVuSans-83"/>
     <use x="505.078125" xlink:href="#DejaVuSans-104"/>
     <use x="568.457031" xlink:href="#DejaVuSans-111"/>
     <use x="629.638672" xlink:href="#DejaVuSans-119"/>
     <use x="711.425781" xlink:href="#DejaVuSans-105"/>
     <use x="739.208984" xlink:href="#DejaVuSans-110"/>
     <use x="802.587891" xlink:href="#DejaVuSans-103"/>
     <use x="866.064453" xlink:href="#DejaVuSans-32"/>
     <use x="897.851562" xlink:href="#DejaVuSans-67"/>
     <use x="967.675781" xlink:href="#DejaVuSans-97"/>
     <use x="1028.955078" xlink:href="#DejaVuSans-114"/>
     <use x="1070.052734" xlink:href="#DejaVuSans-100"/>
    </g>
   </g>
   <g id="Line3DCollection_5">
    <path d="M 1143.525737 902.53141 
L 1123.629375 1149.114432 
L 583.719407 1227.564755 
" style="fill:none;stroke:#b0b0b0;stroke-width:0.8;"/>
    <path d="M 1075.668393 880.190014 
L 1059.470047 1124.292881 
L 524.888556 1200.416654 
" style="fill:none;stroke:#b0b0b0;stroke-width:0.8;"/>
    <path d="M 1009.866717 858.525427 
L 997.158168 1100.18606 
L 467.827579 1174.085279 
" style="fill:none;stroke:#b0b0b0;stroke-width:0.8;"/>
    <path d="M 946.028693 837.507353 
L 936.615075 1076.763535 
L 412.457792 1148.534322 
" style="fill:none;stroke:#b0b0b0;stroke-width:0.8;"/>
    <path d="M 884.067712 817.10728 
L 877.766509 1053.996577 
L 358.705107 1123.729593 
" style="fill:none;stroke:#b0b0b0;stroke-width:0.8;"/>
   </g>
   <g id="xtick_25">
    <g id="line2d_30">
     <path d="M 588.236434 1226.908419 
L 574.675337 1228.878882 
" style="fill:none;stroke:#000000;stroke-linecap:square;stroke-width:0.8;"/>
    </g>
    <g id="text_31">
     <!-- 2 -->
     <g transform="translate(565.390192 1243.958366)scale(0.1 -0.1)">
      <use xlink:href="#DejaVuSans-50"/>
     </g>
    </g>
   </g>
   <g id="xtick_26">
    <g id="line2d_31">
     <path d="M 529.358014 1199.780208 
L 515.93988 1201.690935 
" style="fill:none;stroke:#000000;stroke-linecap:square;stroke-width:0.8;"/>
    </g>
    <g id="text_32">
     <!-- 4 -->
     <g transform="translate(506.801909 1216.681177)scale(0.1 -0.1)">
      <use xlink:href="#DejaVuSans-52"/>
     </g>
    </g>
   </g>
   <g id="xtick_27">
    <g id="line2d_32">
     <path d="M 472.250265 1173.467833 
L 458.972694 1175.321499 
" style="fill:none;stroke:#000000;stroke-linecap:square;stroke-width:0.8;"/>
    </g>
    <g id="text_33">
     <!-- 6 -->
     <g transform="translate(449.975871 1190.224443)scale(0.1 -0.1)">
      <use xlink:href="#DejaVuSans-54"/>
     </g>
    </g>
   </g>
   <g id="xtick_28">
    <g id="line2d_33">
     <path d="M 416.834496 1147.935037 
L 403.695111 1149.734161 
" style="fill:none;stroke:#000000;stroke-linecap:square;stroke-width:0.8;"/>
    </g>
    <g id="text_34">
     <!-- 8 -->
     <g transform="translate(394.833746 1164.551695)scale(0.1 -0.1)">
      <use xlink:href="#DejaVuSans-56"/>
     </g>
    </g>
   </g>
   <g id="xtick_29">
    <g id="line2d_34">
     <path d="M 363.036608 1123.14768 
L 350.03306 1124.894634 
" style="fill:none;stroke:#000000;stroke-linecap:square;stroke-width:0.8;"/>
    </g>
    <g id="text_35">
     <!-- 10 -->
     <g transform="translate(338.120529 1139.628595)scale(0.1 -0.1)">
      <use xlink:href="#DejaVuSans-49"/>
      <use x="63.623047" xlink:href="#DejaVuSans-48"/>
     </g>
    </g>
   </g>
  </g>
  <g id="axis3d_6">
   <g id="line2d_35">
    <path d="M 341.407944 1115.747639 
L 319.760292 872.506708 
" style="fill:none;stroke:#000000;stroke-linecap:square;stroke-width:0.8;"/>
   </g>
   <g id="text_36">
    <!-- State Value -->
    <g transform="translate(276.414167 965.691157)rotate(-275.085739)scale(0.1 -0.1)">
     <use xlink:href="#DejaVuSans-83"/>
     <use x="63.476562" xlink:href="#DejaVuSans-116"/>
     <use x="102.685547" xlink:href="#DejaVuSans-97"/>
     <use x="163.964844" xlink:href="#DejaVuSans-116"/>
     <use x="203.173828" xlink:href="#DejaVuSans-101"/>
     <use x="264.697266" xlink:href="#DejaVuSans-32"/>
     <use x="296.484375" xlink:href="#DejaVuSans-86"/>
     <use x="364.783203" xlink:href="#DejaVuSans-97"/>
     <use x="426.0625" xlink:href="#DejaVuSans-108"/>
     <use x="453.845703" xlink:href="#DejaVuSans-117"/>
     <use x="517.224609" xlink:href="#DejaVuSans-101"/>
    </g>
   </g>
   <g id="Line3DCollection_6">
    <path d="M 340.639985 1107.118568 
L 859.003124 1038.270283 
L 1179.038184 1161.426882 
" style="fill:none;stroke:#b0b0b0;stroke-width:0.8;"/>
    <path d="M 338.383654 1081.765603 
L 859.55839 1013.615198 
L 1181.445254 1135.545281 
" style="fill:none;stroke:#b0b0b0;stroke-width:0.8;"/>
    <path d="M 336.102499 1056.133717 
L 860.119507 988.700257 
L 1183.879682 1109.369505 
" style="fill:none;stroke:#b0b0b0;stroke-width:0.8;"/>
    <path d="M 333.796109 1030.218281 
L 860.68657 963.52133 
L 1186.341939 1082.894511 
" style="fill:none;stroke:#b0b0b0;stroke-width:0.8;"/>
    <path d="M 331.464064 1004.014564 
L 861.259674 938.074199 
L 1188.832505 1056.115138 
" style="fill:none;stroke:#b0b0b0;stroke-width:0.8;"/>
    <path d="M 329.105931 977.517728 
L 861.838914 912.354555 
L 1191.351869 1029.026107 
" style="fill:none;stroke:#b0b0b0;stroke-width:0.8;"/>
    <path d="M 326.721272 950.722829 
L 862.424391 886.357997 
L 1193.900535 1001.622016 
" style="fill:none;stroke:#b0b0b0;stroke-width:0.8;"/>
    <path d="M 324.309636 923.624807 
L 863.016206 860.080029 
L 1196.479016 973.897335 
" style="fill:none;stroke:#b0b0b0;stroke-width:0.8;"/>
    <path d="M 321.870563 896.21849 
L 863.614462 833.516057 
L 1199.08784 945.846407 
" style="fill:none;stroke:#b0b0b0;stroke-width:0.8;"/>
   </g>
   <g id="xtick_30">
    <g id="line2d_36">
     <path d="M 344.965139 1106.544107 
L 331.980672 1108.268686 
" style="fill:none;stroke:#000000;stroke-linecap:square;stroke-width:0.8;"/>
    </g>
    <g id="text_37">
     <!-- −0.8 -->
     <g transform="translate(306.388771 1113.284814)scale(0.1 -0.1)">
      <use xlink:href="#DejaVuSans-8722"/>
      <use x="83.789062" xlink:href="#DejaVuSans-48"/>
      <use x="147.412109" xlink:href="#DejaVuSans-46"/>
      <use x="179.199219" xlink:href="#DejaVuSans-56"/>
     </g>
    </g>
   </g>
   <g id="xtick_31">
    <g id="line2d_37">
     <path d="M 342.733247 1081.196837 
L 329.675361 1082.904326 
" style="fill:none;stroke:#000000;stroke-linecap:square;stroke-width:0.8;"/>
    </g>
    <g id="text_38">
     <!-- −0.6 -->
     <g transform="translate(304.013549 1087.946052)scale(0.1 -0.1)">
      <use xlink:href="#DejaVuSans-8722"/>
      <use x="83.789062" xlink:href="#DejaVuSans-48"/>
      <use x="147.412109" xlink:href="#DejaVuSans-46"/>
      <use x="179.199219" xlink:href="#DejaVuSans-54"/>
     </g>
    </g>
   </g>
   <g id="xtick_32">
    <g id="line2d_38">
     <path d="M 340.47681 1055.570806 
L 327.34467 1057.260724 
" style="fill:none;stroke:#000000;stroke-linecap:square;stroke-width:0.8;"/>
    </g>
    <g id="text_39">
     <!-- −0.4 -->
     <g transform="translate(301.61222 1062.328767)scale(0.1 -0.1)">
      <use xlink:href="#DejaVuSans-8722"/>
      <use x="83.789062" xlink:href="#DejaVuSans-48"/>
      <use x="147.412109" xlink:href="#DejaVuSans-46"/>
      <use x="179.199219" xlink:href="#DejaVuSans-52"/>
     </g>
    </g>
   </g>
   <g id="xtick_33">
    <g id="line2d_39">
     <path d="M 338.195419 1029.66139 
L 324.988178 1031.333242 
" style="fill:none;stroke:#000000;stroke-linecap:square;stroke-width:0.8;"/>
    </g>
    <g id="text_40">
     <!-- −0.2 -->
     <g transform="translate(299.184349 1036.428343)scale(0.1 -0.1)">
      <use xlink:href="#DejaVuSans-8722"/>
      <use x="83.789062" xlink:href="#DejaVuSans-48"/>
      <use x="147.412109" xlink:href="#DejaVuSans-46"/>
      <use x="179.199219" xlink:href="#DejaVuSans-50"/>
     </g>
    </g>
   </g>
   <g id="xtick_34">
    <g id="line2d_40">
     <path d="M 335.88866 1003.463862 
L 322.605453 1005.11714 
" style="fill:none;stroke:#000000;stroke-linecap:square;stroke-width:0.8;"/>
    </g>
    <g id="text_41">
     <!-- 0.0 -->
     <g transform="translate(300.919339 1010.24006)scale(0.1 -0.1)">
      <use xlink:href="#DejaVuSans-48"/>
      <use x="63.623047" xlink:href="#DejaVuSans-46"/>
      <use x="95.410156" xlink:href="#DejaVuSans-48"/>
     </g>
    </g>
   </g>
   <g id="xtick_35">
    <g id="line2d_41">
     <path d="M 333.556106 976.973389 
L 320.196056 978.607572 
" style="fill:none;stroke:#000000;stroke-linecap:square;stroke-width:0.8;"/>
    </g>
    <g id="text_42">
     <!-- 0.2 -->
     <g transform="translate(298.437048 983.759091)scale(0.1 -0.1)">
      <use xlink:href="#DejaVuSans-48"/>
      <use x="63.623047" xlink:href="#DejaVuSans-46"/>
      <use x="95.410156" xlink:href="#DejaVuSans-50"/>
     </g>
    </g>
   </g>
   <g id="xtick_36">
    <g id="line2d_42">
     <path d="M 331.197323 950.18503 
L 317.759537 951.799583 
" style="fill:none;stroke:#000000;stroke-linecap:square;stroke-width:0.8;"/>
    </g>
    <g id="text_43">
     <!-- 0.4 -->
     <g transform="translate(295.92686 956.980502)scale(0.1 -0.1)">
      <use xlink:href="#DejaVuSans-48"/>
      <use x="63.623047" xlink:href="#DejaVuSans-46"/>
      <use x="95.410156" xlink:href="#DejaVuSans-52"/>
     </g>
    </g>
   </g>
   <g id="xtick_37">
    <g id="line2d_43">
     <path d="M 328.811865 923.093732 
L 315.295434 924.688104 
" style="fill:none;stroke:#000000;stroke-linecap:square;stroke-width:0.8;"/>
    </g>
    <g id="text_44">
     <!-- 0.6 -->
     <g transform="translate(293.388299 929.899248)scale(0.1 -0.1)">
      <use xlink:href="#DejaVuSans-48"/>
      <use x="63.623047" xlink:href="#DejaVuSans-46"/>
      <use x="95.410156" xlink:href="#DejaVuSans-54"/>
     </g>
    </g>
   </g>
   <g id="xtick_38">
    <g id="line2d_44">
     <path d="M 326.399278 895.694328 
L 312.803276 897.267954 
" style="fill:none;stroke:#000000;stroke-linecap:square;stroke-width:0.8;"/>
    </g>
    <g id="text_45">
     <!-- 0.8 -->
     <g transform="translate(290.820884 902.510168)scale(0.1 -0.1)">
      <use xlink:href="#DejaVuSans-48"/>
      <use x="63.623047" xlink:href="#DejaVuSans-46"/>
      <use x="95.410156" xlink:href="#DejaVuSans-56"/>
     </g>
    </g>
   </g>
  </g>
  <g id="axes_2">
   <g id="Poly3DCollection_2">
    <path clip-path="url(#p864bc6adac)" d="M 890.207588 1094.384752 
L 935.416561 1069.098413 
L 904.965527 1069.377265 
L 860.637557 1075.638694 
z
" style="fill:#5f7fe8;"/>
    <path clip-path="url(#p864bc6adac)" d="M 845.702855 1085.952661 
L 890.207588 1094.384752 
L 860.637557 1075.638694 
L 816.082594 1074.572001 
z
" style="fill:#5f7fe8;"/>
    <path clip-path="url(#p864bc6adac)" d="M 921.713508 1069.086917 
L 965.820241 1082.994957 
L 935.416561 1069.098413 
L 890.207588 1094.384752 
z
" style="fill:#6c8ff1;"/>
    <path clip-path="url(#p864bc6adac)" d="M 800.569722 1078.248355 
L 845.702855 1085.952661 
L 816.082594 1074.572001 
L 771.088515 1064.889372 
z
" style="fill:#7093f3;"/>
    <path clip-path="url(#p864bc6adac)" d="M 860.637557 1075.638694 
L 904.965527 1069.377265 
L 879.500377 901.07203 
L 834.375182 879.175676 
z
" style="fill:#cdd9ec;"/>
    <path clip-path="url(#p864bc6adac)" d="M 876.12226 1083.822576 
L 921.713508 1069.086917 
L 890.207588 1094.384752 
L 845.702855 1085.952661 
z
" style="fill:#6e90f2;"/>
    <path clip-path="url(#p864bc6adac)" d="M 754.810201 1097.664075 
L 800.569722 1078.248355 
L 771.088515 1064.889372 
L 725.560723 1074.499112 
z
" style="fill:#7699f6;"/>
    <path clip-path="url(#p864bc6adac)" d="M 816.082594 1074.572001 
L 860.637557 1075.638694 
L 834.375182 879.175676 
L 788.292592 869.37105 
z
" style="fill:#dadce0;"/>
    <path clip-path="url(#p864bc6adac)" d="M 830.175281 1109.167007 
L 876.12226 1083.822576 
L 845.702855 1085.952661 
L 800.569722 1078.248355 
z
" style="fill:#6f92f3;"/>
    <path clip-path="url(#p864bc6adac)" d="M 708.806891 1100.769063 
L 754.810201 1097.664075 
L 725.560723 1074.499112 
L 679.740506 1083.158869 
z
" style="fill:#6f92f3;"/>
    <path clip-path="url(#p864bc6adac)" d="M 952.256582 1088.430284 
L 996.699891 1095.933733 
L 965.820241 1082.994957 
L 921.713508 1069.086917 
z
" style="fill:#7597f6;"/>
    <path clip-path="url(#p864bc6adac)" d="M 662.55329 1112.362053 
L 708.806891 1100.769063 
L 679.740506 1083.158869 
L 634.168619 1113.185989 
z
" style="fill:#6687ed;"/>
    <path clip-path="url(#p864bc6adac)" d="M 784.457757 1104.678469 
L 830.175281 1109.167007 
L 800.569722 1078.248355 
L 754.810201 1097.664075 
z
" style="fill:#6c8ff1;"/>
    <path clip-path="url(#p864bc6adac)" d="M 905.885381 1120.747576 
L 952.256582 1088.430284 
L 921.713508 1069.086917 
L 876.12226 1083.822576 
z
" style="fill:#7597f6;"/>
    <path clip-path="url(#p864bc6adac)" d="M 771.088515 1064.889372 
L 816.082594 1074.572001 
L 788.292592 869.37105 
L 741.577208 867.384799 
z
" style="fill:#e5d8d1;"/>
    <path clip-path="url(#p864bc6adac)" d="M 615.992289 1122.054674 
L 662.55329 1112.362053 
L 634.168619 1113.185989 
L 587.151512 1099.305205 
z
" style="fill:#6282ea;"/>
    <path clip-path="url(#p864bc6adac)" d="M 982.453984 1122.088184 
L 1028.498036 1101.008205 
L 996.699891 1095.933733 
L 952.256582 1088.430284 
z
" style="fill:#6e90f2;"/>
    <path clip-path="url(#p864bc6adac)" d="M 860.913987 1099.821877 
L 905.885381 1120.747576 
L 876.12226 1083.822576 
L 830.175281 1109.167007 
z
" style="fill:#6c8ff1;"/>
    <path clip-path="url(#p864bc6adac)" d="M 738.222459 1115.638817 
L 784.457757 1104.678469 
L 754.810201 1097.664075 
L 708.806891 1100.769063 
z
" style="fill:#6b8df0;"/>
    <path clip-path="url(#p864bc6adac)" d="M 834.375182 879.175676 
L 879.500377 901.07203 
L 850.458896 834.969092 
L 804.65685 832.574223 
z
" style="fill:#e16751;"/>
    <path clip-path="url(#p864bc6adac)" d="M 937.100549 1124.360973 
L 982.453984 1122.088184 
L 952.256582 1088.430284 
L 905.885381 1120.747576 
z
" style="fill:#6687ed;"/>
    <path clip-path="url(#p864bc6adac)" d="M 725.560723 1074.499112 
L 771.088515 1064.889372 
L 741.577208 867.384799 
L 694.663527 891.251097 
z
" style="fill:#e6d7cf;"/>
    <path clip-path="url(#p864bc6adac)" d="M 691.669041 1122.586478 
L 738.222459 1115.638817 
L 708.806891 1100.769063 
L 662.55329 1112.362053 
z
" style="fill:#688aef;"/>
    <path clip-path="url(#p864bc6adac)" d="M 568.806476 1123.452675 
L 615.992289 1122.054674 
L 587.151512 1099.305205 
L 540.27744 1105.222336 
z
" style="fill:#6a8bef;"/>
    <path clip-path="url(#p864bc6adac)" d="M 679.740506 1083.158869 
L 725.560723 1074.499112 
L 694.663527 891.251097 
L 647.819561 918.844194 
z
" style="fill:#dbdcde;"/>
    <path clip-path="url(#p864bc6adac)" d="M 814.62694 1110.687117 
L 860.913987 1099.821877 
L 830.175281 1109.167007 
L 784.457757 1104.678469 
z
" style="fill:#7093f3;"/>
    <path clip-path="url(#p864bc6adac)" d="M 634.168619 1113.185989 
L 679.740506 1083.158869 
L 647.819561 918.844194 
L 600.217053 920.564522 
z
" style="fill:#cfdaea;"/>
    <path clip-path="url(#p864bc6adac)" d="M 522.150479 1144.750691 
L 568.806476 1123.452675 
L 540.27744 1105.222336 
L 493.885351 1126.333663 
z
" style="fill:#6282ea;"/>
    <path clip-path="url(#p864bc6adac)" d="M 1014.199368 1131.52725 
L 1060.412753 1113.006046 
L 1028.498036 1101.008205 
L 982.453984 1122.088184 
z
" style="fill:#6a8bef;"/>
    <path clip-path="url(#p864bc6adac)" d="M 644.566956 1121.106659 
L 691.669041 1122.586478 
L 662.55329 1112.362053 
L 615.992289 1122.054674 
z
" style="fill:#688aef;"/>
    <path clip-path="url(#p864bc6adac)" d="M 788.292592 869.37105 
L 834.375182 879.175676 
L 804.65685 832.574223 
L 758.345799 839.96293 
z
" style="fill:#d44e41;"/>
    <path clip-path="url(#p864bc6adac)" d="M 892.083219 1100.979535 
L 937.100549 1124.360973 
L 905.885381 1120.747576 
L 860.913987 1099.821877 
z
" style="fill:#7295f4;"/>
    <path clip-path="url(#p864bc6adac)" d="M 768.076922 1119.839645 
L 814.62694 1110.687117 
L 784.457757 1104.678469 
L 738.222459 1115.638817 
z
" style="fill:#7093f3;"/>
    <path clip-path="url(#p864bc6adac)" d="M 473.370244 1132.060156 
L 522.150479 1144.750691 
L 493.885351 1126.333663 
L 446.38481 1131.717764 
z
" style="fill:#5e7de7;"/>
    <path clip-path="url(#p864bc6adac)" d="M 969.455536 1116.211826 
L 1014.199368 1131.52725 
L 982.453984 1122.088184 
L 937.100549 1124.360973 
z
" style="fill:#6a8bef;"/>
    <path clip-path="url(#p864bc6adac)" d="M 587.151512 1099.305205 
L 634.168619 1113.185989 
L 600.217053 920.564522 
L 551.524475 907.023303 
z
" style="fill:#d5dbe5;"/>
    <path clip-path="url(#p864bc6adac)" d="M 721.283876 1138.336658 
L 768.076922 1119.839645 
L 738.222459 1115.638817 
L 691.669041 1122.586478 
z
" style="fill:#6a8bef;"/>
    <path clip-path="url(#p864bc6adac)" d="M 597.481368 1135.799858 
L 644.566956 1121.106659 
L 615.992289 1122.054674 
L 568.806476 1123.452675 
z
" style="fill:#688aef;"/>
    <path clip-path="url(#p864bc6adac)" d="M 741.577208 867.384799 
L 788.292592 869.37105 
L 758.345799 839.96293 
L 711.677785 842.922698 
z
" style="fill:#cd423b;"/>
    <path clip-path="url(#p864bc6adac)" d="M 550.192463 1150.456784 
L 597.481368 1135.799858 
L 568.806476 1123.452675 
L 522.150479 1144.750691 
z
" style="fill:#6180e9;"/>
    <path clip-path="url(#p864bc6adac)" d="M 845.344628 1116.129369 
L 892.083219 1100.979535 
L 860.913987 1099.821877 
L 814.62694 1110.687117 
z
" style="fill:#81a4fb;"/>
    <path clip-path="url(#p864bc6adac)" d="M 1046.72713 1136.961841 
L 1093.283389 1118.731508 
L 1060.412753 1113.006046 
L 1014.199368 1131.52725 
z
" style="fill:#6f92f3;"/>
    <path clip-path="url(#p864bc6adac)" d="M 674.079878 1139.929528 
L 721.283876 1138.336658 
L 691.669041 1122.586478 
L 644.566956 1121.106659 
z
" style="fill:#6a8bef;"/>
    <path clip-path="url(#p864bc6adac)" d="M 493.885351 1126.333663 
L 540.27744 1105.222336 
L 502.603862 903.923131 
L 459.405174 1002.321905 
z
" style="fill:#c7d7f0;"/>
    <path clip-path="url(#p864bc6adac)" d="M 798.278436 1145.422217 
L 845.344628 1116.129369 
L 814.62694 1110.687117 
L 768.076922 1119.839645 
z
" style="fill:#7396f5;"/>
    <path clip-path="url(#p864bc6adac)" d="M 694.663527 891.251097 
L 741.577208 867.384799 
L 711.677785 842.922698 
L 664.645435 848.383671 
z
" style="fill:#d0473d;"/>
    <path clip-path="url(#p864bc6adac)" d="M 446.38481 1131.717764 
L 493.885351 1126.333663 
L 459.405174 1002.321905 
L 407.439078 958.453222 
z
" style="fill:#b7cff9;"/>
    <path clip-path="url(#p864bc6adac)" d="M 922.842433 1130.222571 
L 969.455536 1116.211826 
L 937.100549 1124.360973 
L 892.083219 1100.979535 
z
" style="fill:#7a9df8;"/>
    <path clip-path="url(#p864bc6adac)" d="M 540.27744 1105.222336 
L 587.151512 1099.305205 
L 551.524475 907.023303 
L 502.603862 903.923131 
z
" style="fill:#e1dad6;"/>
    <path clip-path="url(#p864bc6adac)" d="M 501.70379 1146.9452 
L 550.192463 1150.456784 
L 522.150479 1144.750691 
L 473.370244 1132.060156 
z
" style="fill:#6282ea;"/>
    <path clip-path="url(#p864bc6adac)" d="M 647.819561 918.844194 
L 694.663527 891.251097 
L 664.645435 848.383671 
L 617.398435 859.32997 
z
" style="fill:#dd5f4b;"/>
    <path clip-path="url(#p864bc6adac)" d="M 626.346382 1139.481475 
L 674.079878 1139.929528 
L 644.566956 1121.106659 
L 597.481368 1135.799858 
z
" style="fill:#6e90f2;"/>
    <path clip-path="url(#p864bc6adac)" d="M 1001.496858 1128.261995 
L 1046.72713 1136.961841 
L 1014.199368 1131.52725 
L 969.455536 1116.211826 
z
" style="fill:#7396f5;"/>
    <path clip-path="url(#p864bc6adac)" d="M 751.288522 1119.783461 
L 798.278436 1145.422217 
L 768.076922 1119.839645 
L 721.283876 1138.336658 
z
" style="fill:#7295f4;"/>
    <path clip-path="url(#p864bc6adac)" d="M 600.217053 920.564522 
L 647.819561 918.844194 
L 617.398435 859.32997 
L 569.525664 860.682336 
z
" style="fill:#e16751;"/>
    <path clip-path="url(#p864bc6adac)" d="M 876.245953 1135.702381 
L 922.842433 1130.222571 
L 892.083219 1100.979535 
L 845.344628 1116.129369 
z
" style="fill:#7ea1fa;"/>
    <path clip-path="url(#p864bc6adac)" d="M 578.947403 1161.606005 
L 626.346382 1139.481475 
L 597.481368 1135.799858 
L 550.192463 1150.456784 
z
" style="fill:#6687ed;"/>
    <path clip-path="url(#p864bc6adac)" d="M 1080.587094 1132.114791 
L 1126.413134 1128.689638 
L 1093.283389 1118.731508 
L 1046.72713 1136.961841 
z
" style="fill:#7b9ff9;"/>
    <path clip-path="url(#p864bc6adac)" d="M 703.750412 1139.643981 
L 751.288522 1119.783461 
L 721.283876 1138.336658 
L 674.079878 1139.929528 
z
" style="fill:#7699f6;"/>
    <path clip-path="url(#p864bc6adac)" d="M 954.505482 1144.543502 
L 1001.496858 1128.261995 
L 969.455536 1116.211826 
L 922.842433 1130.222571 
z
" style="fill:#7a9df8;"/>
    <path clip-path="url(#p864bc6adac)" d="M 829.556542 1123.325 
L 876.245953 1135.702381 
L 845.344628 1116.129369 
L 798.278436 1145.422217 
z
" style="fill:#7b9ff9;"/>
    <path clip-path="url(#p864bc6adac)" d="M 530.38289 1160.865433 
L 578.947403 1161.606005 
L 550.192463 1150.456784 
L 501.70379 1146.9452 
z
" style="fill:#6485ec;"/>
    <path clip-path="url(#p864bc6adac)" d="M 551.524475 907.023303 
L 600.217053 920.564522 
L 569.525664 860.682336 
L 521.276494 863.778217 
z
" style="fill:#d95847;"/>
    <path clip-path="url(#p864bc6adac)" d="M 1033.269109 1153.017146 
L 1080.587094 1132.114791 
L 1046.72713 1136.961841 
L 1001.496858 1128.261995 
z
" style="fill:#799cf8;"/>
    <path clip-path="url(#p864bc6adac)" d="M 908.033216 1140.342672 
L 954.505482 1144.543502 
L 922.842433 1130.222571 
L 876.245953 1135.702381 
z
" style="fill:#799cf8;"/>
    <path clip-path="url(#p864bc6adac)" d="M 459.405174 1002.321905 
L 502.603862 903.923131 
L 473.030704 874.429342 
L 427.170608 924.553914 
z
" style="fill:#ef886b;"/>
    <path clip-path="url(#p864bc6adac)" d="M 655.536481 1132.409731 
L 703.750412 1139.643981 
L 674.079878 1139.929528 
L 626.346382 1139.481475 
z
" style="fill:#7a9df8;"/>
    <path clip-path="url(#p864bc6adac)" d="M 781.873774 1147.775502 
L 829.556542 1123.325 
L 798.278436 1145.422217 
L 751.288522 1119.783461 
z
" style="fill:#7ea1fa;"/>
    <path clip-path="url(#p864bc6adac)" d="M 407.439078 958.453222 
L 459.405174 1002.321905 
L 427.170608 924.553914 
L 375.230785 889.9701 
z
" style="fill:#f49a7b;"/>
    <path clip-path="url(#p864bc6adac)" d="M 608.264914 1176.199303 
L 655.536481 1132.409731 
L 626.346382 1139.481475 
L 578.947403 1161.606005 
z
" style="fill:#6f92f3;"/>
    <path clip-path="url(#p864bc6adac)" d="M 502.603862 903.923131 
L 551.524475 907.023303 
L 521.276494 863.778217 
L 473.030704 874.429342 
z
" style="fill:#d24b40;"/>
    <path clip-path="url(#p864bc6adac)" d="M 987.494118 1142.100691 
L 1033.269109 1153.017146 
L 1001.496858 1128.261995 
L 954.505482 1144.543502 
z
" style="fill:#7b9ff9;"/>
    <path clip-path="url(#p864bc6adac)" d="M 860.228789 1167.67834 
L 908.033216 1140.342672 
L 876.245953 1135.702381 
L 829.556542 1123.325 
z
" style="fill:#7da0f9;"/>
    <path clip-path="url(#p864bc6adac)" d="M 734.101817 1152.757309 
L 781.873774 1147.775502 
L 751.288522 1119.783461 
L 703.750412 1139.643981 
z
" style="fill:#80a3fa;"/>
    <path clip-path="url(#p864bc6adac)" d="M 559.137856 1166.741948 
L 608.264914 1176.199303 
L 578.947403 1161.606005 
L 530.38289 1160.865433 
z
" style="fill:#6687ed;"/>
    <path clip-path="url(#p864bc6adac)" d="M 939.770788 1161.085756 
L 987.494118 1142.100691 
L 954.505482 1144.543502 
L 908.033216 1140.342672 
z
" style="fill:#7ea1fa;"/>
    <path clip-path="url(#p864bc6adac)" d="M 813.101812 1147.022255 
L 860.228789 1167.67834 
L 829.556542 1123.325 
L 781.873774 1147.775502 
z
" style="fill:#80a3fa;"/>
    <path clip-path="url(#p864bc6adac)" d="M 685.842331 1153.017824 
L 734.101817 1152.757309 
L 703.750412 1139.643981 
L 655.536481 1132.409731 
z
" style="fill:#82a6fb;"/>
    <path clip-path="url(#p864bc6adac)" d="M 637.805669 1182.877176 
L 685.842331 1153.017824 
L 655.536481 1132.409731 
L 608.264914 1176.199303 
z
" style="fill:#7597f6;"/>
    <path clip-path="url(#p864bc6adac)" d="M 892.74195 1153.165871 
L 939.770788 1161.085756 
L 908.033216 1140.342672 
L 860.228789 1167.67834 
z
" style="fill:#7b9ff9;"/>
    <path clip-path="url(#p864bc6adac)" d="M 764.916903 1166.438905 
L 813.101812 1147.022255 
L 781.873774 1147.775502 
L 734.101817 1152.757309 
z
" style="fill:#7ea1fa;"/>
    <path clip-path="url(#p864bc6adac)" d="M 588.681647 1179.732538 
L 637.805669 1182.877176 
L 608.264914 1176.199303 
L 559.137856 1166.741948 
z
" style="fill:#6a8bef;"/>
    <path clip-path="url(#p864bc6adac)" d="M 844.35168 1178.911093 
L 892.74195 1153.165871 
L 860.228789 1167.67834 
L 813.101812 1147.022255 
z
" style="fill:#7b9ff9;"/>
    <path clip-path="url(#p864bc6adac)" d="M 716.333074 1151.158112 
L 764.916903 1166.438905 
L 734.101817 1152.757309 
L 685.842331 1153.017824 
z
" style="fill:#85a8fc;"/>
    <path clip-path="url(#p864bc6adac)" d="M 667.893396 1189.872181 
L 716.333074 1151.158112 
L 685.842331 1153.017824 
L 637.805669 1182.877176 
z
" style="fill:#7b9ff9;"/>
    <path clip-path="url(#p864bc6adac)" d="M 796.320702 1167.804484 
L 844.35168 1178.911093 
L 813.101812 1147.022255 
L 764.916903 1166.438905 
z
" style="fill:#81a4fb;"/>
    <path clip-path="url(#p864bc6adac)" d="M 618.493236 1186.310839 
L 667.893396 1189.872181 
L 637.805669 1182.877176 
L 588.681647 1179.732538 
z
" style="fill:#7093f3;"/>
    <path clip-path="url(#p864bc6adac)" d="M 747.516795 1158.579313 
L 796.320702 1167.804484 
L 764.916903 1166.438905 
L 716.333074 1151.158112 
z
" style="fill:#8fb1fe;"/>
    <path clip-path="url(#p864bc6adac)" d="M 698.743478 1214.198518 
L 747.516795 1158.579313 
L 716.333074 1151.158112 
L 667.893396 1189.872181 
z
" style="fill:#81a4fb;"/>
    <path clip-path="url(#p864bc6adac)" d="M 648.961935 1197.246963 
L 698.743478 1214.198518 
L 667.893396 1189.872181 
L 618.493236 1186.310839 
z
" style="fill:#7295f4;"/>
   </g>
   <g id="text_46">
    <!-- No Usable Ace -->
    <defs>
     <path d="M 9.8125 72.90625 
L 23.09375 72.90625 
L 55.421875 11.921875 
L 55.421875 72.90625 
L 64.984375 72.90625 
L 64.984375 0 
L 51.703125 0 
L 19.390625 60.984375 
L 19.390625 0 
L 9.8125 0 
z
" id="DejaVuSans-78"/>
    </defs>
    <g transform="translate(694.570312 811.92)scale(0.12 -0.12)">
     <use xlink:href="#DejaVuSans-78"/>
     <use x="74.804688" xlink:href="#DejaVuSans-111"/>
     <use x="135.986328" xlink:href="#DejaVuSans-32"/>
     <use x="167.773438" xlink:href="#DejaVuSans-85"/>
     <use x="240.966797" xlink:href="#DejaVuSans-115"/>
     <use x="293.066406" xlink:href="#DejaVuSans-97"/>
     <use x="354.345703" xlink:href="#DejaVuSans-98"/>
     <use x="417.822266" xlink:href="#DejaVuSans-108"/>
     <use x="445.605469" xlink:href="#DejaVuSans-101"/>
     <use x="507.128906" xlink:href="#DejaVuSans-32"/>
     <use x="538.916016" xlink:href="#DejaVuSans-65"/>
     <use x="607.308594" xlink:href="#DejaVuSans-99"/>
     <use x="662.289062" xlink:href="#DejaVuSans-101"/>
    </g>
   </g>
  </g>
 </g>
 <defs>
  <clipPath id="pc5bee285da">
   <rect height="504" width="1116" x="180" y="172.8"/>
  </clipPath>
  <clipPath id="p864bc6adac">
   <rect height="504" width="1116" x="180" y="777.6"/>
  </clipPath>
 </defs>
</svg>
